<svg version="1.1" xmlns="http://www.w3.org/2000/svg" xmlns:xlink="http://www.w3.org/1999/xlink" width="32" height="32" viewBox="0 0 32 32">
<path d="M24 6.4h4.8v22.4h-25.6v-22.4h4.8v-1.6q0-0.992 0.704-1.696t1.696-0.704 1.696 0.704 0.704 1.696v1.6h6.4v-1.6q0-0.992 0.704-1.696t1.696-0.704 1.696 0.704 0.704 1.696v1.6zM9.6 4.8v4q0 0.336 0.232 0.568t0.568 0.232 0.568-0.232 0.232-0.568v-4q0-0.336-0.232-0.568t-0.568-0.232-0.568 0.232-0.232 0.568zM20.8 4.8v4q0 0.336 0.232 0.568t0.568 0.232 0.568-0.232 0.232-0.568v-4q0-0.336-0.232-0.568t-0.568-0.232-0.568 0.232-0.232 0.568zM27.2 27.2v-14.4h-22.4v14.4h22.4zM11.2 25.6v-11.2h-3.2v11.2h3.2zM17.6 25.6v-11.2h-3.2v11.2h3.2zM24 25.6v-11.2h-3.2v11.2h3.2z"></path>
</svg>
