<svg version="1.1" xmlns="http://www.w3.org/2000/svg" xmlns:xlink="http://www.w3.org/1999/xlink" width="32" height="32" viewBox="0 0 32 32">
<path d="M9.6 20.8h14.4q0.656 0 1.128 0.472t0.472 1.128-0.472 1.128-1.128 0.472h-16q-0.656 0-1.128-0.472t-0.472-1.128v-16h-3.2q-0.656 0-1.128-0.472t-0.472-1.128 0.472-1.128 1.128-0.472h4.8q0.656 0 1.128 0.472t0.472 1.128v3.2h20.8l-6.4 11.2h-14.4v1.6zM8.8 25.6q0.992 0 1.696 0.704t0.704 1.696-0.704 1.696-1.696 0.704-1.696-0.704-0.704-1.696 0.704-1.696 1.696-0.704zM23.2 25.6q0.992 0 1.696 0.704t0.704 1.696-0.704 1.696-1.696 0.704-1.696-0.704-0.704-1.696 0.704-1.696 1.696-0.704z"></path>
</svg>
