<svg version="1.1" xmlns="http://www.w3.org/2000/svg" xmlns:xlink="http://www.w3.org/1999/xlink" width="32" height="32" viewBox="0 0 32 32">
<path d="M17.6 9.6h-1.312q-1.296 0-2.392 1.136t-1.096 2.32v2.944l-4.8 4.8v-4.8h-3.2q-1.312 0-2.256-0.944t-0.944-2.256v-8q0-1.312 0.944-2.256t2.256-0.944h9.6q1.312 0 2.256 0.944t0.944 2.256v4.8zM17.6 11.2h9.6q1.312 0 2.256 0.944t0.944 2.256v8q0 1.312-0.944 2.256t-2.256 0.944h-3.2v4.8l-4.8-4.8h-1.6q-1.312 0-2.256-0.944t-0.944-2.256v-8q0-1.312 0.944-2.256t2.256-0.944z"></path>
</svg>
