<svg version="1.1" xmlns="http://www.w3.org/2000/svg" xmlns:xlink="http://www.w3.org/1999/xlink" width="32" height="32" viewBox="0 0 32 32">
<path d="M27.12 4.128q1.536 1.536 2.088 3.6t0 4.12-2.088 3.592q-1.792 1.792-4.28 2.216t-4.664-0.6l-2.992 5.296-4.784 0.496-2.4 5.952h-4.8l-1.6-3.2 12.72-12.304q-1.136-2.224-0.744-4.776t2.232-4.392q1.536-1.536 3.6-2.088t4.12 0 3.592 2.088zM23.104 10.192q0.88 0 1.504-0.624t0.624-1.52q0-0.88-0.624-1.504t-1.504-0.624-1.504 0.624-0.624 1.504 0.624 1.512 1.504 0.632z"></path>
</svg>
