<svg version="1.1" xmlns="http://www.w3.org/2000/svg" xmlns:xlink="http://www.w3.org/1999/xlink" width="32" height="32" viewBox="0 0 32 32">
<path d="M28.384 4.416q2.016 2.032 2.016 4.88t-2.016 4.88l-2.448 2.432q-1.312 1.312-3.12 1.768t-3.504-0.024l4.192-4.176 1.216-1.232 1.216-1.216q1.008-1.008 1.008-2.432t-1.008-2.432q-1.008-1.024-2.432-1.024t-2.432 1.024l-1.232 1.216-5.408 5.408q-0.464-1.696-0.008-3.504t1.768-3.12l2.432-2.448q2.032-2.016 4.888-2.016t4.872 2.016zM13.744 21.488l8.544-8.544q0.496-0.496 0.496-1.216t-0.496-1.216q-0.544-0.512-1.248-0.496t-1.2 0.496l-8.528 8.544q-0.496 0.496-0.496 1.216t0.496 1.216q0.544 0.512 1.248 0.496t1.184-0.496zM12.528 25.152l6.624-6.64q0.48 1.696 0.024 3.504t-1.768 3.12l-2.432 2.448q-2.032 2.016-4.88 2.016t-4.88-2.016q-2.016-2.016-2.016-4.88t2.016-4.88l2.448-2.432q1.312-1.312 3.12-1.768t3.504 0.008l-6.624 6.64q-1.024 1.008-1.024 2.432t1.024 2.448q1.008 1.008 2.432 1.008t2.432-1.008z"></path>
</svg>
