<svg version="1.1" xmlns="http://www.w3.org/2000/svg" xmlns:xlink="http://www.w3.org/1999/xlink" width="32" height="32" viewBox="0 0 32 32">
<path d="M23.872 28.8h4.928q0-3.424-0.92-6.688t-2.576-6.024-4.016-5.088-5.168-3.96-6.128-2.536-6.792-0.904v4.832q3.36 0 6.512 1.032t5.696 2.912 4.456 4.384 2.96 5.616 1.048 6.424zM15.168 28.8h4.928q0-3.376-1.344-6.456t-3.608-5.312-5.392-3.552-6.552-1.32v4.832q2.4 0 4.576 0.896t3.888 2.56q1.696 1.664 2.6 3.824t0.904 4.528zM6.608 28.768q1.408 0 2.408-0.976t1-2.368q0-1.376-1-2.36t-2.408-0.984-2.408 0.984-1 2.36q0 1.392 0.992 2.368t2.416 0.976z"></path>
</svg>
