<svg version="1.1" xmlns="http://www.w3.org/2000/svg" xmlns:xlink="http://www.w3.org/1999/xlink" width="32" height="32" viewBox="0 0 32 32">
<path d="M16 1.6q3.28 0 5.792 0.536t4.12 1.456 2.632 2.272 1.44 2.84 0.416 3.296-0.416 3.296-1.44 2.84-2.632 2.272-4.12 1.456-5.792 0.536-5.792-0.536-4.12-1.456-2.632-2.272-1.44-2.84-0.416-3.296 0.416-3.296 1.44-2.84 2.632-2.272 4.12-1.456 5.792-0.536zM8.8 14.4q0.992 0 1.696-0.704t0.704-1.696-0.704-1.696-1.696-0.704-1.696 0.704-0.704 1.696 0.704 1.696 1.696 0.704zM16 14.4q0.992 0 1.696-0.704t0.704-1.696-0.704-1.696-1.696-0.704-1.696 0.704-0.704 1.696 0.704 1.696 1.696 0.704zM23.2 14.4q0.992 0 1.696-0.704t0.704-1.696-0.704-1.696-1.696-0.704-1.696 0.704-0.704 1.696 0.704 1.696 1.696 0.704zM9.6 23.2q0.992 0 1.696 0.704t0.704 1.696-0.704 1.696-1.696 0.704-1.696-0.704-0.704-1.696 0.704-1.696 1.696-0.704zM4.8 26.4q0.656 0 1.128 0.472t0.472 1.128-0.472 1.128-1.128 0.472-1.128-0.472-0.472-1.128 0.472-1.128 1.128-0.472z"></path>
</svg>
