<svg version="1.1" xmlns="http://www.w3.org/2000/svg" xmlns:xlink="http://www.w3.org/1999/xlink" width="32" height="32" viewBox="0 0 32 32">
<path d="M16.704 4.832l2.912-2.912 10.176 10.16-2.928 2.912q-1.248-0.832-2.8-0.68t-2.656 1.256l-1.2 1.2q-1.088 1.104-1.24 2.648t0.68 2.808l-2.928 2.912-3.856-3.856-4.48 4.464q-0.864 0.864-3.256 2.48t-2.824 1.184 1.184-2.84 2.464-3.256l4.464-4.464-3.856-3.872 2.928-2.912q1.248 0.832 2.8 0.68t2.64-1.256l1.2-1.2q1.104-1.088 1.256-2.64t-0.68-2.816z"></path>
</svg>
