<svg version="1.1" xmlns="http://www.w3.org/2000/svg" xmlns:xlink="http://www.w3.org/1999/xlink" width="32" height="32" viewBox="0 0 32 32">
<path d="M16 3.2q2.608 0 4.976 1.016t4.080 2.728 2.728 4.080 1.016 4.976-1.016 4.976-2.728 4.080-4.080 2.728-4.976 1.016-4.976-1.016-4.080-2.728-2.728-4.080-1.016-4.976 1.016-4.976 2.728-4.080 4.080-2.728 4.976-1.016zM16 25.6q2.608 0 4.816-1.288t3.496-3.496 1.288-4.816-1.288-4.816-3.496-3.496-4.816-1.288-4.816 1.288-3.496 3.496-1.288 4.816 1.288 4.816 3.496 3.496 4.816 1.288zM14.864 17.136q0.224 0.16 0.368 0.24l-0.032 0.032 7.2 3.392-4.848-5.104-1.552-7.696-1.552 7.696h0.016q0 0.016-0.032 0.144t-0.032 0.16q0 0.672 0.464 1.136z"></path>
</svg>
