<svg version="1.1" xmlns="http://www.w3.org/2000/svg" xmlns:xlink="http://www.w3.org/1999/xlink" width="32" height="32" viewBox="0 0 32 32">
<path d="M12.8 8q0-0.656-0.472-1.128t-1.128-0.472h-8q-0.656 0-1.128 0.472t-0.472 1.128q0 0.672 0.488 1.136t1.112 0.464h8q0.656 0 1.128-0.472t0.472-1.128zM22.4 16l6.4-6.4v16l-6.4-6.4v-3.2zM20.8 22.4v-9.6q0-0.656-0.472-1.128t-1.128-0.472h-12.8q-0.656 0-1.128 0.472t-0.472 1.128v9.6q0 0.656 0.472 1.128t1.128 0.472h12.8q0.656 0 1.128-0.472t0.472-1.128z"></path>
</svg>
