<svg version="1.1" xmlns="http://www.w3.org/2000/svg" xmlns:xlink="http://www.w3.org/1999/xlink" width="32" height="32" viewBox="0 0 32 32">
<path d="M18.109 10.909c-2.197 0.247-5.069 0.411-7.125 1.312-2.375 1.025-4.040 3.116-4.040 6.192 0 3.937 2.48 5.905 5.671 5.905 2.693 0 4.167-0.636 6.247-2.753 0.688 0.996 0.913 1.479 2.172 2.525 0.283 0.152 0.644 0.137 0.896-0.088l0.008 0.008c0.756-0.673 2.132-1.868 2.907-2.517 0.308-0.251 0.253-0.661 0.012-1.005-0.693-0.957-1.429-1.737-1.429-3.512v-5.903c0-2.501 0.177-4.799-1.665-6.521-1.455-1.393-3.865-1.885-5.708-1.885-3.605 0-7.629 1.347-8.472 5.801-0.091 0.473 0.255 0.723 0.564 0.792l3.672 0.397c0.344-0.017 0.593-0.355 0.659-0.697 0.315-1.535 1.6-2.275 3.045-2.275 0.779 0 1.665 0.287 2.127 0.984 0.531 0.779 0.461 1.845 0.461 2.748v0.492zM17.399 18.784c-0.601 1.067-1.559 1.721-2.623 1.721-1.453 0-2.304-1.107-2.304-2.748 0-3.227 2.895-3.813 5.636-3.813v0.82c0.001 1.477 0.036 2.708-0.709 4.020zM27.577 25.785c-3.139 2.316-7.688 3.548-11.605 3.548-5.491 0-10.435-2.029-14.176-5.409-0.293-0.265-0.032-0.628 0.321-0.423 4.036 2.349 9.028 3.764 14.185 3.764 3.477 0 7.301-0.721 10.82-2.213 0.529-0.225 0.973 0.349 0.455 0.733zM28.448 28.057c-0.259 0.217-0.505 0.101-0.391-0.185 0.379-0.947 1.227-3.064 0.825-3.579s-2.653-0.244-3.665-0.123c-0.307 0.036-0.355-0.231-0.079-0.425 1.797-1.261 4.74-0.897 5.081-0.475 0.347 0.427-0.088 3.377-1.772 4.787z"></path>
</svg>
