<svg version="1.1" xmlns="http://www.w3.org/2000/svg" xmlns:xlink="http://www.w3.org/1999/xlink" width="32" height="32" viewBox="0 0 32 32">
<path d="M10.399 7.597c0.785 0 1.493 0.068 2.141 0.208 0.643 0.136 1.192 0.364 1.655 0.676 0.459 0.313 0.816 0.728 1.072 1.251 0.251 0.516 0.375 1.161 0.375 1.924 0 0.825-0.188 1.516-0.561 2.068-0.379 0.551-0.933 1.001-1.673 1.352 1.008 0.291 1.756 0.801 2.252 1.528 0.499 0.732 0.743 1.607 0.743 2.633 0 0.831-0.16 1.548-0.479 2.149-0.321 0.609-0.759 1.104-1.297 1.485-0.544 0.384-1.168 0.667-1.865 0.849-0.691 0.187-1.408 0.279-2.143 0.279h-7.951v-16.403h7.732zM9.932 14.224c0.641 0 1.171-0.152 1.589-0.46 0.415-0.304 0.617-0.804 0.617-1.492 0-0.381-0.068-0.697-0.203-0.943-0.139-0.243-0.321-0.435-0.555-0.569-0.232-0.139-0.493-0.235-0.795-0.288-0.299-0.059-0.609-0.080-0.929-0.080h-3.379v3.832h3.653zM10.133 21.207c0.356 0 0.695-0.032 1.012-0.103 0.324-0.071 0.609-0.183 0.849-0.348 0.243-0.16 0.443-0.377 0.588-0.655 0.147-0.275 0.217-0.632 0.217-1.064 0-0.844-0.24-1.445-0.711-1.809-0.475-0.36-1.107-0.539-1.884-0.539h-3.927v4.517h3.855zM21.549 21.152c0.489 0.477 1.196 0.717 2.111 0.717 0.657 0 1.227-0.167 1.703-0.499 0.472-0.331 0.761-0.685 0.872-1.053h2.873c-0.463 1.429-1.163 2.451-2.119 3.065-0.944 0.617-2.096 0.924-3.44 0.924-0.935 0-1.776-0.151-2.532-0.449-0.756-0.303-1.388-0.725-1.919-1.277-0.519-0.553-0.919-1.209-1.205-1.979-0.284-0.765-0.427-1.613-0.427-2.532 0-0.888 0.147-1.717 0.439-2.484 0.296-0.769 0.705-1.433 1.244-1.989 0.541-0.56 1.18-1.001 1.925-1.325 0.744-0.321 1.567-0.484 2.476-0.484 1.005 0 1.885 0.193 2.64 0.587 0.751 0.388 1.368 0.915 1.852 1.575 0.484 0.657 0.829 1.409 1.044 2.253 0.213 0.843 0.289 1.723 0.228 2.644h-8.571c-0.001 0.941 0.316 1.829 0.805 2.307zM25.297 14.912c-0.388-0.428-1.044-0.661-1.845-0.661-0.52 0-0.952 0.088-1.297 0.267-0.339 0.176-0.615 0.396-0.828 0.655-0.209 0.263-0.353 0.54-0.437 0.837-0.084 0.289-0.135 0.551-0.148 0.783h5.307c-0.077-0.833-0.361-1.447-0.751-1.88zM20.076 10.317h6.647v-1.619h-6.647v1.619z"></path>
</svg>
