<svg version="1.1" xmlns="http://www.w3.org/2000/svg" xmlns:xlink="http://www.w3.org/1999/xlink" width="32" height="32" viewBox="0 0 32 32">
<path d="M16 4c6.626 0 12 5.374 12 12s-5.374 12-12 12-12-5.374-12-12 5.374-12 12-12zM7.44 11.054l-0.044-0.062c-0.072 0.124-0.138 0.252-0.206 0.38l0.070-0.016 0.274-0.098 0.472-0.042zM16 26c4.142 0 7.704-2.534 9.222-6.134l-0.102-0.164 0.234-0.794-0.542-0.394-0.396-0.118-0.368-0.31-0.872 0.33-0.824 0.048-0.624-0.454-0.61-0.836-0.012-0.508 0.014-0.848 0.088-0.118 0.076-0.284 0.356-0.548 0.208-0.204 0.292-0.324 0.204-0.4 0.576-0.546 0.59 0.006 0.432-0.15 1.038-0.112 0.406 0.576 0.378 0.164c-0.132-0.616-0.316-1.214-0.556-1.782l-0.086-0.080-0.21 0.104-0.452 0.042-0.372 0.332-0.406 0.548-0.792 0.182-0.368-0.144 0.042-0.634 0.208-0.394 0.726 0.042 0.134-0.342-0.376-0.416 0.322-0.13 0.632-0.344 0.226-0.182c-0.768-1.214-1.776-2.254-2.98-3.042l-0.068 0.028 0.318 0.278-0.514-0.082-0.072 0.146 0.332 0.040-0.124 0.14-0.936 0.162-1.208 0.536-0.936 0.452-0.098-0.932 0.264-0.51-0.194-0.34-0.718-0.304-0.346-0.268 0.502-0.12 1.080-0.264 0.466-0.026c-1.012-0.346-2.078-0.574-3.204-0.574-2.29 0-4.376 0.804-6.064 2.104l0.598-0.018 1.246 0.32 0.544-0.122 0.744 0.094 0.468-0.114 0.088-0.282 0.44 0.046 0.172 0.356 0.744-0.068-1.168 0.386-0.564 0.326-0.862 0.66 0.214 0.234 0.6 0.282 0.428 0.438 0.526-0.538 0.304-0.592 0.516-0.354 0.516 0.262 0.142 0.288 0.452-0.16 0.16 0.862 0.32 0.314-1.168 0.298-0.856 0.336 0.668-0.184-0.082 0.268 0.212 0.24 0.176 0.112-0.718 0.292 0.252-0.294-0.406 0.088-0.488 0.232-0.222 0.258-0.546 0.302-0.4 0.316-0.152 0.366-0.512 0.418-0.404 0.928-0.126 0.402-0.37-0.742-0.722 0.002-0.6-0.004-0.77 0.62-0.102 0.68 0.464 0.506 0.894-0.48-0.232 0.68-0.632 0.408-0.614-0.148-0.68-0.284-0.78-1.236-0.346-0.738-0.082-0.254 0.116 1.032-0.010 0.268-0.128-0.16-0.078-0.26-0.156-0.194-0.080-0.358-0.004-0.562-0.418-0.724c-0.272 0.908-0.462 1.85-0.462 2.846 0 4.624 3.17 8.488 7.44 9.628l-0.064-0.198-0.15-2.15-0.174-0.982-1.052-1.028-0.496-0.88-0.166-0.436 0.12-0.258 0.22-0.828 0.118-0.964-0.13-0.074-0.234 0.17-0.312-0.146 0.21-0.098 0.936-0.216 0.616-0.276-0.038 0.418 0.228-0.378 0.308 0.108 1.058 0.338 0.758 0.526 0.546 0.302 0.13 0.086-0.128 0.762 0.522-0.148-0.13 0.26 0.74 0.158 0.75 0.062 0.49 0.308 0.020 0.896-0.356 1.022-0.432 1.064-0.784 0.482-0.624 1.42-0.564-0.080 0.268 0.366-0.030 0.258-0.52 0.414c0.304 0.028 0.596 0.092 0.906 0.092z"></path>
</svg>
