<svg version="1.1" xmlns="http://www.w3.org/2000/svg" xmlns:xlink="http://www.w3.org/1999/xlink" width="32" height="32" viewBox="0 0 32 32">
<path d="M16 2.667c-7.364 0-13.333 5.969-13.333 13.333s5.969 13.333 13.333 13.333 13.333-5.969 13.333-13.333-5.969-13.333-13.333-13.333zM13.441 21.4c-2.981 0-5.4-2.419-5.4-5.4s2.419-5.4 5.4-5.4c1.459 0 2.679 0.535 3.612 1.409l-1.533 1.491c-0.389-0.367-1.069-0.799-2.079-0.799-1.788 0-3.245 1.485-3.245 3.305s1.459 3.305 3.245 3.305c2.068 0 2.829-1.431 2.969-2.279h-2.976v-2.015h5.055c0.076 0.34 0.135 0.659 0.135 1.107 0.001 3.083-2.067 5.275-5.183 5.275zM25.333 17h-1.667v1.667h-2v-1.667h-1.667v-2h1.667v-1.667h2v1.667h1.667v2z"></path>
</svg>
