<svg version="1.1" xmlns="http://www.w3.org/2000/svg" xmlns:xlink="http://www.w3.org/1999/xlink" width="32" height="32" viewBox="0 0 32 32">
<path d="M26.267 4h-20.533c-0.957 0-1.733 0.776-1.733 1.733v20.533c0 0.957 0.776 1.733 1.733 1.733h20.533c0.957 0 1.733-0.776 1.733-1.733v-20.533c0-0.957-0.776-1.733-1.733-1.733zM11.119 24.451h-3.563v-11.453h3.563v11.453zM9.339 11.432c-1.143 0-2.065-0.925-2.065-2.064 0-1.14 0.921-2.064 2.065-2.064 1.139 0 2.063 0.925 2.063 2.064 0 1.14-0.924 2.064-2.063 2.064zM24.452 24.451h-3.559v-5.569c0-1.328-0.023-3.037-1.849-3.037-1.852 0-2.135 1.448-2.135 2.941v5.665h-3.556v-11.453h3.412v1.565h0.049c0.475-0.9 1.636-1.849 3.368-1.849 3.604 0 4.271 2.372 4.271 5.456v6.281z"></path>
</svg>
