<svg version="1.1" xmlns="http://www.w3.org/2000/svg" xmlns:xlink="http://www.w3.org/1999/xlink" width="32" height="32" viewBox="0 0 32 32">
<path d="M9.448 28h-5.144v-15.48h5.144v15.48zM6.876 10.408h-0.032c-1.726 0-2.844-1.19-2.844-2.674 0-1.518 1.15-2.674 2.912-2.674 1.758 0 2.842 1.158 2.876 2.674 0 1.484-1.118 2.674-2.912 2.674zM28 28h-5.144v-8.282c0-2.080-0.74-3.5-2.604-3.5-1.424 0-2.27 0.956-2.642 1.88-0.134 0.332-0.168 0.796-0.168 1.258v8.644h-5.146s0.068-14.028 0-15.48h5.146v2.194c0.684-1.054 1.906-2.556 4.632-2.556 3.386 0 5.926 2.212 5.926 6.966v8.876z"></path>
</svg>
