<svg version="1.1" xmlns="http://www.w3.org/2000/svg" xmlns:xlink="http://www.w3.org/1999/xlink" width="32" height="32" viewBox="0 0 32 32">
<path d="M16 3.2q-2.608 0-4.816 1.288t-3.496 3.496-1.288 4.816q0 2.272 1.12 4.264t2.928 3.56q0.064 0.048 0.376 0.312t0.472 0.408 0.48 0.44 0.552 0.528 0.528 0.568 0.552 0.672q2.128 2.784 2.592 4.336 0.464-1.552 2.592-4.336 0.256-0.336 0.552-0.672t0.528-0.568 0.552-0.528 0.48-0.44 0.472-0.408 0.376-0.312q1.808-1.568 2.928-3.56t1.12-4.264q0-2.608-1.288-4.816t-3.496-3.496-4.816-1.288zM16 7.296q2.272 0 3.888 1.616t1.616 3.888-1.616 3.888-3.888 1.616-3.888-1.616-1.616-3.888 1.616-3.888 3.888-1.616z"></path>
</svg>
