<svg version="1.1" xmlns="http://www.w3.org/2000/svg" xmlns:xlink="http://www.w3.org/1999/xlink" width="32" height="32" viewBox="0 0 32 32">
<path d="M27.949 9.676l-7.276 11.823-5.231-8.5 4.168-6.773c0.149-0.243 0.425-0.381 0.703-0.381 0.067 0 0.133 0.011 0.199 0.027 0.052 0.013 0.104 0.031 0.152 0.055l7.248 3.624c0.005 0.003 0.009 0.008 0.015 0.011 0.035 0.028 0.047 0.076 0.023 0.116zM13.147 11.456v7.711l6.853 3.427-6.853-11.137zM21.029 23.108l5.641 2.82c0.735 0.367 1.329 0.111 1.329-0.573v-13.575l-6.971 11.328zM11.957 9.571l-7.071-3.535c-0.128-0.064-0.249-0.095-0.36-0.095-0.309 0-0.527 0.24-0.527 0.643v15.267c0 0.408 0.299 0.892 0.664 1.075l6.228 3.113c0.16 0.080 0.312 0.117 0.449 0.117 0.387 0 0.659-0.3 0.659-0.803v-15.712c0-0.031-0.016-0.057-0.043-0.071z"></path>
</svg>
