<svg version="1.1" xmlns="http://www.w3.org/2000/svg" xmlns:xlink="http://www.w3.org/1999/xlink" width="34" height="32" viewBox="0 0 34 32">
<path d="M13.714 20.571h6.857v-1.714h-2.286v-8h-2.036l-2.643 2.446 1.375 1.429q0.75-0.661 0.982-1.018h0.036v5.143h-2.286v1.714zM22.857 16q0 1.25-0.375 2.536t-1.063 2.393-1.813 1.804-2.464 0.696-2.464-0.696-1.813-1.804-1.063-2.393-0.375-2.536 0.375-2.536 1.063-2.393 1.813-1.804 2.464-0.696 2.464 0.696 1.813 1.804 1.063 2.393 0.375 2.536zM32 20.571v-9.143q-1.893 0-3.232-1.339t-1.339-3.232h-20.571q0 1.893-1.339 3.232t-3.232 1.339v9.143q1.893 0 3.232 1.339t1.339 3.232h20.571q0-1.893 1.339-3.232t3.232-1.339zM34.286 5.714v20.571q0 0.464-0.339 0.804t-0.804 0.339h-32q-0.464 0-0.804-0.339t-0.339-0.804v-20.571q0-0.464 0.339-0.804t0.804-0.339h32q0.464 0 0.804 0.339t0.339 0.804z"></path>
</svg>
