<svg version="1.1" xmlns="http://www.w3.org/2000/svg" xmlns:xlink="http://www.w3.org/1999/xlink" width="32" height="32" viewBox="0 0 32 32">
<path d="M27.125 11.536q0.321 1.5-0.071 3.643-1.554 7.929-10.089 7.929h-0.786q-0.446 0-0.786 0.295t-0.429 0.759l-0.071 0.339-0.982 6.179-0.036 0.268q-0.089 0.464-0.438 0.759t-0.795 0.295h-4.482q-0.375 0-0.589-0.268t-0.161-0.643q0.161-1 0.473-3t0.473-3 0.482-2.991 0.482-2.991q0.089-0.661 0.768-0.661h2.339q2.375 0.036 4.214-0.375 3.125-0.696 5.125-2.571 1.821-1.696 2.768-4.393 0.429-1.25 0.625-2.375 0.018-0.107 0.045-0.134t0.063-0.018 0.107 0.063q1.411 1.054 1.75 2.893zM24.054 6.5q0 1.911-0.821 4.214-1.429 4.161-5.393 5.625-2.018 0.714-4.5 0.75 0 0.018-1.607 0.018l-1.607-0.018q-1.786 0-2.107 1.714-0.036 0.143-1.518 9.464-0.018 0.179-0.214 0.179h-5.268q-0.393 0-0.652-0.295t-0.205-0.688l4.143-26.268q0.089-0.518 0.491-0.857t0.92-0.339h10.679q0.607 0 1.741 0.232t1.991 0.571q1.911 0.732 2.92 2.196t1.009 3.5z"></path>
</svg>
