<svg version="1.1" xmlns="http://www.w3.org/2000/svg" xmlns:xlink="http://www.w3.org/1999/xlink" width="41" height="32" viewBox="0 0 41 32">
<path d="M13.304 16.179q0 0.661-0.455 1.098t-1.116 0.438q-0.518 0-0.83-0.286t-0.313-0.786q0-0.661 0.446-1.116t1.107-0.455q0.5 0 0.83 0.295t0.33 0.812zM27.321 13.518q0 0.75-0.393 1.018t-1.179 0.268l-0.571 0.018 0.304-1.911q0.036-0.196 0.232-0.196h0.321q0.393 0 0.625 0.036t0.446 0.223 0.214 0.545zM33.589 16.179q0 0.643-0.455 1.089t-1.098 0.446q-0.518 0-0.839-0.286t-0.321-0.786q0-0.661 0.446-1.116t1.107-0.455q0.5 0 0.83 0.295t0.33 0.813zM9.161 13.125q0-1.054-0.688-1.527t-1.795-0.473h-2.857q-0.339 0-0.375 0.339l-1.161 7.286q-0.018 0.107 0.054 0.196t0.179 0.089h1.357q0.357 0 0.393-0.339l0.321-1.964q0.018-0.143 0.125-0.232t0.268-0.116 0.304-0.027 0.339 0.018 0.25 0.018q1.536 0 2.411-0.866t0.875-2.402zM14.679 18.696l0.732-4.661q0.018-0.107-0.054-0.196t-0.179-0.089h-1.357q-0.25 0-0.304 0.589-0.482-0.714-1.696-0.714-1.286 0-2.188 0.964t-0.902 2.268q0 1.054 0.616 1.679t1.652 0.625q0.5 0 1.036-0.214t0.857-0.571q-0.071 0.214-0.071 0.375 0 0.286 0.232 0.286h1.232q0.339 0 0.393-0.339zM22.661 14q0-0.089-0.071-0.17t-0.161-0.080h-1.375q-0.196 0-0.321 0.179l-1.893 2.786-0.786-2.679q-0.089-0.286-0.393-0.286h-1.339q-0.089 0-0.161 0.080t-0.071 0.17q0 0.036 0.348 1.054t0.75 2.196 0.42 1.25q-1.464 2-1.464 2.143 0 0.232 0.232 0.232h1.375q0.196 0 0.321-0.179l4.554-6.571q0.036-0.036 0.036-0.125zM29.446 13.125q0-1.054-0.688-1.527t-1.795-0.473h-2.839q-0.357 0-0.393 0.339l-1.161 7.286q-0.018 0.107 0.054 0.196t0.179 0.089h1.464q0.214 0 0.286-0.232l0.321-2.071q0.018-0.143 0.125-0.232t0.268-0.116 0.304-0.027 0.339 0.018 0.25 0.018q1.536 0 2.411-0.866t0.875-2.402zM34.964 18.696l0.732-4.661q0.018-0.107-0.054-0.196t-0.179-0.089h-1.357q-0.25 0-0.304 0.589-0.464-0.714-1.696-0.714-1.286 0-2.188 0.964t-0.902 2.268q0 1.054 0.616 1.679t1.652 0.625q0.518 0 1.054-0.214t0.839-0.571q0 0.018-0.036 0.161t-0.036 0.214q0 0.286 0.232 0.286h1.232q0.339 0 0.393-0.339zM38.857 11.393v-0.018q0-0.25-0.232-0.25h-1.321q-0.196 0-0.232 0.196l-1.161 7.429-0.018 0.036q0 0.089 0.071 0.17t0.179 0.080h1.179q0.339 0 0.375-0.339zM7 13.786q-0.089 0.625-0.464 0.821t-1.071 0.196l-0.589 0.018 0.304-1.911q0.036-0.196 0.232-0.196h0.339q0.714 0 1.036 0.205t0.214 0.866zM41.143 4.571v22.857q0 0.929-0.679 1.607t-1.607 0.679h-36.571q-0.929 0-1.607-0.679t-0.679-1.607v-22.857q0-0.929 0.679-1.607t1.607-0.679h36.571q0.929 0 1.607 0.679t0.679 1.607z"></path>
</svg>
