<svg version="1.1" xmlns="http://www.w3.org/2000/svg" xmlns:xlink="http://www.w3.org/1999/xlink" width="32" height="32" viewBox="0 0 32 32">
<path d="M16 2.667c-7.364 0-13.333 5.969-13.333 13.333 0 5.648 3.515 10.473 8.475 12.416-0.116-1.055-0.221-2.673 0.047-3.825 0.243-1.040 1.564-6.628 1.564-6.628s-0.399-0.799-0.399-1.979c0-1.853 1.075-3.239 2.412-3.239 1.137 0 1.687 0.855 1.687 1.879 0 1.144-0.728 2.855-1.104 4.439-0.315 1.328 0.665 2.409 1.975 2.409 2.369 0 4.192-2.499 4.192-6.105 0-3.192-2.293-5.424-5.569-5.424-3.793 0-6.020 2.845-6.020 5.787 0 1.145 0.441 2.375 0.992 3.043 0.109 0.132 0.125 0.248 0.092 0.383-0.103 0.421-0.328 1.327-0.372 1.512-0.059 0.244-0.193 0.296-0.445 0.179-1.665-0.775-2.707-3.209-2.707-5.165 0-4.205 3.056-8.068 8.809-8.068 4.625 0 8.22 3.296 8.22 7.7 0 4.595-2.897 8.293-6.919 8.293-1.351 0-2.621-0.701-3.056-1.531 0 0-0.668 2.545-0.831 3.169-0.301 1.159-1.113 2.609-1.657 3.496 1.248 0.385 2.573 0.593 3.948 0.593 7.364 0 13.333-5.969 13.333-13.333s-5.969-13.333-13.333-13.333z"></path>
</svg>
