<svg version="1.1" xmlns="http://www.w3.org/2000/svg" xmlns:xlink="http://www.w3.org/1999/xlink" width="32" height="32" viewBox="0 0 32 32">
<path d="M29.236 5.592c-0.347-0.952-1.26-1.592-2.273-1.592h-21.844c-0.996 0-1.904 0.627-2.259 1.56-0.105 0.277-0.159 0.565-0.159 0.859v8.047l0.092 1.6c0.387 3.64 2.276 6.82 5.199 9.037 0.052 0.040 0.105 0.079 0.159 0.119l0.033 0.024c1.567 1.145 3.321 1.921 5.213 2.303 0.873 0.176 1.767 0.267 2.655 0.267 0.82 0 1.643-0.076 2.452-0.227 0.097-0.019 0.193-0.037 0.292-0.059 0.027-0.005 0.056-0.016 0.085-0.031 1.812-0.396 3.495-1.152 5.004-2.255l0.033-0.024c0.053-0.039 0.107-0.077 0.159-0.119 2.923-2.219 4.812-5.399 5.197-9.037l0.092-1.6v-8.045c0.001-0.279-0.033-0.555-0.131-0.827zM23.589 13.975l-6.272 6.016c-0.355 0.339-0.811 0.509-1.265 0.509-0.456 0-0.912-0.171-1.265-0.509l-6.273-6.016c-0.729-0.699-0.753-1.856-0.055-2.585s1.856-0.753 2.585-0.053l5.008 4.801 5.007-4.801c0.729-0.699 1.887-0.675 2.585 0.053 0.697 0.729 0.673 1.885-0.055 2.585z"></path>
</svg>
