<svg version="1.1" xmlns="http://www.w3.org/2000/svg" xmlns:xlink="http://www.w3.org/1999/xlink" width="32" height="32" viewBox="0 0 32 32">
<path d="M24 21.333c-1.051 0-1.999 0.413-2.712 1.076l-9.408-5.476c0.067-0.307 0.12-0.613 0.12-0.933s-0.053-0.627-0.12-0.933l9.4-5.48c0.72 0.667 1.667 1.080 2.72 1.080 2.213 0 4-1.787 4-4s-1.787-4-4-4-4 1.787-4 4c0 0.32 0.053 0.627 0.12 0.933l-9.4 5.48c-0.72-0.667-1.667-1.080-2.72-1.080-2.213 0-4 1.787-4 4s1.787 4 4 4c1.053 0 2-0.413 2.72-1.080l9.397 5.491c-0.071 0.297-0.117 0.604-0.117 0.923 0 2.209 1.791 4 4 4s4-1.791 4-4-1.791-4-4-4z"></path>
</svg>
