<svg version="1.1" xmlns="http://www.w3.org/2000/svg" xmlns:xlink="http://www.w3.org/1999/xlink" width="32" height="32" viewBox="0 0 32 32">
<path d="M13.484 3.599c0.044-0.008 0.089-0.017 0.133-0.027 0.044 0.023 0.088 0.044 0.131 0.068l-0.264-0.041zM3.627 13.631c-0.008 0.045-0.015 0.092-0.023 0.137 0.024 0.043 0.044 0.085 0.068 0.127l-0.045-0.264zM28.367 18.361c0.009-0.047 0.015-0.095 0.024-0.141-0.024-0.041-0.044-0.085-0.069-0.127l0.045 0.268zM18.084 28.265c0.043 0.025 0.087 0.047 0.128 0.071 0.048-0.008 0.095-0.015 0.14-0.023l-0.268-0.048zM29.333 21.848c0 1.992-0.775 3.864-2.183 5.271-1.408 1.409-3.279 2.183-5.271 2.183-1.289 0-2.552-0.335-3.667-0.967 0.048-0.008 0.095-0.015 0.14-0.023l-0.269-0.047c0.043 0.025 0.087 0.047 0.128 0.071-0.724 0.128-1.465 0.196-2.205 0.196-1.7 0-3.349-0.333-4.901-0.991-1.5-0.632-2.847-1.541-4.003-2.697s-2.064-2.503-2.697-4.003c-0.657-1.552-0.991-3.201-0.991-4.901 0-0.728 0.065-1.457 0.189-2.171 0.024 0.043 0.044 0.085 0.068 0.127l-0.045-0.265c-0.008 0.045-0.015 0.092-0.023 0.137-0.612-1.101-0.937-2.347-0.937-3.615 0-1.991 0.776-3.864 2.183-5.271 1.408-1.408 3.28-2.184 5.271-2.184 1.22 0 2.424 0.304 3.496 0.873-0.044 0.009-0.089 0.017-0.133 0.027l0.265 0.041c-0.043-0.024-0.088-0.045-0.131-0.068 0.003 0 0.004-0.001 0.005-0.001 0.781-0.149 1.583-0.225 2.384-0.225 1.7 0 3.349 0.332 4.901 0.989 1.499 0.635 2.847 1.541 4.003 2.699 1.157 1.156 2.064 2.503 2.699 4.003 0.657 1.552 0.991 3.201 0.991 4.901 0 0.767-0.072 1.533-0.209 2.283-0.024-0.041-0.044-0.085-0.069-0.127l0.045 0.268c0.009-0.047 0.015-0.095 0.024-0.141 0.615 1.105 0.943 2.356 0.943 3.628zM22.423 18.851c0-1.775-0.817-3.657-4.044-4.376l-2.945-0.653c-1.12-0.256-2.409-0.592-2.409-1.649 0-1.059 0.905-1.797 2.537-1.797 3.291 0 2.991 2.261 4.624 2.261 0.86 0 1.612-0.505 1.612-1.375 0-2.028-3.247-3.551-6-3.551-2.989 0-6.173 1.269-6.173 4.651 0 1.628 0.581 3.361 3.785 4.164l3.979 0.993c1.204 0.297 1.505 0.975 1.505 1.585 0 1.016-1.011 2.009-2.839 2.009-3.572 0-3.076-2.749-4.991-2.749-0.86 0-1.484 0.592-1.484 1.437 0 1.648 2.001 3.848 6.475 3.848 4.26 0 6.368-2.051 6.368-4.799z"></path>
</svg>
