<svg version="1.1" xmlns="http://www.w3.org/2000/svg" xmlns:xlink="http://www.w3.org/1999/xlink" width="32" height="32" viewBox="0 0 32 32">
<path d="M27.827 12.361c-2.009-2.009-5.268-2.009-7.277 0l-8.188 8.188c-0.503 0.503-0.503 1.317 0 1.819 0.503 0.503 1.317 0.503 1.82 0l8.187-8.187c1.005-1.005 2.635-1.005 3.639 0 1.005 1.005 1.005 2.633 0 3.639l-8.029 8.029c1.005 1.005 2.633 1.005 3.639 0l6.211-6.211c2.009-2.009 2.009-5.268 0-7.277zM25.097 15.091c-0.503-0.503-1.317-0.503-1.82 0l-8.187 8.187c-1.005 1.005-2.635 1.005-3.639 0-0.503-0.503-1.317-0.503-1.819 0-0.503 0.503-0.503 1.317 0 1.819 2.009 2.009 5.268 2.009 7.277 0l8.187-8.187c0.501-0.501 0.501-1.317 0-1.819zM22.368 6.903c-2.009-2.011-5.268-2.011-7.277 0l-8.187 8.187c-0.503 0.503-0.503 1.317 0 1.819 0.503 0.503 1.317 0.503 1.819 0l8.188-8.187c1.005-1.005 2.633-1.005 3.639 0 0.503 0.503 1.317 0.503 1.82 0 0.501-0.501 0.501-1.316-0.001-1.819zM19.639 9.632c-0.503-0.503-1.317-0.503-1.819 0l-8.187 8.188c-1.005 1.005-2.635 1.005-3.639 0-1.005-1.004-1.005-2.633 0-3.639l8.029-8.029c-1.005-1.005-2.635-1.005-3.639 0l-6.212 6.209c-2.009 2.011-2.009 5.268 0 7.277s5.268 2.009 7.277 0l8.187-8.188c0.504-0.501 0.504-1.316 0.001-1.819z"></path>
</svg>
