<svg version="1.1" xmlns="http://www.w3.org/2000/svg" xmlns:xlink="http://www.w3.org/1999/xlink" width="41" height="32" viewBox="0 0 41 32">
<path d="M28.518 16.125q0 1.232-0.375 1.893-0.339 0.625-0.929 0.625-0.411 0-0.732-0.161v-4q0.518-0.536 1.018-0.536 1.018 0 1.018 2.179zM36.339 15.482h-1.964q0.107-1.75 1-1.75 0.911 0 0.964 1.75zM8.5 17.893q0-1.054-0.589-1.634t-1.804-1.027q-0.643-0.232-0.929-0.429t-0.286-0.446q0-0.464 0.679-0.464 1.036 0 2.214 0.589l0.321-2q-1.196-0.571-2.661-0.571-1.375 0-2.196 0.679-0.857 0.696-0.857 1.946 0 1.036 0.58 1.616t1.777 1.009q0.696 0.25 0.973 0.455t0.277 0.491q0 0.554-0.857 0.554-0.518 0-1.25-0.223t-1.286-0.545l-0.321 2.018q1.286 0.732 3 0.732 1.446 0 2.304-0.661 0.911-0.732 0.911-2.089zM13.768 14.054l0.339-1.982h-1.714v-2.411l-2.304 0.375-0.321 2.036-0.821 0.143-0.304 1.839h1.107v3.911q0 1.5 0.786 2.143 0.679 0.536 1.982 0.536 0.571 0 1.411-0.196v-2.107q-0.571 0.125-0.786 0.125-0.75 0-0.75-0.893v-3.518h1.375zM19.411 14.5v-2.482q-0.268-0.054-0.5-0.054-0.571 0-0.991 0.286t-0.598 0.821l-0.179-1h-2.339v8.411h2.679v-5.464q0.464-0.554 1.464-0.554 0.286 0 0.464 0.036zM20.071 20.482h2.679v-8.411h-2.679v8.411zM31.179 16.036q0-2.179-0.804-3.196-0.714-0.929-1.982-0.929-1.143 0-2.089 1l-0.143-0.839h-2.357v11.518l2.679-0.446v-2.696q0.643 0.196 1.214 0.196 1.482 0 2.393-1 1.089-1.161 1.089-3.607zM22.821 9.821q0-0.589-0.411-1t-1-0.411-1 0.411-0.411 1 0.411 1.009 1 0.42 1-0.42 0.411-1.009zM38.857 16.196q0-2.018-0.857-3.143-0.893-1.143-2.571-1.143-1.714 0-2.705 1.179t-0.991 3.214q0 2.286 1.125 3.357 0.982 0.982 2.875 0.982 1.804 0 2.857-0.714l-0.286-1.839q-1.018 0.554-2.286 0.554-0.768 0-1.125-0.339-0.411-0.339-0.5-1.179h4.429q0.036-0.25 0.036-0.929zM41.143 4.571v22.857q0 0.929-0.679 1.607t-1.607 0.679h-36.571q-0.929 0-1.607-0.679t-0.679-1.607v-22.857q0-0.929 0.679-1.607t1.607-0.679h36.571q0.929 0 1.607 0.679t0.679 1.607z"></path>
</svg>
