<svg version="1.1" xmlns="http://www.w3.org/2000/svg" xmlns:xlink="http://www.w3.org/1999/xlink" width="32" height="32" viewBox="0 0 32 32">
<path d="M29.64 7.899c-0.981 0.435-2.036 0.729-3.143 0.861 1.129-0.677 1.997-1.749 2.405-3.027-1.057 0.627-2.228 1.083-3.475 1.328-0.996-1.064-2.419-1.728-3.992-1.728-3.021 0-5.471 2.449-5.471 5.471 0 0.429 0.048 0.847 0.141 1.247-4.547-0.228-8.577-2.405-11.276-5.716-0.471 0.808-0.741 1.748-0.741 2.751 0 1.899 0.965 3.572 2.433 4.553-0.897-0.028-1.74-0.275-2.479-0.684 0 0.023 0 0.045 0 0.069 0 2.651 1.885 4.863 4.389 5.364-0.459 0.125-0.943 0.192-1.441 0.192-0.352 0-0.695-0.035-1.029-0.099 0.696 2.173 2.717 3.755 5.111 3.8-1.872 1.467-4.232 2.341-6.795 2.341-0.441 0-0.877-0.025-1.305-0.076 2.421 1.552 5.297 2.457 8.387 2.457 10.063 0 15.567-8.336 15.567-15.567 0-0.237-0.005-0.473-0.016-0.708 1.069-0.769 1.996-1.733 2.729-2.831z"></path>
</svg>
