<svg version="1.1" xmlns="http://www.w3.org/2000/svg" xmlns:xlink="http://www.w3.org/1999/xlink" width="32" height="32" viewBox="0 0 32 32">
<path d="M29.861 9.552c-0.124 2.701-2.009 6.399-5.66 11.093-3.772 4.903-6.964 7.355-9.575 7.355-1.619 0-2.987-1.492-4.105-4.479-0.747-2.737-1.492-5.475-2.24-8.212-0.831-2.985-1.72-4.48-2.673-4.48-0.208 0-0.935 0.437-2.179 1.307l-1.304-1.681c1.369-1.203 2.72-2.407 4.049-3.611 1.827-1.577 3.199-2.408 4.112-2.492 2.159-0.208 3.488 1.268 3.987 4.428 0.539 3.409 0.913 5.529 1.121 6.359 0.623 2.828 1.308 4.241 2.056 4.241 0.58 0 1.453-0.917 2.617-2.753 1.161-1.835 1.784-3.229 1.868-4.189 0.167-1.583-0.457-2.376-1.868-2.376-0.664 0-1.349 0.153-2.055 0.455 1.364-4.467 3.969-6.636 7.816-6.512 2.852 0.084 4.197 1.933 4.032 5.548z"></path>
</svg>
