<svg version="1.1" xmlns="http://www.w3.org/2000/svg" xmlns:xlink="http://www.w3.org/1999/xlink" width="32" height="32" viewBox="0 0 32 32">
<path d="M29.067 10.668c0 0-0.26-1.837-1.060-2.647-1.013-1.063-2.151-1.068-2.672-1.129-3.732-0.269-9.329-0.269-9.329-0.269h-0.012c0 0-5.597 0-9.329 0.269-0.52 0.063-1.656 0.068-2.671 1.129-0.8 0.809-1.060 2.647-1.060 2.647s-0.267 2.159-0.267 4.316v2.023c0 2.157 0.267 4.316 0.267 4.316s0.26 1.837 1.060 2.647c1.015 1.063 2.347 1.028 2.94 1.14 2.133 0.204 9.067 0.268 9.067 0.268s5.604-0.008 9.335-0.279c0.521-0.063 1.657-0.068 2.672-1.129 0.8-0.809 1.060-2.647 1.060-2.647s0.267-2.157 0.267-4.316v-2.023c0-2.157-0.267-4.316-0.267-4.316zM13.247 19.459l-0.001-7.493 7.205 3.76-7.204 3.733z"></path>
</svg>
