<svg style="position: absolute; width: 0; height: 0; overflow: hidden;" version="1.1" xmlns="http://www.w3.org/2000/svg" xmlns:xlink="http://www.w3.org/1999/xlink">
<defs>
<symbol id="esicons-page" viewBox="0 0 32 32">
<title>page</title>
<path class="path1" d="M9.6 24v-20.8h16v20.8h-16zM8 25.6h12.8v3.2h-16v-20.8h3.2v17.6z"></path>
</symbol>
<symbol id="esicons-text" viewBox="0 0 32 32">
<title>text</title>
<path class="path1" d="M4.8 1.6h22.4v28.8h-22.4v-28.8zM22.4 8v-1.6h-12.8v1.6h12.8zM22.4 12.8v-1.6h-12.8v1.6h12.8zM22.4 17.6v-1.6h-12.8v1.6h12.8zM19.2 22.4v-1.6h-9.6v1.6h9.6z"></path>
</symbol>
<symbol id="esicons-cart" viewBox="0 0 32 32">
<title>cart</title>
<path class="path1" d="M9.6 20.8h14.4q0.656 0 1.128 0.472t0.472 1.128-0.472 1.128-1.128 0.472h-16q-0.656 0-1.128-0.472t-0.472-1.128v-16h-3.2q-0.656 0-1.128-0.472t-0.472-1.128 0.472-1.128 1.128-0.472h4.8q0.656 0 1.128 0.472t0.472 1.128v3.2h20.8l-6.4 11.2h-14.4v1.6zM8.8 25.6q0.992 0 1.696 0.704t0.704 1.696-0.704 1.696-1.696 0.704-1.696-0.704-0.704-1.696 0.704-1.696 1.696-0.704zM23.2 25.6q0.992 0 1.696 0.704t0.704 1.696-0.704 1.696-1.696 0.704-1.696-0.704-0.704-1.696 0.704-1.696 1.696-0.704z"></path>
</symbol>
<symbol id="esicons-rss" viewBox="0 0 32 32">
<title>rss</title>
<path class="path1" d="M23.872 28.8h4.928q0-3.424-0.92-6.688t-2.576-6.024-4.016-5.088-5.168-3.96-6.128-2.536-6.792-0.904v4.832q3.36 0 6.512 1.032t5.696 2.912 4.456 4.384 2.96 5.616 1.048 6.424zM15.168 28.8h4.928q0-3.376-1.344-6.456t-3.608-5.312-5.392-3.552-6.552-1.32v4.832q2.4 0 4.576 0.896t3.888 2.56q1.696 1.664 2.6 3.824t0.904 4.528zM6.608 28.768q1.408 0 2.408-0.976t1-2.368q0-1.376-1-2.36t-2.408-0.984-2.408 0.984-1 2.36q0 1.392 0.992 2.368t2.416 0.976z"></path>
</symbol>
<symbol id="esicons-category" viewBox="0 0 32 32">
<title>category</title>
<path class="path1" d="M8 11.2h20.8v16h-25.6v-20.8h11.2l3.2 3.2h-11.2v14.4h1.6v-12.8z"></path>
</symbol>
<symbol id="esicons-portfolio" viewBox="0 0 32 32">
<title>portfolio</title>
<path class="path1" d="M6.4 8h-5.152q-0.48 0-0.824 0.376t-0.28 0.968l2.496 15.984q2.96-11.776 3.536-14.608 0.128-0.576 0.584-0.848t0.984-0.272h8.256q-1.12-3.328-1.232-3.696-0.304-1.104-1.248-1.104h-5.296q-0.448 0-0.808 0.272t-0.472 0.752zM14.208 8h-6.4q0.032-0.064 0.080-0.176t0.2-0.384 0.312-0.48 0.376-0.384 0.424-0.176h3.408q0.336 0 0.736 0.4t0.64 0.8zM4.272 26q-0.784 1.2-2.016 1.2h25.168q0.64 0 1.080-0.352t0.568-0.976l2.688-13.504q0.080-0.56-0.24-0.864t-0.752-0.304h-5.168v-2.352q0-0.24-0.312-0.544t-0.744-0.304h-6.016q-0.368 0-0.72 0.232t-0.512 0.472l-0.16 0.224-1.136 2.272h-7.056q-0.4 0-0.72 0.216t-0.384 0.584q-2.544 10.72-2.752 11.728-0.272 1.472-0.816 2.272zM24.608 11.2h-7.008q0.032-0.064 0.104-0.176t0.28-0.384 0.408-0.48 0.488-0.384 0.528-0.176h3.664q0.32 0 0.592 0.168t0.44 0.4 0.288 0.464 0.168 0.408z"></path>
</symbol>
<symbol id="esicons-tag" viewBox="0 0 32 32">
<title>tag</title>
<path class="path1" d="M17.6 3.2h11.2v11.2l-16 16-11.2-11.2zM22.4 12.8q1.312 0 2.256-0.944t0.944-2.256-0.944-2.256-2.256-0.944-2.256 0.944-0.944 2.256 0.944 2.256 2.256 0.944z"></path>
</symbol>
<symbol id="esicons-testimonial" viewBox="0 0 32 32">
<title>testimonial</title>
<path class="path1" d="M6.4 4.8h19.2q1.312 0 2.256 0.944t0.944 2.256v11.2q0 1.312-0.944 2.256t-2.256 0.944h-1.6l-8 8v-8h-9.6q-1.312 0-2.256-0.944t-0.944-2.256v-11.2q0-1.312 0.944-2.256t2.256-0.944zM24 8h-17.6v1.6h17.6v-1.6zM25.6 12.8h-19.2v1.6h19.2v-1.6zM20.8 17.6h-14.4v1.6h14.4v-1.6z"></path>
</symbol>
<symbol id="esicons-attachment" viewBox="0 0 32 32">
<title>attachment</title>
<path class="path1" d="M27.28 4.32q1.52 1.52 2.056 3.592t0 4.136-2.056 3.584l-11.28 11.312q-1.472 1.488-3.456 2.040t-3.984 0.080-3.536-1.88q-0.032-0.016-0.144-0.104t-0.16-0.136q-1.52-1.52-2.056-3.584t0-4.128 2.056-3.6l7.904-7.92q1.072-1.088 2.592-1.328t2.832 0.4q0.848 0.416 1.328 0.928 1.408 1.408 1.408 3.392t-1.408 3.392l-7.888 7.92q-0.464 0.464-1.128 0.464t-1.128-0.464-0.464-1.128 0.464-1.128l7.888-7.92q0.464-0.464 0.464-1.128t-0.464-1.128q-0.448-0.464-1.12-0.464t-1.12 0.464l-7.904 7.92q-1.072 1.088-1.32 2.608t0.408 2.832q0.384 0.816 0.912 1.344t1.344 0.912q1.312 0.656 2.824 0.416t2.6-1.328l11.28-11.312q1.392-1.408 1.392-3.4t-1.392-3.4q-1.328-1.296-3.2-1.376-0.192 0.016-0.384 0-0.592-0.080-0.96-0.432-0.464-0.48-0.456-1.16t0.488-1.16q0.336-0.336 0.896-0.448 0.304-0.048 0.64 0.032 3.104 0.16 5.232 2.288z"></path>
</symbol>
<symbol id="esicons-link" viewBox="0 0 32 32">
<title>link</title>
<path class="path1" d="M28.384 4.416q2.016 2.032 2.016 4.88t-2.016 4.88l-2.448 2.432q-1.312 1.312-3.12 1.768t-3.504-0.024l4.192-4.176 1.216-1.232 1.216-1.216q1.008-1.008 1.008-2.432t-1.008-2.432q-1.008-1.024-2.432-1.024t-2.432 1.024l-1.232 1.216-5.408 5.408q-0.464-1.696-0.008-3.504t1.768-3.12l2.432-2.448q2.032-2.016 4.888-2.016t4.872 2.016zM13.744 21.488l8.544-8.544q0.496-0.496 0.496-1.216t-0.496-1.216q-0.544-0.512-1.248-0.496t-1.2 0.496l-8.528 8.544q-0.496 0.496-0.496 1.216t0.496 1.216q0.544 0.512 1.248 0.496t1.184-0.496zM12.528 25.152l6.624-6.64q0.48 1.696 0.024 3.504t-1.768 3.12l-2.432 2.448q-2.032 2.016-4.88 2.016t-4.88-2.016q-2.016-2.016-2.016-4.88t2.016-4.88l2.448-2.432q1.312-1.312 3.12-1.768t3.504 0.008l-6.624 6.64q-1.024 1.008-1.024 2.432t1.024 2.448q1.008 1.008 2.432 1.008t2.432-1.008z"></path>
</symbol>
<symbol id="esicons-quote" viewBox="0 0 32 32">
<title>quote</title>
<path class="path1" d="M13.664 20.384q0-2.080-1.152-3.552-0.8-1.008-2.184-1.312t-2.552-0.048q-0.4-2.288 1.248-4.856t4.224-3.864l-2.608-3.648q-1.568 0.752-3.016 1.824t-2.712 2.512-2.136 3.080-1.272 3.632-0.144 4.040q0.416 3.376 2.232 5.392t4.536 2.016q2.416 0 3.968-1.408 1.568-1.408 1.568-3.808zM28.752 20.384q0-2.080-1.152-3.552-0.8-1.008-2.184-1.312t-2.552-0.048q-0.4-2.288 1.248-4.856t4.224-3.864l-2.608-3.648q-1.568 0.752-3.016 1.824t-2.712 2.512-2.136 3.080-1.272 3.632-0.144 4.040q0.416 3.376 2.232 5.392t4.536 2.016q2.416 0 3.968-1.408 1.568-1.408 1.568-3.808z"></path>
</symbol>
<symbol id="esicons-aside" viewBox="0 0 32 32">
<title>aside</title>
<path class="path1" d="M1.6 1.6h28.8v19.2l-9.6 9.6h-19.2v-28.8zM6.4 6.4v1.6h19.2v-1.6h-19.2zM6.4 12.8v1.6h19.2v-1.6h-19.2zM16 20.8v-1.6h-9.6v1.6h9.6zM19.2 27.2l8-8h-8v8z"></path>
</symbol>
<symbol id="esicons-chat" viewBox="0 0 32 32">
<title>chat</title>
<path class="path1" d="M17.6 9.6h-1.312q-1.296 0-2.392 1.136t-1.096 2.32v2.944l-4.8 4.8v-4.8h-3.2q-1.312 0-2.256-0.944t-0.944-2.256v-8q0-1.312 0.944-2.256t2.256-0.944h9.6q1.312 0 2.256 0.944t0.944 2.256v4.8zM17.6 11.2h9.6q1.312 0 2.256 0.944t0.944 2.256v8q0 1.312-0.944 2.256t-2.256 0.944h-3.2v4.8l-4.8-4.8h-1.6q-1.312 0-2.256-0.944t-0.944-2.256v-8q0-1.312 0.944-2.256t2.256-0.944z"></path>
</symbol>
<symbol id="esicons-video" viewBox="0 0 32 32">
<title>video</title>
<path class="path1" d="M3.2 1.6h25.6q0.656 0 1.128 0.472t0.472 1.128v25.6l-28.8-0.032v-25.568q0-0.656 0.472-1.128t1.128-0.472zM9.6 3.2l-3.2 4.8h1.6l3.2-4.8h-1.6zM16 3.2h-1.6l-3.2 4.8h1.6zM20.8 3.2h-1.6l-3.2 4.8h1.6zM25.6 3.2h-1.6l-3.2 4.8h1.6zM27.2 25.6v-16h-22.4v16h22.4zM12.8 11.2l9.6 6.4-9.6 6.4v-12.8z"></path>
</symbol>
<symbol id="esicons-audio" viewBox="0 0 32 32">
<title>audio</title>
<path class="path1" d="M11.184 4.928l17.632-3.2q0.64-0.096 1.112 0.408t0.472 1.192v19.872q0 2.32-1.64 3.96t-3.96 1.64-3.96-1.64-1.64-3.96 1.64-3.96 3.96-1.64q1.168 0 2.4 0.56v-10.032l-14.4 3.2v14.272q-0.288 2.048-1.888 3.424t-3.712 1.376q-2.32 0-3.96-1.64t-1.64-3.96 1.64-3.96 3.96-1.64q1.168 0 2.4 0.56v-13.232q0-0.64 0.448-1.064t1.136-0.536z"></path>
</symbol>
<symbol id="esicons-image" viewBox="0 0 32 32">
<title>image</title>
<path class="path1" d="M3.6 1.6h24.8q0.832 0 1.416 0.584t0.584 1.416v24.8q0 0.832-0.584 1.416t-1.416 0.584h-24.8q-0.832 0-1.416-0.584t-0.584-1.416v-24.8q0-0.832 0.584-1.416t1.416-0.584zM27.2 27.2v-22.4h-22.4v22.4h22.4zM16 9.6q0-1.312-0.944-2.256t-2.256-0.944-2.256 0.944-0.944 2.256 0.944 2.256 2.256 0.944 2.256-0.944 0.944-2.256zM20.8 17.6q0-0.128 0.008-0.336t0.048-0.864 0.12-1.296 0.248-1.504 0.4-1.608 0.6-1.496 0.832-1.288 1.12-0.872 1.424-0.336v16q0 0.656-0.472 1.128t-1.128 0.472h-16q-0.656 0-1.128-0.472t-0.472-1.128v-11.2q0.656 0 1.272 0.352t1.080 0.92 0.88 1.248 0.696 1.36 0.48 1.248 0.296 0.92l0.096 0.352q0.064-0.192 0.192-0.52t0.576-1.152 0.96-1.456 1.344-1.152 1.728-0.52 1.72 0.328 1.36 0.8 0.944 0.944 0.584 0.808z"></path>
</symbol>
<symbol id="esicons-status" viewBox="0 0 32 32">
<title>status</title>
<path class="path1" d="M16 1.6q3.28 0 5.792 0.536t4.12 1.456 2.632 2.272 1.44 2.84 0.416 3.296-0.416 3.296-1.44 2.84-2.632 2.272-4.12 1.456-5.792 0.536-5.792-0.536-4.12-1.456-2.632-2.272-1.44-2.84-0.416-3.296 0.416-3.296 1.44-2.84 2.632-2.272 4.12-1.456 5.792-0.536zM8.8 14.4q0.992 0 1.696-0.704t0.704-1.696-0.704-1.696-1.696-0.704-1.696 0.704-0.704 1.696 0.704 1.696 1.696 0.704zM16 14.4q0.992 0 1.696-0.704t0.704-1.696-0.704-1.696-1.696-0.704-1.696 0.704-0.704 1.696 0.704 1.696 1.696 0.704zM23.2 14.4q0.992 0 1.696-0.704t0.704-1.696-0.704-1.696-1.696-0.704-1.696 0.704-0.704 1.696 0.704 1.696 1.696 0.704zM9.6 23.2q0.992 0 1.696 0.704t0.704 1.696-0.704 1.696-1.696 0.704-1.696-0.704-0.704-1.696 0.704-1.696 1.696-0.704zM4.8 26.4q0.656 0 1.128 0.472t0.472 1.128-0.472 1.128-1.128 0.472-1.128-0.472-0.472-1.128 0.472-1.128 1.128-0.472z"></path>
</symbol>
<symbol id="esicons-gallery" viewBox="0 0 32 32">
<title>gallery</title>
<path class="path1" d="M25.6 6.4h3.136q0.688 0 1.176 0.488t0.488 1.176v20.672q0 0.688-0.488 1.176t-1.176 0.488h-20.672q-0.688 0-1.176-0.488t-0.488-1.176v-3.136h-3.136q-0.688 0-1.176-0.488t-0.488-1.176v-20.672q0-0.688 0.488-1.176t1.176-0.488h20.672q0.688 0 1.176 0.488t0.488 1.176v3.136zM4.8 22.4h17.6v-17.6h-17.6v17.6zM12.8 8.8q0-0.992-0.704-1.696t-1.696-0.704-1.696 0.704-0.704 1.696 0.704 1.696 1.696 0.704 1.696-0.704 0.704-1.696zM16 16q0.032-0.16 0.096-0.448t0.296-1.12 0.488-1.592 0.688-1.68 0.888-1.584 1.072-1.12 1.272-0.456v12.8h-14.4v-9.6q0.896 0 1.552 0.496t0.96 1.2 0.48 1.408 0.192 1.2l0.016 0.496q0.016-0.064 0.040-0.184t0.128-0.448 0.248-0.632 0.408-0.672 0.576-0.632 0.784-0.448 1.016-0.184q0.752 0 1.352 0.328t0.928 0.8 0.552 0.944 0.304 0.808zM27.2 27.2v-17.6h-1.6v14.336q0 0.688-0.488 1.176t-1.176 0.488h-14.336v1.6h17.6z"></path>
</symbol>
<symbol id="esicons-comment" viewBox="0 0 32 32">
<title>comment</title>
<path class="path1" d="M8 3.2h14.4q1.312 0 2.256 0.944t0.944 2.256v11.2q0 1.312-0.944 2.256t-2.256 0.944h-3.2l-8 8v-8h-3.2q-1.312 0-2.256-0.944t-0.944-2.256v-11.2q0-1.312 0.944-2.256t2.256-0.944z"></path>
</symbol>
<symbol id="esicons-sticky" viewBox="0 0 32 32">
<title>sticky</title>
<path class="path1" d="M16.704 4.832l2.912-2.912 10.176 10.16-2.928 2.912q-1.248-0.832-2.8-0.68t-2.656 1.256l-1.2 1.2q-1.088 1.104-1.24 2.648t0.68 2.808l-2.928 2.912-3.856-3.856-4.48 4.464q-0.864 0.864-3.256 2.48t-2.824 1.184 1.184-2.84 2.464-3.256l4.464-4.464-3.856-3.872 2.928-2.912q1.248 0.832 2.8 0.68t2.64-1.256l1.2-1.2q1.104-1.088 1.256-2.64t-0.68-2.816z"></path>
</symbol>
<symbol id="esicons-user" viewBox="0 0 32 32">
<title>user</title>
<path class="path1" d="M16 14.8q-0.736 0-1.384-0.304t-1.080-0.792-0.784-1.072-0.552-1.168-0.336-1.072-0.184-0.792l-0.048-0.304q-0.096-0.88-0.048-1.736t0.392-1.648 0.848-1.392 1.32-0.96 1.808-0.36q1.648 0 2.736 0.944t1.456 2.304 0.144 2.848q-0.016 0.112-0.048 0.312t-0.168 0.768-0.328 1.088-0.536 1.16-0.768 1.096-1.064 0.768-1.376 0.312zM16 18.912l4.352-2.912q1.856 0 3.544 1.072t2.688 2.752 1 3.424v3.984q-0.24 0.080-0.664 0.2t-1.744 0.432-2.632 0.552-3.12 0.432-3.424 0.192q-2.592 0-5.488-0.456t-4.496-0.904l-1.6-0.448v-3.984q0-1.792 0.928-3.44t2.6-2.688 3.624-1.040z"></path>
</symbol>
<symbol id="esicons-key" viewBox="0 0 32 32">
<title>key</title>
<path class="path1" d="M27.12 4.128q1.536 1.536 2.088 3.6t0 4.12-2.088 3.592q-1.792 1.792-4.28 2.216t-4.664-0.6l-2.992 5.296-4.784 0.496-2.4 5.952h-4.8l-1.6-3.2 12.72-12.304q-1.136-2.224-0.744-4.776t2.232-4.392q1.536-1.536 3.6-2.088t4.12 0 3.592 2.088zM23.104 10.192q0.88 0 1.504-0.624t0.624-1.52q0-0.88-0.624-1.504t-1.504-0.624-1.504 0.624-0.624 1.504 0.624 1.512 1.504 0.632z"></path>
</symbol>
<symbol id="esicons-calendar" viewBox="0 0 32 32">
<title>calendar</title>
<path class="path1" d="M24 6.4h4.8v22.4h-25.6v-22.4h4.8v-1.6q0-0.992 0.704-1.696t1.696-0.704 1.696 0.704 0.704 1.696v1.6h6.4v-1.6q0-0.992 0.704-1.696t1.696-0.704 1.696 0.704 0.704 1.696v1.6zM9.6 4.8v4q0 0.336 0.232 0.568t0.568 0.232 0.568-0.232 0.232-0.568v-4q0-0.336-0.232-0.568t-0.568-0.232-0.568 0.232-0.232 0.568zM20.8 4.8v4q0 0.336 0.232 0.568t0.568 0.232 0.568-0.232 0.232-0.568v-4q0-0.336-0.232-0.568t-0.568-0.232-0.568 0.232-0.232 0.568zM27.2 27.2v-14.4h-22.4v14.4h22.4zM11.2 25.6v-11.2h-3.2v11.2h3.2zM17.6 25.6v-11.2h-3.2v11.2h3.2zM24 25.6v-11.2h-3.2v11.2h3.2z"></path>
</symbol>
<symbol id="esicons-edit" viewBox="0 0 32 32">
<title>edit</title>
<path class="path1" d="M22.224 5.424l4.336 4.352q0.544 0.56 0.536 1.344t-0.488 1.28l-12.816 12.832-8.896 1.856 1.856-8.928q12.16-12.208 12.784-12.848 0.464-0.48 1.304-0.456t1.384 0.568zM17.856 9.888l-8.944 8.976 1.776 1.776 8.864-9.040zM13.104 23.056l8.928-8.96-1.712-1.728-8.944 8.96z"></path>
</symbol>
<symbol id="esicons-time" viewBox="0 0 32 32">
<title>time</title>
<path class="path1" d="M16 3.2q2.608 0 4.976 1.016t4.080 2.728 2.728 4.080 1.016 4.976-1.016 4.976-2.728 4.080-4.080 2.728-4.976 1.016-4.976-1.016-4.080-2.728-2.728-4.080-1.016-4.976 1.016-4.976 2.728-4.080 4.080-2.728 4.976-1.016zM16 25.6q2.608 0 4.816-1.288t3.496-3.496 1.288-4.816-1.288-4.816-3.496-3.496-4.816-1.288-4.816 1.288-3.496 3.496-1.288 4.816 1.288 4.816 3.496 3.496 4.816 1.288zM14.864 17.136q0.224 0.16 0.368 0.24l-0.032 0.032 7.2 3.392-4.848-5.104-1.552-7.696-1.552 7.696h0.016q0 0.016-0.032 0.144t-0.032 0.16q0 0.672 0.464 1.136z"></path>
</symbol>
<symbol id="esicons-calendar-2" viewBox="0 0 32 32">
<title>calendar-2</title>
<path class="path1" d="M24 6.4h4.8v24h-25.6v-24h4.8v-1.6q0-0.96 0.704-1.696 0.704-0.704 1.696-0.704t1.696 0.704q0.704 0.736 0.704 1.696v1.6h6.4v-1.6q0-0.96 0.704-1.696 0.704-0.704 1.696-0.704t1.696 0.704q0.704 0.736 0.704 1.696v1.6zM9.6 4.8v4q0 0.336 0.24 0.576 0.224 0.224 0.56 0.224t0.56-0.224q0.24-0.24 0.24-0.576v-4q0-0.352-0.24-0.56-0.208-0.24-0.56-0.24t-0.56 0.24q-0.24 0.208-0.24 0.56zM20.8 4.8v4q0 0.32 0.224 0.576 0.256 0.224 0.576 0.224t0.576-0.224q0.224-0.256 0.224-0.576v-4q0-0.336-0.224-0.56-0.24-0.24-0.576-0.24t-0.576 0.24q-0.224 0.224-0.224 0.56zM27.2 28.8v-16h-22.4v16h22.4zM11.2 14.4v3.2h-3.2v-3.2h3.2zM14.4 14.4h3.2v3.2h-3.2v-3.2zM20.8 17.6v-3.2h3.2v3.2h-3.2zM11.2 19.2v3.2h-3.2v-3.2h3.2zM14.4 19.2h3.2v3.2h-3.2v-3.2zM20.8 22.4v-3.2h3.2v3.2h-3.2zM11.2 24v3.2h-3.2v-3.2h3.2zM17.6 27.2h-3.2v-3.2h3.2v3.2zM24 27.2h-3.2v-3.2h3.2v3.2z"></path>
</symbol>
<symbol id="esicons-sticky-2" viewBox="0 0 32 32">
<title>sticky-2</title>
<path class="path1" d="M8 5.776v-4.112l14.384-0.016-0.016 4.128q-1.488 0.32-2.472 1.512t-0.984 2.76v0.8q0.016 1.568 0.992 2.752t2.48 1.504l-0.016 4.128h-5.456l-0.016 4.112q0 1.232-0.544 4.144t-1.152 2.912q-0.624 0-1.176-2.912t-0.552-4.144v-4.096l-5.472-0.016 0.016-4.128q1.488-0.304 2.464-1.496t0.976-2.76v-0.8q0-1.568-0.976-2.76t-2.48-1.512z"></path>
</symbol>
<symbol id="esicons-camera" viewBox="0 0 32 32">
<title>camera</title>
<path class="path1" d="M24 6.4h4.704q0.704 0 1.2 0.496t0.496 1.2v18.896q0 0.72-0.496 1.264t-1.2 0.544h-25.408q-0.704 0-1.2-0.544t-0.496-1.264v-18.896q0-0.704 0.496-1.2t1.2-0.496h4.704l4.8-3.2h6.4zM16 24q2.656 0 4.528-1.872t1.872-4.528-1.872-4.528-4.528-1.872-4.528 1.872-1.872 4.528 1.872 4.528 4.528 1.872z"></path>
</symbol>
<symbol id="esicons-video-camera" viewBox="0 0 32 32">
<title>video-camera</title>
<path class="path1" d="M12.8 8q0-0.656-0.472-1.128t-1.128-0.472h-8q-0.656 0-1.128 0.472t-0.472 1.128q0 0.672 0.488 1.136t1.112 0.464h8q0.656 0 1.128-0.472t0.472-1.128zM22.4 16l6.4-6.4v16l-6.4-6.4v-3.2zM20.8 22.4v-9.6q0-0.656-0.472-1.128t-1.128-0.472h-12.8q-0.656 0-1.128 0.472t-0.472 1.128v9.6q0 0.656 0.472 1.128t1.128 0.472h12.8q0.656 0 1.128-0.472t0.472-1.128z"></path>
</symbol>
<symbol id="esicons-video-2" viewBox="0 0 32 32">
<title>video-2</title>
<path class="path1" d="M30.4 24v-16q0-1.312-0.944-2.256t-2.256-0.944h-20.8q-1.312 0-2.256 0.944t-0.944 2.256v16q0 1.312 0.944 2.256t2.256 0.944h20.8q1.312 0 2.256-0.944t0.944-2.256zM12.8 22.4v-12.8l9.6 6.4z"></path>
</symbol>
<symbol id="esicons-microphone" viewBox="0 0 32 32">
<title>microphone</title>
<path class="path1" d="M19.2 14.4v-9.6q0-1.328-0.936-2.264t-2.264-0.936-2.264 0.952-0.936 2.248v9.6q0 1.312 0.944 2.256t2.256 0.944q1.344 0 2.272-0.952t0.928-2.248zM25.6 14.4q0 3.536-2.28 6.208t-5.72 3.248v3.344h3.2q0.672 0 1.136 0.472t0.464 1.128-0.464 1.128-1.136 0.472h-9.6q-0.656 0-1.128-0.472t-0.472-1.128 0.472-1.128 1.128-0.472h3.2v-3.344q-3.424-0.576-5.712-3.248t-2.288-6.208q0-0.656 0.472-1.128t1.128-0.472q0.672 0 1.136 0.472t0.464 1.128q0 2.656 1.88 4.528t4.52 1.872q2.656 0 4.528-1.872t1.872-4.528q0-0.656 0.472-1.128t1.128-0.472q0.672 0 1.136 0.472t0.464 1.128z"></path>
</symbol>
<symbol id="esicons-menu" viewBox="0 0 32 32">
<title>menu</title>
<path class="path1" d="M32 8v-4.8h-32v4.8h32zM32 17.6v-4.8h-32v4.8h32zM32 27.2v-4.8h-32v4.8h32z"></path>
</symbol>
<symbol id="esicons-menu-2" viewBox="0 0 32 32">
<title>menu-2</title>
<path class="path1" d="M4.8 6.4h22.4v3.2h-22.4v-3.2zM4.8 14.4h22.4v3.2h-22.4v-3.2zM4.8 22.4h22.4v3.2h-22.4v-3.2z"></path>
</symbol>
<symbol id="esicons-menu-3" viewBox="0 0 32 32">
<title>menu-3</title>
<path class="path1" d="M27.2 11.2v-3.2h-22.4v3.2h22.4zM27.2 17.6v-3.2h-22.4v3.2h22.4zM27.2 24v-3.2h-22.4v3.2h22.4z"></path>
</symbol>
<symbol id="esicons-menu-4" viewBox="0 0 32 32">
<title>menu-4</title>
<path class="path1" d="M24 11.2v-3.2h-16v3.2h16zM24 17.6v-3.2h-16v3.2h16zM24 24v-3.2h-16v3.2h16z"></path>
</symbol>
<symbol id="esicons-arrow-up" viewBox="0 0 32 32">
<title>arrow-up</title>
<path class="path1" d="M11.2 20.8l6.448-9.6 6.352 9.6h-12.8z"></path>
</symbol>
<symbol id="esicons-arrow-right" viewBox="0 0 32 32">
<title>arrow-right</title>
<path class="path1" d="M12.8 9.6l9.6 6.448-9.6 6.352v-12.8z"></path>
</symbol>
<symbol id="esicons-arrow-down" viewBox="0 0 32 32">
<title>arrow-down</title>
<path class="path1" d="M24 12.8l-6.448 9.6-6.352-9.6h12.8z"></path>
</symbol>
<symbol id="esicons-arrow-left" viewBox="0 0 32 32">
<title>arrow-left</title>
<path class="path1" d="M20.8 22.4l-9.6-6.448 9.6-6.352v12.8z"></path>
</symbol>
<symbol id="esicons-arrow-2-up" viewBox="0 0 32 32">
<title>arrow-2-up</title>
<path class="path1" d="M17.6 28.8h-3.2v-19.2l-6.4 6.4-3.2-1.6 11.2-11.2 11.2 11.2-3.2 1.6-6.4-6.4v19.2z"></path>
</symbol>
<symbol id="esicons-arrow-2-right" viewBox="0 0 32 32">
<title>arrow-2-right</title>
<path class="path1" d="M3.2 17.6v-3.2h19.2l-6.4-6.4 1.6-3.2 11.2 11.2-11.2 11.2-1.6-3.2 6.4-6.4h-19.2z"></path>
</symbol>
<symbol id="esicons-arrow-2-down" viewBox="0 0 32 32">
<title>arrow-2-down</title>
<path class="path1" d="M14.4 3.2h3.2v19.2l6.4-6.4 3.2 1.6-11.2 11.2-11.2-11.2 3.2-1.6 6.4 6.4v-19.2z"></path>
</symbol>
<symbol id="esicons-arrow-2-left" viewBox="0 0 32 32">
<title>arrow-2-left</title>
<path class="path1" d="M28.8 14.4v3.2h-19.2l6.4 6.4-1.6 3.2-11.2-11.2 11.2-11.2 1.6 3.2-6.4 6.4h19.2z"></path>
</symbol>
<symbol id="esicons-arrow-3-up" viewBox="0 0 32 32">
<title>arrow-3-up</title>
<path class="path1" d="M24 22.4l-8-8-8 8-3.2-1.6 11.2-11.2 11.2 11.2z"></path>
</symbol>
<symbol id="esicons-arrow-3-right" viewBox="0 0 32 32">
<title>arrow-3-right</title>
<path class="path1" d="M9.6 24l8-8-8-8 1.6-3.2 11.2 11.2-11.2 11.2z"></path>
</symbol>
<symbol id="esicons-arrow-3-down" viewBox="0 0 32 32">
<title>arrow-3-down</title>
<path class="path1" d="M8 9.6l8 8 8-8 3.2 1.6-11.2 11.2-11.2-11.2z"></path>
</symbol>
<symbol id="esicons-arrow-3-left" viewBox="0 0 32 32">
<title>arrow-3-left</title>
<path class="path1" d="M22.4 8l-8 8 8 8-1.6 3.2-11.2-11.2 11.2-11.2z"></path>
</symbol>
<symbol id="esicons-home" viewBox="0 0 32 32">
<title>home</title>
<path class="path1" d="M25.6 13.6l2.448 2.448-1.696 1.696-10.352-10.352-10.352 10.352-1.696-1.696 12.048-12.048 6.4 6.4v-3.2h3.2v6.4zM16 9.664l9.6 9.584v9.552h-19.2v-9.552zM19.2 27.2v-8h-6.4v8h6.4z"></path>
</symbol>
<symbol id="esicons-globe" viewBox="0 0 32 32">
<title>globe</title>
<path class="path1" d="M30.4 16q0-2.928-1.144-5.592t-3.072-4.592-4.592-3.072-5.592-1.144-5.592 1.144-4.592 3.072-3.072 4.592-1.144 5.592 1.144 5.592 3.072 4.592 4.592 3.072 5.592 1.144 5.592-1.144 4.592-3.072 3.072-4.592 1.144-5.592zM12.8 16.16q-6.048-0.624-8.768-3.664 1.184-3.84 4.344-6.336t7.256-2.672q-0.528 0.88-0.896 2.016t-0.512 2.384 0.192 2.472 1.168 2.040q-0.56 0.080-1.104-0.096t-0.936-0.48-0.816-0.64-0.728-0.576-0.688-0.28-0.704 0.232q-1.408 1.104-0.672 2.4 0.8 1.408 3.648 2.304 0.992 0.32 2.144 0.528 1.552 0.272 2.632 0.648t1.704 0.792 0.96 1 0.432 1.136 0.080 1.352q-0.096 4.768-6.496 7.52 0.032-1.376-0.184-2.448t-0.608-1.744-0.88-1.176-1.016-0.832-1-0.592-0.864-0.584-0.568-0.688q0.16-0.672 0.296-1.080t0.44-0.984 0.832-1.056 1.312-0.896zM26.384 9.248q0.496 0.768 0.872 1.56t0.616 1.48 0.368 1.424 0.184 1.296 0.024 1.208-0.072 1.056-0.16 0.936-0.184 0.744-0.192 0.6l-0.112 0.384q-0.336-0.816-0.832-1.528t-0.968-1.192-0.92-0.928-0.808-0.96-0.52-1.056q-0.624-2.192 2.704-5.024z"></path>
</symbol>
<symbol id="esicons-item" viewBox="0 0 32 32">
<title>item</title>
<path class="path1" d="M14.4 14.4v-9.6h-9.6v9.6h9.6zM27.2 14.4v-9.6h-9.6v9.6h9.6zM14.4 27.2v-9.6h-9.6v9.6h9.6zM27.2 27.2v-9.6h-9.6v9.6h9.6z"></path>
</symbol>
<symbol id="esicons-search" viewBox="0 0 32 32">
<title>search</title>
<path class="path1" d="M19.424 6.688q2.224 2.224 2.528 5.352t-1.376 5.672q0.048 0.048 0.248 0.224t0.328 0.272q0.544 0.432 1.296 0.944 0.992 0.688 1.056 0.752 0.976 0.72 1.504 1.248 0.784 0.784 1.344 1.6 0.576 0.8 0.944 1.664 0.352 0.88 0.288 1.6-0.048 0.768-0.576 1.296t-1.296 0.576q-0.784 0.048-1.584-0.304-0.832-0.336-1.664-0.944-0.816-0.56-1.6-1.344-0.528-0.528-1.232-1.488-0.032-0.048-0.752-1.056-0.512-0.736-0.896-1.248-0.384-0.48-0.704-0.8-2.464 1.328-5.344 0.912t-4.96-2.48q-2.56-2.576-2.56-6.232t2.56-6.216q1.696-1.696 3.96-2.296t4.528 0 3.96 2.296zM17.168 16.864q1.632-1.648 1.632-3.96t-1.632-3.96q-1.648-1.648-3.968-1.648t-3.952 1.648q-1.648 1.648-1.648 3.96t1.648 3.96q1.632 1.648 3.952 1.648t3.968-1.648z"></path>
</symbol>
<symbol id="esicons-search-2" viewBox="0 0 32 32">
<title>search-2</title>
<path class="path1" d="M28 26l-2 2-7.732-7.732c-1.482 1.078-3.294 1.732-5.268 1.732-4.97 0-9-4.030-9-9s4.030-9 9-9 9 4.030 9 9c0 1.974-0.654 3.786-1.732 5.268zM6 13c0 3.866 3.134 7 7 7 3.868 0 7-3.134 7-7s-3.132-7-7-7c-3.866 0-7 3.134-7 7z"></path>
</symbol>
<symbol id="esicons-email" viewBox="0 0 32 32">
<title>email</title>
<path class="path1" d="M30.4 23.2v-14.4q0-0.992-0.704-1.696t-1.696-0.704h-22.416q-0.992 0-1.696 0.704t-0.704 1.696v14.4q0 0.992 0.704 1.696t1.696 0.704h22.416q0.992 0 1.696-0.704t0.704-1.696zM28.304 8.624q0.24 0.24 0.28 0.52t-0.064 0.472-0.264 0.352l-6.496 5.952 6.24 6.496q0.416 0.48 0.096 0.816-0.144 0.176-0.448 0.192t-0.448-0.112l-6.992-5.968-3.424 3.12-3.408-3.12-6.992 5.968q-0.144 0.128-0.448 0.112t-0.448-0.192q-0.32-0.336 0.096-0.816l6.24-6.496-6.496-5.952q-0.16-0.16-0.264-0.352t-0.064-0.472 0.28-0.52q0.64-0.64 1.52 0.112l9.984 8.064 10-8.064q0.88-0.752 1.52-0.112z"></path>
</symbol>
<symbol id="esicons-quote-2" viewBox="0 0 32 32">
<title>quote-2</title>
<path class="path1" d="M4 18v-10h10v10c0 4.418-3.582 8-8 8v-4c2.208 0 4-1.792 4-4h-6zM18 8h10v10c0 4.418-3.582 8-8 8v-4c2.208 0 4-1.792 4-4h-6v-10z"></path>
</symbol>
<symbol id="esicons-dot" viewBox="0 0 32 32">
<title>dot</title>
<path class="path1" d="M16 12c2.208 0 4 1.792 4 4s-1.792 4-4 4-4-1.792-4-4 1.792-4 4-4z"></path>
</symbol>
<symbol id="esicons-check" viewBox="0 0 32 32">
<title>check</title>
<path class="path1" d="M23.728 7.824l2.144 1.504-9.296 13.408h-2.144l-5.184-7.264 2.144-2 4.112 3.84z"></path>
</symbol>
<symbol id="esicons-close-2" viewBox="0 0 32 32">
<title>close-2</title>
<path class="path1" d="M19.392 16l5.648 5.648-3.392 3.392-5.648-5.648-5.664 5.664-3.392-3.392 5.664-5.664-5.664-5.664 3.392-3.392 5.664 5.664 5.664-5.648 3.392 3.392z"></path>
</symbol>
<symbol id="esicons-close" viewBox="0 0 32 32">
<title>close</title>
<path class="path1" d="M23.92 10.336l-5.664 5.664 5.664 5.664-2.256 2.256-5.664-5.648-5.648 5.648-2.272-2.272 5.648-5.648-5.648-5.648 2.272-2.272 5.648 5.648 5.664-5.648z"></path>
</symbol>
<symbol id="esicons-plus" viewBox="0 0 32 32">
<title>plus</title>
<path class="path1" d="M27.2 14.4v3.2h-9.6v9.6h-3.2v-9.6h-9.6v-3.2h9.6v-9.6h3.2v9.6h9.6z"></path>
</symbol>
<symbol id="esicons-minus" viewBox="0 0 32 32">
<title>minus</title>
<path class="path1" d="M6 18v-4h18v4h-18z"></path>
</symbol>
</defs>
</svg>
