<svg version="1.1" xmlns="http://www.w3.org/2000/svg" xmlns:xlink="http://www.w3.org/1999/xlink" width="32" height="32" viewBox="0 0 32 32">
<path d="M26.372 13.205l-1.336 0.001c-0.819 0-1.489-0.635-1.547-1.439l-0.001-0.017c0-4.28-3.469-7.751-7.751-7.751h-3.909c-4.28 0-7.751 3.469-7.751 7.751v8.5c0 4.28 3.469 7.751 7.751 7.751h8.343c4.28 0 7.751-3.471 7.751-7.751l0.003-5.495c-0.001-0.857-0.696-1.551-1.552-1.551zM11.635 10.284h4.388c0.823 0 1.489 0.667 1.489 1.489s-0.667 1.489-1.489 1.489h-4.388c-0.823 0-1.489-0.667-1.489-1.489 0-0.821 0.667-1.489 1.489-1.489zM20.436 21.827h-8.809c-0.779 0-1.409-0.631-1.409-1.409s0.631-1.409 1.409-1.409h8.809c0.779 0 1.409 0.631 1.409 1.409s-0.631 1.409-1.409 1.409z"></path>
</svg>
