<svg version="1.1" xmlns="http://www.w3.org/2000/svg" xmlns:xlink="http://www.w3.org/1999/xlink" width="32" height="32" viewBox="0 0 32 32">
<path d="M19.629 18.692c0 0.481-0.391 0.872-0.872 0.872h-5.455c-0.481 0-0.872-0.391-0.872-0.872s0.391-0.872 0.872-0.872h5.455c0.481 0 0.872 0.391 0.872 0.872zM13.308 14.264h2.717c0.509 0 0.923-0.413 0.923-0.923s-0.413-0.923-0.923-0.923h-2.717c-0.509 0-0.923 0.413-0.923 0.923s0.413 0.923 0.923 0.923zM28 6.667v18.667c0 1.473-1.193 2.667-2.667 2.667h-18.667c-1.473 0-2.667-1.193-2.667-2.667v-18.667c0-1.473 1.193-2.667 2.667-2.667h18.667c1.473 0 2.667 1.193 2.667 2.667zM23.392 15.187c0-0.531-0.429-0.96-0.96-0.96h-0.809l-0.017 0.001c-0.507 0-0.923-0.393-0.957-0.891l-0.001-0.011c0-2.651-2.148-4.799-4.799-4.799h-2.421c-2.651 0-4.799 2.148-4.799 4.799v5.263c0 2.649 2.148 4.799 4.799 4.799h5.165c2.651 0 4.799-2.148 4.799-4.799l0.001-3.403z"></path>
</svg>
