<svg version="1.1" xmlns="http://www.w3.org/2000/svg" xmlns:xlink="http://www.w3.org/1999/xlink" width="32" height="32" viewBox="0 0 32 32">
<path d="M29.355 11.787c-0.003-0.017-0.007-0.033-0.009-0.049-0.007-0.033-0.011-0.064-0.020-0.096-0.004-0.020-0.013-0.037-0.017-0.056-0.011-0.027-0.020-0.053-0.031-0.083-0.009-0.020-0.017-0.037-0.027-0.056-0.011-0.027-0.024-0.049-0.040-0.076-0.009-0.017-0.023-0.036-0.033-0.051-0.016-0.024-0.031-0.047-0.047-0.069-0.013-0.017-0.027-0.033-0.040-0.049-0.020-0.023-0.037-0.043-0.057-0.060-0.013-0.016-0.029-0.031-0.047-0.047-0.020-0.020-0.043-0.037-0.064-0.053-0.016-0.013-0.033-0.027-0.049-0.040-0.007-0.004-0.013-0.011-0.020-0.016l-12.215-8.128c-0.385-0.256-0.888-0.256-1.273 0l-12.22 8.125c-0.007 0.004-0.013 0.011-0.020 0.016l-0.051 0.037c-0.023 0.017-0.044 0.036-0.064 0.053-0.016 0.019-0.032 0.033-0.048 0.047-0.020 0.020-0.037 0.040-0.056 0.063-0.016 0.017-0.029 0.031-0.040 0.049-0.015 0.023-0.033 0.047-0.047 0.069-0.011 0.017-0.021 0.035-0.033 0.051-0.015 0.029-0.028 0.052-0.040 0.079-0.008 0.020-0.017 0.037-0.027 0.055-0.011 0.029-0.020 0.059-0.028 0.085-0.007 0.017-0.013 0.036-0.017 0.056-0.009 0.031-0.015 0.061-0.021 0.095-0.001 0.019-0.007 0.033-0.008 0.049-0.008 0.052-0.012 0.1-0.012 0.152v8.124c0 0.049 0.004 0.1 0.011 0.149 0.003 0.016 0.007 0.033 0.009 0.051 0.007 0.031 0.011 0.063 0.020 0.096 0.004 0.020 0.011 0.037 0.017 0.053 0.009 0.029 0.017 0.056 0.029 0.084 0.009 0.020 0.017 0.037 0.027 0.053 0.011 0.027 0.024 0.051 0.040 0.077 0.009 0.017 0.020 0.036 0.033 0.051 0.016 0.024 0.031 0.047 0.047 0.069 0.013 0.017 0.027 0.033 0.040 0.049 0.017 0.020 0.037 0.043 0.056 0.060 0.016 0.016 0.031 0.031 0.047 0.047 0.020 0.017 0.043 0.037 0.064 0.053l0.051 0.040c0.007 0.004 0.013 0.009 0.017 0.013l12.217 8.127c0.199 0.135 0.419 0.197 0.641 0.197s0.443-0.063 0.637-0.192l12.237-8.14c0.017-0.013 0.036-0.027 0.049-0.040 0.024-0.017 0.047-0.037 0.064-0.053s0.033-0.031 0.047-0.047c0.023-0.020 0.040-0.043 0.057-0.060 0.013-0.017 0.027-0.033 0.040-0.049 0.017-0.024 0.033-0.047 0.047-0.069 0.011-0.017 0.024-0.036 0.033-0.051 0.016-0.027 0.029-0.051 0.040-0.077 0.009-0.017 0.017-0.036 0.027-0.053 0.011-0.029 0.020-0.056 0.031-0.084 0.004-0.017 0.013-0.036 0.017-0.053 0.009-0.033 0.013-0.064 0.020-0.096 0.003-0.017 0.007-0.036 0.009-0.049 0.004-0.056 0.009-0.105 0.009-0.156v-8.124c0.001-0.052-0.003-0.1-0.011-0.152zM17.149 5.952l9.001 5.987-4.021 2.684-4.98-3.323v-5.348zM14.851 5.952v5.345l-4.98 3.325-4.019-2.684 8.999-5.987zM4.932 14.083l2.872 1.917-2.873 1.917v-3.835zM14.851 26.048l-8.999-5.988 4.020-2.681 4.98 3.323v5.347zM16 18.713l-4.063-2.713 4.063-2.712 4.063 2.712-4.063 2.713zM17.149 26.048v-5.345l4.98-3.323 4.021 2.681-9.001 5.987zM27.071 17.917l-2.875-1.917 2.875-1.917v3.835z"></path>
</svg>
