<svg version="1.1" xmlns="http://www.w3.org/2000/svg" xmlns:xlink="http://www.w3.org/1999/xlink" width="32" height="32" viewBox="0 0 32 32">
<path d="M16 29.333c-7.352 0-13.333-5.981-13.333-13.333s5.981-13.333 13.333-13.333c7.352 0 13.333 5.981 13.333 13.333s-5.981 13.333-13.333 13.333zM27.245 17.825c-0.389-0.123-3.525-1.059-7.093-0.487 1.489 4.093 2.096 7.427 2.212 8.12 2.555-1.728 4.373-4.465 4.881-7.633zM20.448 26.501c-0.169-0.999-0.831-4.481-2.429-8.636-0.025 0.008-0.051 0.017-0.075 0.025-6.424 2.239-8.729 6.693-8.935 7.112 1.931 1.505 4.357 2.404 6.991 2.404 1.577 0 3.081-0.323 4.448-0.905zM7.539 23.632c0.257-0.441 3.384-5.617 9.257-7.516 0.148-0.048 0.299-0.093 0.449-0.136-0.285-0.647-0.597-1.295-0.923-1.933-5.688 1.703-11.207 1.631-11.704 1.621-0.004 0.116-0.005 0.232-0.005 0.348-0.003 2.927 1.107 5.597 2.925 7.616zM4.852 13.685c0.509 0.007 5.201 0.027 10.529-1.388-1.887-3.355-3.923-6.175-4.223-6.587-3.187 1.503-5.568 4.44-6.307 7.975zM13.331 4.945c0.315 0.421 2.383 3.239 4.249 6.667 4.049-1.517 5.764-3.823 5.969-4.113-2.011-1.784-4.656-2.871-7.549-2.871-0.919 0-1.812 0.111-2.669 0.317zM24.816 8.816c-0.24 0.324-2.149 2.771-6.36 4.489 0.265 0.543 0.519 1.095 0.756 1.649 0.084 0.197 0.165 0.393 0.245 0.588 3.789-0.476 7.555 0.287 7.931 0.367-0.025-2.688-0.987-5.156-2.572-7.093z"></path>
</svg>
