<svg version="1.1" xmlns="http://www.w3.org/2000/svg" xmlns:xlink="http://www.w3.org/1999/xlink" width="32" height="32" viewBox="0 0 32 32">
<path d="M24.055 5.241l-16.109-1.241c-2.179 0-3.945 1.767-3.945 3.945v16.111c0 2.177 1.767 3.944 3.945 3.944l16.111-1.241c2.209-0.115 3.944-1.767 3.944-3.945v-13.627c0-2.179-1.679-3.817-3.945-3.945zM22.577 10.893c-0.109 0.287-0.256 0.576-0.504 0.735-0.251 0.163-0.652 0.176-1.065 0.176-2.028 0-4.083-0.064-6.143-0.064-0.203 0.944-0.405 1.888-0.601 2.837 1.243-0.005 2.497 0.007 3.747 0.007 0.968 0 1.949-0.092 2.115 0.7 0.053 0.252-0.001 0.568-0.069 0.82-0.14 0.507-0.344 0.901-0.833 1.044-0.247 0.072-0.544 0.077-0.861 0.077-1.527 0-3.127 0.023-4.657 0.027-0.225 1.029-0.437 2.071-0.652 3.111 2.093-0.007 4.089-0.055 6.177-0.077 0.836-0.009 1.447 0.259 1.345 1.133-0.041 0.349-0.131 0.663-0.281 0.967-0.136 0.277-0.331 0.501-0.651 0.603-0.316 0.1-0.721 0.085-1.149 0.104-0.405 0.019-0.819 0.011-1.232 0.021-0.412 0.012-0.825 0.029-1.225 0.029-1.671 0-3.239 0.107-4.911 0.097-0.804-0.005-1.352-0.332-1.499-1.009-0.079-0.364-0.024-0.773 0.048-1.121 0.721-3.456 1.444-6.901 2.172-10.351 0.075-0.353 0.152-0.681 0.3-0.952 0.225-0.405 0.565-0.695 1.053-0.827 0.491-0.132 1.177-0.063 1.792-0.063 0.407 0 0.816 0.011 1.219 0.021 1.233 0.035 2.423 0.040 3.663 0.071 0.405 0.009 0.82 0.021 1.22 0.021 0.828 0 1.56 0.097 1.66 0.819 0.052 0.384-0.068 0.756-0.176 1.044z"></path>
</svg>
