<svg version="1.1" xmlns="http://www.w3.org/2000/svg" xmlns:xlink="http://www.w3.org/1999/xlink" width="32" height="32" viewBox="0 0 32 32">
<path d="M26.676 4h-21.352c-0.731 0-1.324 0.593-1.324 1.324v21.351c0 0.732 0.593 1.325 1.324 1.325h11.495v-9.295h-3.128v-3.623h3.128v-2.669c0-3.1 1.893-4.788 4.659-4.788 1.324 0 2.463 0.099 2.795 0.143v3.24l-1.917 0.001c-1.504 0-1.795 0.715-1.795 1.764v2.312h3.587l-0.467 3.623h-3.12v9.292h6.116c0.731 0 1.324-0.593 1.324-1.324v-21.352c0-0.731-0.593-1.324-1.324-1.324z"></path>
</svg>
