<svg version="1.1" xmlns="http://www.w3.org/2000/svg" xmlns:xlink="http://www.w3.org/1999/xlink" width="32" height="32" viewBox="0 0 32 32">
<path d="M23.431 2.667c0 0-12.263 0-14.224 0s-2.54 1.476-2.54 2.407 0 22.597 0 22.597c0 1.047 0.563 1.436 0.88 1.563 0.317 0.129 1.189 0.236 1.713-0.367 0 0 6.713-7.791 6.829-7.907 0.176-0.176 0.176-0.176 0.349-0.176h4.347c1.824 0 2.117-1.303 2.309-2.069 0.104-0.424 0.923-4.571 1.633-8.163l0.9-4.491c0.452-2.204-0.108-3.395-2.197-3.395zM21.993 9.627c-0.071 0.336-0.496 0.691-0.887 0.691s-5.543 0-5.543 0c-0.623 0-1.069 0.424-1.069 1.049v0.677c0 0.623 0.449 1.064 1.073 1.064 0 0 4.263 0 4.704 0s0.873 0.483 0.777 0.953c-0.096 0.471-0.543 2.803-0.597 3.060-0.053 0.257-0.349 0.697-0.873 0.697-0.44 0-3.84 0-3.84 0-0.697 0-0.911 0.091-1.377 0.671-0.467 0.583-4.673 5.631-4.673 5.631-0.043 0.047-0.084 0.036-0.084-0.020v-17.631c0-0.397 0.347-0.864 0.864-0.864 0 0 10.971 0 11.416 0 0.42 0 0.813 0.396 0.704 0.911l-0.595 3.111z"></path>
</svg>
