<svg version="1.1" xmlns="http://www.w3.org/2000/svg" xmlns:xlink="http://www.w3.org/1999/xlink" width="32" height="32" viewBox="0 0 32 32">
<path d="M16 2.667c-7.364 0-13.333 5.969-13.333 13.333 0 5.892 3.82 10.888 9.119 12.652 0.667 0.12 0.909-0.291 0.909-0.645 0-0.315-0.012-1.155-0.019-2.265-3.709 0.803-4.492-1.787-4.492-1.787-0.607-1.543-1.48-1.953-1.48-1.953-1.212-0.827 0.092-0.811 0.092-0.811 1.339 0.095 2.043 1.373 2.043 1.373 1.188 2.039 3.121 1.452 3.88 1.111 0.121-0.863 0.465-1.448 0.847-1.783-2.96-0.335-6.073-1.481-6.073-6.591 0-1.455 0.52-2.645 1.373-3.576-0.137-0.339-0.596-1.693 0.129-3.528 0 0 1.12-0.359 3.667 1.367 1.065-0.297 2.205-0.444 3.339-0.449 1.133 0.005 2.273 0.152 3.339 0.448 2.545-1.725 3.664-1.367 3.664-1.367 0.728 1.835 0.269 3.192 0.133 3.528 0.853 0.932 1.368 2.121 1.368 3.576 0 5.121-3.116 6.249-6.087 6.58 0.479 0.409 0.905 1.223 0.905 2.469 0 1.78-0.016 3.22-0.016 3.655 0 0.359 0.24 0.772 0.917 0.641 5.293-1.764 9.109-6.757 9.109-12.645 0-7.364-5.969-13.333-13.333-13.333z"></path>
</svg>
