<svg version="1.1" xmlns="http://www.w3.org/2000/svg" xmlns:xlink="http://www.w3.org/1999/xlink" width="32" height="32" viewBox="0 0 32 32">
<path d="M10.667 14.667h8.813c0.080 0.467 0.147 0.933 0.147 1.547 0 5.333-3.573 9.12-8.96 9.12-5.16 0-9.333-4.173-9.333-9.333s4.173-9.333 9.333-9.333c2.52 0 4.627 0.92 6.253 2.44l-2.533 2.44c-0.693-0.667-1.907-1.44-3.72-1.44-3.187 0-5.787 2.64-5.787 5.893s2.6 5.893 5.787 5.893c3.693 0 5.080-2.653 5.293-4.027h-5.293v-3.2zM30.667 14.667h-2.667v-2.667h-2.667v2.667h-2.667v2.667h2.667v2.667h2.667v-2.667h2.667z"></path>
</svg>
