<svg version="1.1" xmlns="http://www.w3.org/2000/svg" xmlns:xlink="http://www.w3.org/1999/xlink" width="32" height="32" viewBox="0 0 32 32">
<path d="M16 2.667c-7.364 0-13.333 5.969-13.333 13.333s5.969 13.333 13.333 13.333 13.333-5.969 13.333-13.333-5.969-13.333-13.333-13.333zM15.933 24c-4.416 0-8-3.584-8-8s3.584-8 8-8c2.16 0 3.968 0.792 5.352 2.088l-2.272 2.208c-0.576-0.544-1.584-1.184-3.080-1.184-2.648 0-4.808 2.2-4.808 4.896s2.16 4.896 4.808 4.896c3.064 0 4.192-2.12 4.4-3.376h-4.408v-2.984h7.488c0.112 0.504 0.2 0.976 0.2 1.64 0 4.568-3.064 7.816-7.68 7.816z"></path>
</svg>
