<svg version="1.1" xmlns="http://www.w3.org/2000/svg" xmlns:xlink="http://www.w3.org/1999/xlink" width="37" height="32" viewBox="0 0 37 32">
<path d="M16 21.643q0 0.982-0.563 1.67t-1.348 0.688h-7.607q-0.786 0-1.348-0.688t-0.563-1.67q0-0.964 0.134-1.795t0.438-1.607 0.911-1.223 1.446-0.446q1.143 1.143 2.786 1.143t2.786-1.143q0.839 0 1.446 0.446t0.911 1.223 0.438 1.607 0.134 1.795zM13.714 13.714q0 1.429-1 2.429t-2.429 1-2.429-1-1-2.429 1-2.429 2.429-1 2.429 1 1 2.429zM32 21.143v1.143q0 0.25-0.161 0.411t-0.411 0.161h-12.571q-0.25 0-0.411-0.161t-0.161-0.411v-1.143q0-0.25 0.161-0.411t0.411-0.161h12.571q0.25 0 0.411 0.161t0.161 0.411zM25.143 16.571v1.143q0 0.25-0.161 0.411t-0.411 0.161h-5.714q-0.25 0-0.411-0.161t-0.161-0.411v-1.143q0-0.25 0.161-0.411t0.411-0.161h5.714q0.25 0 0.411 0.161t0.161 0.411zM32 16.571v1.143q0 0.25-0.161 0.411t-0.411 0.161h-3.429q-0.25 0-0.411-0.161t-0.161-0.411v-1.143q0-0.25 0.161-0.411t0.411-0.161h3.429q0.25 0 0.411 0.161t0.161 0.411zM32 12v1.143q0 0.25-0.161 0.411t-0.411 0.161h-12.571q-0.25 0-0.411-0.161t-0.161-0.411v-1.143q0-0.25 0.161-0.411t0.411-0.161h12.571q0.25 0 0.411 0.161t0.161 0.411zM34.286 26.857v-20h-32v20q0 0.232 0.17 0.402t0.402 0.17h30.857q0.232 0 0.402-0.17t0.17-0.402zM36.571 5.143v21.714q0 1.179-0.839 2.018t-2.018 0.839h-30.857q-1.179 0-2.018-0.839t-0.839-2.018v-21.714q0-1.179 0.839-2.018t2.018-0.839h30.857q1.179 0 2.018 0.839t0.839 2.018z"></path>
</svg>
