<svg version="1.1" xmlns="http://www.w3.org/2000/svg" xmlns:xlink="http://www.w3.org/1999/xlink" width="32" height="32" viewBox="0 0 32 32">
<path d="M16 6.163c3.204 0 3.584 0.012 4.849 0.069 1.169 0.053 1.805 0.249 2.228 0.413 0.56 0.217 0.96 0.477 1.38 0.897s0.68 0.82 0.897 1.38c0.164 0.423 0.36 1.059 0.413 2.228 0.057 1.265 0.069 1.645 0.069 4.849s-0.012 3.584-0.069 4.849c-0.053 1.169-0.249 1.805-0.413 2.228-0.217 0.56-0.477 0.96-0.897 1.38s-0.82 0.68-1.38 0.897c-0.423 0.164-1.059 0.36-2.228 0.413-1.265 0.057-1.644 0.069-4.849 0.069s-3.584-0.012-4.849-0.069c-1.169-0.053-1.805-0.249-2.228-0.413-0.56-0.217-0.96-0.477-1.38-0.897s-0.68-0.82-0.897-1.38c-0.164-0.423-0.36-1.059-0.413-2.228-0.057-1.265-0.069-1.645-0.069-4.849s0.012-3.584 0.069-4.849c0.053-1.169 0.249-1.805 0.413-2.228 0.217-0.56 0.477-0.96 0.897-1.38s0.82-0.68 1.38-0.897c0.423-0.164 1.059-0.36 2.228-0.413 1.265-0.057 1.645-0.069 4.849-0.069zM16 4c-3.259 0-3.668 0.013-4.948 0.072-1.277 0.059-2.149 0.261-2.912 0.557-0.789 0.307-1.459 0.717-2.125 1.385-0.667 0.667-1.077 1.336-1.384 2.125-0.297 0.763-0.5 1.635-0.559 2.912-0.059 1.28-0.072 1.689-0.072 4.948s0.013 3.668 0.072 4.948c0.059 1.277 0.261 2.149 0.557 2.913 0.307 0.789 0.717 1.459 1.384 2.125s1.336 1.077 2.125 1.384c0.763 0.296 1.636 0.5 2.913 0.557 1.28 0.059 1.689 0.072 4.948 0.072s3.668-0.013 4.948-0.072c1.277-0.059 2.149-0.261 2.913-0.557 0.789-0.307 1.459-0.717 2.125-1.384s1.077-1.336 1.384-2.125c0.296-0.763 0.5-1.636 0.557-2.913 0.059-1.28 0.072-1.689 0.072-4.948s-0.013-3.668-0.072-4.948c-0.059-1.277-0.261-2.149-0.557-2.913-0.307-0.789-0.717-1.459-1.384-2.125s-1.336-1.077-2.125-1.384c-0.763-0.296-1.636-0.5-2.913-0.557-1.28-0.059-1.689-0.072-4.948-0.072v0zM16 9.837c-3.403 0-6.163 2.759-6.163 6.163s2.76 6.163 6.163 6.163 6.163-2.759 6.163-6.163-2.76-6.163-6.163-6.163zM16 20c-2.209 0-4-1.791-4-4s1.791-4 4-4 4 1.791 4 4-1.791 4-4 4zM22.405 8.155c-0.795 0-1.44 0.645-1.44 1.44s0.645 1.44 1.44 1.44c0.795 0 1.44-0.645 1.44-1.44s-0.644-1.44-1.44-1.44z"></path>
</svg>
