<svg version="1.1" xmlns="http://www.w3.org/2000/svg" xmlns:xlink="http://www.w3.org/1999/xlink" width="41" height="32" viewBox="0 0 41 32">
<path d="M19.982 6.089q-2.286-1.518-5.018-1.518-1.839 0-3.527 0.723t-2.902 1.938-1.938 2.893-0.723 3.518q0 1.857 0.723 3.536t1.938 2.893 2.893 1.938 3.536 0.723q2.732 0 5.018-1.518-2.339-1.911-3.179-4.741t0.009-5.652 3.17-4.732zM20.571 6.518q-2.25 1.768-3.071 4.455t-0.009 5.366 3.080 4.446q2.268-1.768 3.080-4.446t-0.009-5.366-3.071-4.455zM21.161 6.089q2.321 1.911 3.17 4.741t0.009 5.661-3.179 4.723q2.286 1.518 5.018 1.518 1.857 0 3.536-0.723t2.893-1.938 1.938-2.893 0.723-3.536q0-1.839-0.723-3.518t-1.938-2.893-2.902-1.938-3.527-0.723q-2.732 0-5.018 1.518zM34.393 18.982h0.125v-0.054h-0.304v0.054h0.125v0.304h0.054v-0.304zM34.911 19.286h0.071v-0.357h-0.089l-0.107 0.232-0.107-0.232h-0.089v0.357h0.054v-0.268l0.107 0.232h0.071l0.089-0.232v0.268zM34.768 27.143v0.036h-0.089v-0.054h0.089v0.018zM34.768 27.304h0.054l-0.071-0.089h0.036l0.018-0.018q0.018-0.018 0.018-0.054t-0.018-0.054l-0.018-0.018h-0.161v0.232h0.054v-0.089h0.018zM12.232 26.089q0-0.339 0.196-0.554t0.536-0.214q0.321 0 0.518 0.223t0.196 0.545q0 0.339-0.196 0.554t-0.518 0.214q-0.339 0-0.536-0.214t-0.196-0.554zM20.679 25.304q0.536 0 0.625 0.571h-1.25q0.089-0.571 0.625-0.571zM27.036 26.089q0-0.339 0.196-0.554t0.518-0.214 0.527 0.223 0.205 0.545q0 0.339-0.196 0.554t-0.536 0.214q-0.321 0-0.518-0.214t-0.196-0.554zM31.893 26.089q0-0.321 0.205-0.545t0.527-0.223 0.527 0.223 0.205 0.545q0 0.339-0.205 0.554t-0.527 0.214-0.527-0.223-0.205-0.545zM34.714 27.375q-0.036 0-0.071-0.018-0.018 0-0.054-0.036t-0.036-0.054q-0.018-0.036-0.018-0.071 0-0.054 0.018-0.071 0-0.036 0.036-0.071l0.018-0.018q0.036 0 0.036-0.018 0.036-0.018 0.071-0.018 0.054 0 0.071 0.018l0.071 0.036 0.036 0.071v0.018q0.018 0.036 0.018 0.054l-0.018 0.018v0.054t-0.018 0.018l-0.018 0.036q-0.036 0.036-0.071 0.036-0.018 0.018-0.071 0.018zM10.696 27.304h0.536v-1.518q0-0.429-0.259-0.688t-0.705-0.277q-0.571 0-0.839 0.429-0.25-0.429-0.804-0.429-0.429 0-0.696 0.357v-0.286h-0.536v2.411h0.536v-1.339q0-0.643 0.589-0.643 0.536 0 0.536 0.643v1.339h0.518v-1.339q0-0.643 0.589-0.643 0.536 0 0.536 0.643v1.339zM13.661 27.304h0.518v-2.411h-0.518v0.286q-0.304-0.357-0.768-0.357-0.518 0-0.857 0.357t-0.339 0.911 0.339 0.911 0.857 0.357q0.5 0 0.768-0.357v0.304zM16.839 26.571q0-0.607-0.839-0.714l-0.25-0.036q-0.411-0.071-0.411-0.25 0-0.268 0.446-0.268 0.411 0 0.768 0.196l0.214-0.429q-0.393-0.25-0.982-0.25-0.464 0-0.732 0.214t-0.268 0.571q0 0.589 0.839 0.696l0.232 0.036q0.429 0.071 0.429 0.25 0 0.304-0.554 0.304-0.446 0-0.804-0.25l-0.232 0.411q0.446 0.304 1.036 0.304 0.518 0 0.813-0.214t0.295-0.571zM19.161 27.179l-0.143-0.446q-0.232 0.125-0.464 0.125-0.339 0-0.339-0.393v-1.089h0.857v-0.482h-0.857v-0.732h-0.536v0.732h-0.5v0.482h0.5v1.089q0 0.893 0.839 0.893 0.375 0 0.643-0.179zM20.696 24.821q-0.518 0-0.857 0.357t-0.339 0.911q0 0.571 0.348 0.92t0.884 0.348q0.589 0 0.982-0.339l-0.25-0.393q-0.321 0.268-0.696 0.268-0.607 0-0.732-0.589h1.804v-0.214q0-0.571-0.321-0.92t-0.821-0.348zM23.536 24.821q-0.411 0-0.625 0.357v-0.286h-0.536v2.411h0.536v-1.357q0-0.625 0.518-0.625 0.179 0 0.321 0.071l0.161-0.5q-0.161-0.071-0.375-0.071zM24.071 26.089q0 0.554 0.348 0.911t0.938 0.357q0.518 0 0.857-0.286l-0.25-0.429q-0.321 0.232-0.625 0.214-0.321 0-0.527-0.214t-0.205-0.554 0.205-0.554 0.527-0.214q0.339 0 0.625 0.214l0.25-0.429q-0.357-0.286-0.857-0.286-0.589 0-0.938 0.357t-0.348 0.911zM28.446 27.304h0.536v-2.411h-0.536v0.286q-0.268-0.357-0.75-0.357-0.518 0-0.866 0.357t-0.348 0.911 0.348 0.911 0.866 0.357q0.5 0 0.75-0.357v0.304zM30.821 24.821q-0.411 0-0.625 0.357v-0.286h-0.518v2.411h0.518v-1.357q0-0.625 0.518-0.625 0.179 0 0.321 0.071l0.161-0.5q-0.143-0.071-0.375-0.071zM33.321 27.304h0.518v-3.393h-0.518v1.268q-0.268-0.357-0.768-0.357t-0.848 0.366-0.348 0.902 0.348 0.902 0.848 0.366q0.518 0 0.768-0.357v0.304zM34.714 26.946l-0.036 0.018h-0.054q-0.036 0.018-0.071 0.054-0.054 0.018-0.054 0.071-0.018 0.036-0.018 0.107 0 0.054 0.018 0.089 0 0.036 0.054 0.071 0.036 0.036 0.071 0.054t0.089 0.018q0.071 0 0.107-0.018 0-0.018 0.036-0.036l0.036-0.018q0.018-0.018 0.054-0.071 0.018-0.036 0.018-0.089 0-0.071-0.018-0.107-0.018-0.018-0.054-0.071 0-0.018-0.036-0.036l-0.036-0.018q-0.018 0-0.054-0.009t-0.054-0.009zM41.143 4.571v22.857q0 0.929-0.679 1.607t-1.607 0.679h-36.571q-0.929 0-1.607-0.679t-0.679-1.607v-22.857q0-0.929 0.679-1.607t1.607-0.679h36.571q0.929 0 1.607 0.679t0.679 1.607z"></path>
</svg>
