<svg version="1.1" xmlns="http://www.w3.org/2000/svg" xmlns:xlink="http://www.w3.org/1999/xlink" width="32" height="32" viewBox="0 0 32 32">
<path d="M25.333 4h-18.667c-1.473 0-2.667 1.193-2.667 2.667v18.667c0 1.473 1.193 2.667 2.667 2.667h18.667c1.473 0 2.667-1.193 2.667-2.667v-18.667c0-1.473-1.193-2.667-2.667-2.667zM19.893 18.921c-0.511 0.255-1.157 0.451-1.745 0.451-0.647 0-1.333-0.020-1.941-0.313v1.333c0 1.725-0.745 2.764-2.549 2.764-0.511 0-1.491-0.157-1.784-0.627v-2.119c0.275 0.313 0.705 0.529 1.137 0.529 0.471 0 0.745-0.273 0.745-0.745v-7.333h2.452v4.313c0.412 0.137 0.824 0.196 1.255 0.196 1.569 0 2.883-1.059 2.883-2.707 0-2.569-2.216-3.568-4.491-3.568-2.119 0-4.315 1.235-4.315 3.588 0 0.725 0.157 1.313 0.667 1.844l-1.785 1.529c-0.98-1.079-1.216-1.941-1.216-3.373 0-3.725 3.099-5.843 6.569-5.843 3.511 0 7.020 1.804 7.020 5.725 0 1.963-1.157 3.532-2.901 4.355z"></path>
</svg>
