<svg version="1.1" xmlns="http://www.w3.org/2000/svg" xmlns:xlink="http://www.w3.org/1999/xlink" width="32" height="32" viewBox="0 0 32 32">
<path d="M22.921 21.84c-0.903 0.451-2.049 0.799-3.091 0.799-1.145 0-2.361-0.035-3.436-0.555v2.361c0 3.053-1.319 4.895-4.513 4.895-0.903 0-2.64-0.279-3.16-1.111v-3.751c0.485 0.555 1.249 0.937 2.013 0.937 0.833 0 1.319-0.485 1.319-1.32v-12.984h4.34v7.637c0.728 0.243 1.459 0.347 2.221 0.347 2.777 0 5.104-1.875 5.104-4.792 0-4.548-3.924-6.317-7.951-6.317-3.751 0-7.639 2.187-7.639 6.352 0 1.285 0.279 2.327 1.181 3.264l-3.16 2.708c-1.735-1.909-2.151-3.436-2.151-5.971 0-6.596 5.485-10.345 11.629-10.345 6.215 0 12.429 3.193 12.429 10.137 0.001 3.472-2.047 6.249-5.137 7.708z"></path>
</svg>
