<svg version="1.1" xmlns="http://www.w3.org/2000/svg" xmlns:xlink="http://www.w3.org/1999/xlink" width="32" height="32" viewBox="0 0 32 32">
<path d="M16.385 2.667c-7.563 0-11.577 4.864-11.577 10.163 0 2.461 1.367 5.528 3.555 6.504 0.333 0.148 0.508 0.084 0.585-0.225 0.059-0.233 0.356-1.372 0.487-1.904 0.043-0.171 0.023-0.316-0.121-0.483-0.72-0.84-1.3-2.388-1.3-3.831 0-3.703 2.925-7.285 7.911-7.285 4.307 0 7.32 2.811 7.32 6.829 0 4.543-2.392 7.691-5.507 7.691-1.721 0-3.009-1.361-2.597-3.036 0.496-1.993 1.452-4.149 1.452-5.588 0-1.289-0.723-2.367-2.217-2.367-1.759 0-3.172 1.745-3.172 4.079 0 1.487 0.525 2.492 0.525 2.492s-1.736 7.039-2.053 8.348c-0.54 2.221 0.071 5.824 0.125 6.139 0.028 0.168 0.223 0.225 0.333 0.084 0.172-0.22 2.265-3.225 2.856-5.401 0.211-0.787 1.089-3.993 1.089-3.993 0.573 1.045 2.241 1.928 4.017 1.928 5.284 0 9.096-4.659 9.096-10.444 0-5.549-4.727-9.699-10.807-9.699z"></path>
</svg>
