<svg version="1.1" xmlns="http://www.w3.org/2000/svg" xmlns:xlink="http://www.w3.org/1999/xlink" width="32" height="32" viewBox="0 0 32 32">
<path d="M16 2.667c-7.351 0-13.333 5.983-13.333 13.333 0 7.352 5.983 13.333 13.333 13.333 7.352 0 13.333-5.981 13.333-13.333 0-7.351-5.981-13.333-13.333-13.333zM17.321 4.907c3.148 0.112 6.209 1.668 8.263 4.181 0.377 0.445 0.721 0.924 1.032 1.423-1.903-2.388-4.836-3.92-8.125-3.92-3.143 0-5.956 1.396-7.861 3.604-0.008 0.004-0.013 0.013-0.021 0.019-0.067 0.071-0.133 0.141-0.203 0.212-0.013 0.015-0.027 0.028-0.041 0.043-1.349 1.461-2.177 3.412-2.177 5.553 0 4.516 3.675 8.191 8.191 8.191 0.76 0 1.497-0.108 2.199-0.303-2.465 1.119-5.508 0.996-7.901-0.432-2.455-1.452-4.228-4.148-4.577-7.084-0.392-2.94 0.644-6.064 2.823-8.211 2.139-2.183 5.259-3.432 8.401-3.276zM21.819 16.265c-0.065-2.699-2.116-5.185-4.725-5.565-2.569-0.457-5.223 1.143-5.935 3.548-0.361 1.177-0.253 2.463 0.267 3.537 0.52 1.067 1.423 1.935 2.525 2.345 2.219 0.872 4.84-0.36 5.564-2.484 0.791-2.107-0.528-4.564-2.587-5.035-2.027-0.543-4.215 1.009-4.272 2.991-0.068 0.955 0.337 1.895 1.004 2.505 0.668 0.635 1.64 0.889 2.495 0.705 0.861-0.169 1.6-0.743 1.959-1.512 0.36-0.768 0.292-1.675-0.116-2.356-0.396-0.684-1.145-1.151-1.905-1.175-0.761-0.039-1.493 0.328-1.916 0.905-0.435 0.581-0.507 1.368-0.24 1.985 0.005 0.015 0.013 0.028 0.021 0.040 0.257 0.845 1.032 1.467 1.956 1.489-0.439 0.052-0.899-0.025-1.293-0.244-0.621-0.325-1.079-0.996-1.191-1.72-0.111-0.725 0.12-1.516 0.665-2.052 0.532-0.551 1.319-0.868 2.107-0.808 0.791 0.053 1.545 0.467 2.023 1.145 0.485 0.661 0.68 1.541 0.511 2.364-0.155 0.827-0.705 1.565-1.457 2.019-0.743 0.453-1.685 0.605-2.552 0.381-0.867-0.215-1.635-0.808-2.112-1.608-0.48-0.793-0.653-1.784-0.455-2.708 0.191-0.933 0.764-1.761 1.568-2.337 1.591-1.177 4.075-1.001 5.475 0.548 1.475 1.467 1.769 4.036 0.541 5.828-1.169 1.835-3.653 2.781-5.832 2.125-2.185-0.599-3.884-2.772-4.041-5.137-0.093-1.179 0.173-2.396 0.777-3.436 0.593-1.036 1.54-1.909 2.629-2.483 2.187-1.173 5.088-0.991 7.132 0.565 1.668 1.232 2.777 3.227 2.981 5.345 0 0.015 0.001 0.028 0.001 0.040 0 3.867-3.145 7.013-7.013 7.013-0.916 0-1.792-0.179-2.596-0.501 1.155 0.276 2.369 0.235 3.484-0.105 1.341-0.405 2.525-1.236 3.352-2.335 0.824-1.104 1.267-2.481 1.201-3.825zM16 28.151c-6.699 0-12.148-5.449-12.148-12.151 0-6.385 4.951-11.631 11.215-12.108-0.177 0.021-0.355 0.048-0.529 0.080-3.525 0.604-6.689 2.808-8.427 5.879-1.745 3.068-1.855 6.92-0.4 10.036 1.408 3.12 4.337 5.541 7.701 6.071 3.329 0.587 6.844-0.644 9.049-3.068 2.292-2.396 3.025-6.039 1.981-9.061-0.777-2.413-2.635-4.441-4.933-5.395 4.556 0.792 8.232 4.295 8.232 9.041 0 1.339-0.321 2.693-0.876 3.955-1.997 3.979-6.115 6.721-10.865 6.721z"></path>
</svg>
