<svg version="1.1" xmlns="http://www.w3.org/2000/svg" xmlns:xlink="http://www.w3.org/1999/xlink" width="32" height="32" viewBox="0 0 32 32">
<path d="M12 21.333h8v2.667h-8v-2.667zM29.333 22.667h-4v4c0 1.473-1.193 2.667-2.667 2.667h-13.333c-1.473 0-2.667-1.193-2.667-2.667v-4h-4v-10.667c0-1.473 1.193-2.667 2.667-2.667h1.333v-2.667c0-1.473 1.193-2.667 2.667-2.667h13.333c1.473 0 2.667 1.193 2.667 2.667v2.667h1.333c1.473 0 2.667 1.193 2.667 2.667v10.667zM9.333 9.333h13.333v-2.667h-13.333v2.667zM22.667 18.667h-13.333v8h13.333v-8zM26.667 14c0-1.104-0.896-2-2-2s-2 0.896-2 2 0.896 2 2 2 2-0.896 2-2z"></path>
</svg>
