<svg version="1.1" xmlns="http://www.w3.org/2000/svg" xmlns:xlink="http://www.w3.org/1999/xlink" width="32" height="32" viewBox="0 0 32 32">
<path d="M29.333 15.755c0-1.675-1.361-3.036-3.036-3.036-0.791 0-1.496 0.32-2.035 0.819-1.975-1.287-4.607-2.125-7.529-2.253l1.561-4.936 4.24 0.997c0.011 1.371 1.128 2.483 2.501 2.483 1.38 0 2.503-1.123 2.503-2.504 0-1.38-1.123-2.503-2.503-2.503-1.025 0-1.908 0.621-2.293 1.507l-4.677-1.101c-0.271-0.063-0.532 0.089-0.613 0.348l-1.8 5.691c-3.088 0.051-5.881 0.893-7.96 2.228-0.535-0.473-1.221-0.775-1.989-0.775-1.675 0-3.036 1.361-3.036 3.036 0 1.085 0.577 2.031 1.437 2.567-0.049 0.295-0.081 0.592-0.081 0.896 0 4.389 5.348 7.96 11.921 7.96s11.921-3.571 11.921-7.96c0-0.285-0.027-0.565-0.071-0.843 0.916-0.521 1.539-1.493 1.539-2.62zM25.035 5.859c0.808 0 1.467 0.657 1.467 1.467s-0.657 1.467-1.467 1.467-1.467-0.659-1.467-1.467 0.657-1.467 1.467-1.467zM3.703 15.755c0-1.103 0.896-2 1.999-2 0.417 0 0.797 0.137 1.117 0.359-1.135 0.901-1.969 1.972-2.416 3.147-0.425-0.364-0.7-0.9-0.7-1.505zM15.945 26.141c-6.001 0-10.885-3.105-10.885-6.924s4.883-6.924 10.885-6.924 10.885 3.105 10.885 6.924-4.884 6.924-10.885 6.924zM27.515 17.335c-0.435-1.187-1.264-2.268-2.396-3.179 0.331-0.248 0.733-0.401 1.177-0.401 1.103 0 2 0.897 2 2 0.001 0.644-0.307 1.215-0.781 1.58zM11.995 19.605c-1.013 0-1.863-0.821-1.863-1.835s0.849-1.863 1.863-1.863c1.013 0 1.835 0.849 1.835 1.863s-0.821 1.835-1.835 1.835zM21.868 17.771c0 1.013-0.821 1.835-1.835 1.835s-1.865-0.821-1.865-1.835c0-1.013 0.852-1.863 1.865-1.863s1.835 0.849 1.835 1.863zM20.305 22.277c0.203 0.203 0.203 0.531 0 0.733-0.899 0.899-2.303 1.336-4.292 1.336-0.005 0-0.009-0.003-0.015-0.003s-0.009 0.003-0.015 0.003c-1.989 0-3.392-0.437-4.291-1.336-0.203-0.203-0.203-0.531 0-0.733s0.532-0.201 0.733 0c0.695 0.695 1.859 1.033 3.559 1.033 0.005 0 0.009 0.003 0.015 0.003s0.009-0.003 0.015-0.003c1.7 0 2.864-0.337 3.559-1.033 0.201-0.203 0.531-0.203 0.732 0z"></path>
</svg>
