<svg version="1.1" xmlns="http://www.w3.org/2000/svg" xmlns:xlink="http://www.w3.org/1999/xlink" width="32" height="32" viewBox="0 0 32 32">
<path d="M16 2.667c-7.364 0-13.333 5.969-13.333 13.333s5.969 13.333 13.333 13.333c7.364 0 13.333-5.969 13.333-13.333s-5.969-13.333-13.333-13.333zM22.115 21.899c-0.24 0.393-0.751 0.516-1.143 0.276-3.131-1.913-7.072-2.347-11.713-1.285-0.447 0.103-0.893-0.177-0.995-0.625-0.103-0.447 0.176-0.893 0.625-0.995 5.079-1.161 9.436-0.661 12.951 1.487 0.391 0.239 0.515 0.751 0.275 1.143zM23.747 18.267c-0.301 0.489-0.941 0.643-1.429 0.343-3.583-2.203-9.047-2.841-13.287-1.555-0.551 0.168-1.131-0.143-1.297-0.691-0.167-0.551 0.144-1.131 0.693-1.297 4.843-1.469 10.863-0.757 14.979 1.771 0.488 0.301 0.641 0.943 0.341 1.429zM23.887 14.487c-4.297-2.552-11.387-2.787-15.491-1.541-0.657 0.2-1.355-0.172-1.555-0.831-0.199-0.66 0.172-1.356 0.832-1.556 4.709-1.429 12.539-1.153 17.487 1.784 0.593 0.352 0.787 1.117 0.436 1.709-0.352 0.592-1.117 0.787-1.709 0.435z"></path>
</svg>
