<svg version="1.1" xmlns="http://www.w3.org/2000/svg" xmlns:xlink="http://www.w3.org/1999/xlink" width="32" height="32" viewBox="0 0 32 32">
<path d="M16 5.725c-3.292 0-5.961 2.669-5.961 5.961v8.471c0 0.78-0.632 1.412-1.412 1.412s-1.412-0.632-1.412-1.412v-3.765h-4.548v3.921c0 3.292 2.669 5.961 5.961 5.961s5.961-2.669 5.961-5.961v-8.627c0-0.78 0.632-1.412 1.412-1.412s1.412 0.632 1.412 1.412v1.725l1.883 0.863 2.667-0.863v-1.725c-0.001-3.292-2.671-5.961-5.963-5.961zM17.412 16.471v3.843c0 3.292 2.669 5.961 5.961 5.961s5.96-2.669 5.96-5.961v-3.765h-4.549v3.765c0 0.78-0.632 1.412-1.412 1.412s-1.412-0.632-1.412-1.412v-3.843l-2.667 0.863-1.881-0.863z"></path>
</svg>
