<svg version="1.1" xmlns="http://www.w3.org/2000/svg" xmlns:xlink="http://www.w3.org/1999/xlink" width="32" height="32" viewBox="0 0 32 32">
<path d="M16 2.667c-7.364 0-13.333 5.969-13.333 13.333s5.969 13.333 13.333 13.333 13.333-5.969 13.333-13.333-5.969-13.333-13.333-13.333zM20.107 22.343c0 0-0.333 0.833-1.248 0.433l-3.388-2.599-2.173 1.981c0 0-0.169 0.128-0.355 0.048 0 0-0.16-0.015-0.36-0.648s-1.215-3.963-1.215-3.963l-3.368-1.131c0 0-0.516-0.183-0.567-0.584-0.049-0.4 0.583-0.616 0.583-0.616l13.373-5.245c0 0 1.099-0.483 1.099 0.317l-2.381 12.005z"></path>
</svg>
