<svg version="1.1" xmlns="http://www.w3.org/2000/svg" xmlns:xlink="http://www.w3.org/1999/xlink" width="32" height="32" viewBox="0 0 32 32">
<path d="M25.333 4h-18.667c-1.473 0-2.667 1.193-2.667 2.667v18.667c0 1.473 1.193 2.667 2.667 2.667h18.667c1.473 0 2.667-1.193 2.667-2.667v-18.667c0-1.473-1.193-2.667-2.667-2.667zM17.908 23.020c-3.261 0.056-4.496-2.323-4.496-3.997v-4.891h-1.515v-1.933c2.271-0.819 2.817-2.867 2.945-4.033 0.009-0.080 0.072-0.112 0.108-0.112s2.193 0 2.193 0v3.813h2.995v2.267h-3.005v4.66c0.011 0.635 0.243 1.508 1.441 1.476 0.397-0.011 0.929-0.125 1.208-0.259l0.72 2.135c-0.273 0.395-1.495 0.855-2.595 0.875z"></path>
</svg>
