<svg version="1.1" xmlns="http://www.w3.org/2000/svg" xmlns:xlink="http://www.w3.org/1999/xlink" width="32" height="32" viewBox="0 0 32 32">
<path d="M25.333 4h-18.667c-1.473 0-2.667 1.193-2.667 2.667v18.667c0 1.473 1.193 2.667 2.667 2.667h18.667c1.473 0 2.667-1.193 2.667-2.667v-18.667c0-1.473-1.193-2.667-2.667-2.667zM21.955 12.947c0.005 0.132 0.009 0.264 0.009 0.397 0 4.060-3.091 8.741-8.741 8.741-1.735 0-3.349-0.508-4.709-1.38 0.24 0.028 0.485 0.043 0.733 0.043 1.439 0 2.764-0.491 3.816-1.315-1.344-0.025-2.479-0.913-2.869-2.133 0.188 0.036 0.38 0.055 0.577 0.055 0.28 0 0.552-0.037 0.809-0.108-1.405-0.283-2.464-1.524-2.464-3.012 0-0.013 0-0.025 0-0.039 0.415 0.231 0.888 0.368 1.392 0.384-0.824-0.551-1.367-1.491-1.367-2.557 0-0.563 0.152-1.091 0.416-1.544 1.515 1.859 3.779 3.081 6.332 3.209-0.052-0.225-0.080-0.459-0.080-0.7 0-1.696 1.376-3.072 3.072-3.072 0.884 0 1.681 0.373 2.243 0.971 0.7-0.137 1.357-0.393 1.951-0.745-0.229 0.717-0.716 1.32-1.351 1.7 0.621-0.075 1.213-0.24 1.764-0.484-0.413 0.615-0.933 1.156-1.533 1.589z"></path>
</svg>
