<svg version="1.1" xmlns="http://www.w3.org/2000/svg" xmlns:xlink="http://www.w3.org/1999/xlink" width="32" height="32" viewBox="0 0 32 32">
<path d="M16 14.8q-0.736 0-1.384-0.304t-1.080-0.792-0.784-1.072-0.552-1.168-0.336-1.072-0.184-0.792l-0.048-0.304q-0.096-0.88-0.048-1.736t0.392-1.648 0.848-1.392 1.32-0.96 1.808-0.36q1.648 0 2.736 0.944t1.456 2.304 0.144 2.848q-0.016 0.112-0.048 0.312t-0.168 0.768-0.328 1.088-0.536 1.16-0.768 1.096-1.064 0.768-1.376 0.312zM16 18.912l4.352-2.912q1.856 0 3.544 1.072t2.688 2.752 1 3.424v3.984q-0.24 0.080-0.664 0.2t-1.744 0.432-2.632 0.552-3.12 0.432-3.424 0.192q-2.592 0-5.488-0.456t-4.496-0.904l-1.6-0.448v-3.984q0-1.792 0.928-3.44t2.6-2.688 3.624-1.040z"></path>
</svg>
