<svg version="1.1" xmlns="http://www.w3.org/2000/svg" xmlns:xlink="http://www.w3.org/1999/xlink" width="32" height="32" viewBox="0 0 32 32">
<path d="M2.731 29.333l1.875-6.848c-1.156-2.004-1.765-4.277-1.764-6.607 0.003-7.284 5.931-13.212 13.215-13.212 3.535 0.001 6.853 1.377 9.348 3.875s3.868 5.817 3.867 9.348c-0.003 7.285-5.931 13.213-13.213 13.213 0 0 0 0 0 0h-0.005c-2.212-0.001-4.384-0.556-6.315-1.608l-7.007 1.839zM10.060 25.104l0.401 0.239c1.687 1.001 3.619 1.531 5.591 1.531h0.004c6.053 0 10.98-4.927 10.983-10.983 0.001-2.935-1.14-5.695-3.213-7.771s-4.831-3.22-7.765-3.221c-6.059 0-10.985 4.927-10.988 10.983-0.001 2.075 0.58 4.096 1.679 5.845l0.261 0.416-1.109 4.053 4.157-1.092zM22.713 19.032c-0.083-0.137-0.303-0.22-0.633-0.385s-1.953-0.964-2.256-1.075c-0.303-0.111-0.523-0.165-0.743 0.165s-0.853 1.075-1.045 1.295c-0.192 0.22-0.385 0.248-0.715 0.083-0.331-0.165-1.395-0.513-2.655-1.639-0.981-0.876-1.644-1.957-1.837-2.287-0.192-0.331-0.020-0.509 0.145-0.673 0.148-0.148 0.331-0.385 0.495-0.579 0.165-0.193 0.22-0.331 0.331-0.551s0.055-0.413-0.028-0.579c-0.083-0.165-0.743-1.791-1.017-2.452-0.269-0.644-0.543-0.556-0.745-0.567-0.192-0.009-0.413-0.012-0.633-0.012s-0.577 0.083-0.88 0.413c-0.301 0.331-1.155 1.129-1.155 2.755s1.183 3.195 1.348 3.416c0.165 0.22 2.328 3.555 5.64 4.985 0.788 0.34 1.403 0.544 1.883 0.696 0.791 0.252 1.511 0.216 2.080 0.131 0.635-0.095 1.953-0.799 2.228-1.569 0.275-0.773 0.275-1.433 0.193-1.572z"></path>
</svg>
