<svg version="1.1" xmlns="http://www.w3.org/2000/svg" xmlns:xlink="http://www.w3.org/1999/xlink" width="32" height="32" viewBox="0 0 32 32">
<path d="M16.211 17.048l-3.597 10.452c1.075 0.316 2.209 0.488 3.387 0.488 1.396 0 2.735-0.241 3.981-0.68-0.032-0.051-0.061-0.105-0.087-0.165l-3.684-10.095zM4.012 16c0 4.745 2.757 8.845 6.756 10.789l-5.717-15.668c-0.665 1.491-1.039 3.14-1.039 4.879zM24.092 15.395c0-1.483-0.532-2.508-0.988-3.307-0.608-0.988-1.177-1.824-1.177-2.812 0-1.101 0.836-2.128 2.013-2.128 0.053 0 0.104 0.007 0.155 0.009-2.132-1.952-4.975-3.145-8.095-3.145-4.188 0-7.872 2.149-10.016 5.403 0.281 0.009 0.547 0.015 0.772 0.015 1.253 0 3.195-0.152 3.195-0.152 0.645-0.037 0.721 0.912 0.076 0.988 0 0-0.649 0.076-1.372 0.113l4.365 12.985 2.624-7.868-1.868-5.117c-0.645-0.037-1.257-0.113-1.257-0.113-0.647-0.039-0.571-1.025 0.076-0.988 0 0 1.979 0.152 3.157 0.152 1.253 0 3.196-0.152 3.196-0.152 0.647-0.037 0.723 0.912 0.076 0.988 0 0-0.651 0.076-1.372 0.113l4.332 12.887 1.196-3.995c0.608-1.559 0.912-2.849 0.912-3.876zM26.519 10.248c0.052 0.381 0.080 0.791 0.080 1.232 0 1.216-0.228 2.584-0.912 4.293l-3.661 10.587c3.564-2.077 5.96-5.939 5.96-10.361 0.003-2.084-0.531-4.043-1.467-5.751zM16 29.333c-7.352 0-13.333-5.981-13.333-13.333s5.981-13.333 13.333-13.333c7.352 0 13.333 5.981 13.333 13.333s-5.981 13.333-13.333 13.333z"></path>
</svg>
