<?xml version="1.0" standalone="no"?>
<!DOCTYPE svg PUBLIC "-//W3C//DTD SVG 1.1//EN" "http://www.w3.org/Graphics/SVG/1.1/DTD/svg11.dtd" >
<svg xmlns="http://www.w3.org/2000/svg">
<metadata>Generated by IcoMoon</metadata>
<defs>
<font id="esocons" horiz-adv-x="1024">
<font-face units-per-em="1024" ascent="960" descent="-64" />
<missing-glyph horiz-adv-x="1024" />
<glyph unicode="&#x20;" horiz-adv-x="512" d="" />
<glyph unicode="&#xe900;" glyph-name="facebook" d="M853.632 832h-683.264c-23.381 0-42.368-18.987-42.368-42.368v-683.221c0-23.424 18.987-42.411 42.368-42.411h367.829v297.429h-100.096v115.925h100.096v85.419c0 99.2 60.587 153.216 149.077 153.216 42.368 0 78.805-3.157 89.429-4.565v-103.68l-61.355-0.043c-48.128 0-57.429-22.869-57.429-56.448v-73.984h114.773l-14.933-115.925h-99.84v-297.344h195.712c23.381 0 42.368 18.987 42.368 42.368v683.264c0 23.381-18.987 42.368-42.368 42.368z" />
<glyph unicode="&#xe901;" glyph-name="feed" d="M85.333 590.208v-142.208c235.307 0 426.667-191.36 426.667-426.667h142.208c0 314.155-254.72 568.875-568.875 568.875zM85.333 874.667v-142.208c392.107 0 711.125-319.019 711.125-711.125h142.208c0 471.253-382.080 853.333-853.333 853.333zM192 234.667c-58.965 0-106.667-47.787-106.667-106.667s47.701-106.667 106.667-106.667 106.667 47.787 106.667 106.667-47.701 106.667-106.667 106.667z" />
<glyph unicode="&#xe902;" glyph-name="flickr" d="M277.333 661.333c-117.333 0-213.333-96-213.333-213.333s96-213.333 213.333-213.333 213.333 96 213.333 213.333-96 213.333-213.333 213.333zM746.667 661.333c-117.333 0-213.333-96-213.333-213.333s96-213.333 213.333-213.333 213.333 96 213.333 213.333-96 213.333-213.333 213.333z" />
<glyph unicode="&#xe903;" glyph-name="foursquare" d="M749.781 874.667c0 0-392.405 0-455.168 0s-81.28-47.232-81.28-77.013 0-723.115 0-723.115c0-33.493 18.005-45.952 28.16-50.005 10.155-4.139 38.059-7.552 54.827 11.733 0 0 214.827 249.301 218.539 253.013 5.632 5.632 5.632 5.632 11.179 5.632h139.093c58.368 0 67.755 41.685 73.899 66.219 3.328 13.568 29.525 146.261 52.267 261.205l28.8 143.701c14.464 70.528-3.456 108.629-70.315 108.629zM703.787 651.947c-2.261-10.752-15.872-22.101-28.373-22.101s-177.365 0-177.365 0c-19.925 0-34.219-13.568-34.219-33.579v-21.675c0-19.925 14.379-34.048 34.347-34.048 0 0 136.405 0 150.528 0s27.947-15.445 24.875-30.507c-3.072-15.061-17.365-89.685-19.115-97.92-1.707-8.235-11.179-22.315-27.947-22.315-14.080 0-122.88 0-122.88 0-22.315 0-29.141-2.901-44.075-21.461-14.933-18.645-149.547-180.181-149.547-180.181-1.365-1.493-2.688-1.152-2.688 0.64v564.181c0 12.715 11.093 27.648 27.648 27.648 0 0 351.061 0 365.312 0 13.44 0 26.027-12.672 22.528-29.141l-19.029-99.541z" />
<glyph unicode="&#xe904;" glyph-name="ghost" d="M435.328 64.128h-307.115v153.557h307.115v-153.557zM895.787 217.685h-306.901v-153.557h306.901v153.557zM895.915 524.8h-767.915v-153.557h767.915v153.557zM588.928 831.872h-460.715v-153.557h460.715v153.557zM896 831.872h-153.557v-153.557h153.557v153.557z" />
<glyph unicode="&#xe905;" glyph-name="github" d="M512 874.667c-235.648 0-426.667-191.019-426.667-426.667 0-188.544 122.24-348.416 291.797-404.864 21.333-3.84 29.099 9.301 29.099 20.651 0 10.069-0.384 36.949-0.597 72.491-118.699-25.685-143.744 57.173-143.744 57.173-19.413 49.365-47.36 62.507-47.36 62.507-38.784 26.453 2.944 25.941 2.944 25.941 42.837-3.029 65.365-43.947 65.365-43.947 38.016-65.237 99.883-46.464 124.16-35.541 3.883 27.605 14.891 46.336 27.093 57.045-94.72 10.709-194.347 47.403-194.347 210.901 0 46.549 16.64 84.651 43.947 114.432-4.395 10.837-19.072 54.187 4.139 112.896 0 0 35.84 11.477 117.333-43.733 34.091 9.515 70.571 14.208 106.837 14.379 36.267-0.171 72.747-4.864 106.837-14.336 81.451 55.211 117.248 43.733 117.248 43.733 23.296-58.709 8.619-102.144 4.267-112.896 27.307-29.824 43.776-67.883 43.776-114.432 0-163.883-99.712-199.979-194.773-210.56 15.317-13.099 28.971-39.125 28.971-79.019 0-56.96-0.512-103.040-0.512-116.949 0-11.477 7.68-24.704 29.355-20.523 169.387 56.448 291.499 216.235 291.499 404.651 0 235.648-191.019 426.667-426.667 426.667z" />
<glyph unicode="&#xe906;" glyph-name="google" d="M512.853 525.653v-159.147h235.093c-11.093-66.987-71.253-180.053-234.667-180.053-141.227 0-256.427 117.333-256.427 261.12s115.2 261.12 256.427 261.12c79.787 0 133.547-34.133 164.267-63.147l121.173 117.76c-73.813 69.12-170.24 111.36-285.44 111.36-235.52 0-426.667-191.147-426.667-426.667s191.147-426.667 426.667-426.667c246.187 0 409.6 173.227 409.6 416.853 0 35.413-4.693 60.587-10.667 87.467h-399.36z" />
<glyph unicode="&#xe907;" glyph-name="google-alt" d="M512 874.667c-235.648 0-426.667-191.019-426.667-426.667s191.019-426.667 426.667-426.667 426.667 191.019 426.667 426.667-191.019 426.667-426.667 426.667zM509.867 192c-141.312 0-256 114.688-256 256s114.688 256 256 256c69.12 0 126.976-25.344 171.264-66.816l-72.704-70.656c-18.432 17.408-50.688 37.888-98.56 37.888-84.736 0-153.856-70.4-153.856-156.672s69.12-156.672 153.856-156.672c98.048 0 134.144 67.84 140.8 108.032h-141.056v95.488h239.616c3.584-16.128 6.4-31.232 6.4-52.48 0-146.176-98.048-250.112-245.76-250.112z" />
<glyph unicode="&#xe908;" glyph-name="google-plus" d="M512 874.667c-235.648 0-426.667-191.019-426.667-426.667s191.019-426.667 426.667-426.667 426.667 191.019 426.667 426.667-191.019 426.667-426.667 426.667zM430.123 275.2c-95.403 0-172.8 77.397-172.8 172.8s77.397 172.8 172.8 172.8c46.677 0 85.717-17.109 115.584-45.099l-49.067-47.701c-12.459 11.733-34.219 25.557-66.517 25.557-57.216 0-103.851-47.531-103.851-105.771s46.677-105.771 103.851-105.771c66.176 0 90.539 45.781 95.019 72.917h-95.232v64.469h161.749c2.432-10.88 4.309-21.077 4.309-35.413 0.043-98.645-66.133-168.789-165.845-168.789zM810.667 416h-53.333v-53.333h-64v53.333h-53.333v64h53.333v53.333h64v-53.333h53.333v-64z" />
<glyph unicode="&#xe909;" glyph-name="google-plus-alt" d="M341.333 490.667h282.027c2.56-14.933 4.693-29.867 4.693-49.493 0-170.667-114.347-291.84-286.72-291.84-165.12 0-298.667 133.547-298.667 298.667s133.547 298.667 298.667 298.667c80.64 0 148.053-29.44 200.107-78.080l-81.067-78.080c-22.187 21.333-61.013 46.080-119.040 46.080-101.973 0-185.173-84.48-185.173-188.587s83.2-188.587 185.173-188.587c118.187 0 162.56 84.907 169.387 128.853h-169.387v102.4zM981.333 490.667h-85.333v85.333h-85.333v-85.333h-85.333v-85.333h85.333v-85.333h85.333v85.333h85.333z" />
<glyph unicode="&#xe90a;" glyph-name="instagram" d="M512 762.795c102.528 0 114.688-0.384 155.179-2.219 37.419-1.707 57.771-7.979 71.296-13.227 17.92-6.955 30.72-15.275 44.16-28.715s21.76-26.24 28.715-44.16c5.248-13.525 11.52-33.877 13.227-71.296 1.835-40.491 2.219-52.651 2.219-155.179s-0.384-114.688-2.219-155.179c-1.707-37.419-7.979-57.771-13.227-71.296-6.955-17.92-15.275-30.72-28.715-44.16s-26.24-21.76-44.16-28.715c-13.525-5.248-33.877-11.52-71.296-13.227-40.491-1.835-52.608-2.219-155.179-2.219s-114.688 0.384-155.179 2.219c-37.419 1.707-57.771 7.979-71.296 13.227-17.92 6.955-30.72 15.275-44.16 28.715s-21.76 26.24-28.715 44.16c-5.248 13.525-11.52 33.877-13.227 71.296-1.835 40.491-2.219 52.651-2.219 155.179s0.384 114.688 2.219 155.179c1.707 37.419 7.979 57.771 13.227 71.296 6.955 17.92 15.275 30.72 28.715 44.16s26.24 21.76 44.16 28.715c13.525 5.248 33.877 11.52 71.296 13.227 40.491 1.835 52.651 2.219 155.179 2.219zM512 832c-104.277 0-117.376-0.427-158.336-2.304-40.875-1.877-68.779-8.363-93.184-17.835-25.259-9.813-46.677-22.955-68.011-44.331-21.333-21.333-34.475-42.752-44.288-68.011-9.515-24.405-16-52.309-17.877-93.184-1.877-40.96-2.304-54.059-2.304-158.336s0.427-117.376 2.304-158.336c1.877-40.875 8.363-68.779 17.835-93.227 9.813-25.259 22.955-46.677 44.288-68.011s42.752-34.475 68.011-44.288c24.405-9.472 52.352-16 93.227-17.835 40.96-1.877 54.059-2.304 158.336-2.304s117.376 0.427 158.336 2.304c40.875 1.877 68.779 8.363 93.227 17.835 25.259 9.813 46.677 22.955 68.011 44.288s34.475 42.752 44.288 68.011c9.472 24.405 16 52.352 17.835 93.227 1.877 40.96 2.304 54.059 2.304 158.336s-0.427 117.376-2.304 158.336c-1.877 40.875-8.363 68.779-17.835 93.227-9.813 25.259-22.955 46.677-44.288 68.011s-42.752 34.475-68.011 44.288c-24.405 9.472-52.352 16-93.227 17.835-40.96 1.877-54.059 2.304-158.336 2.304v0zM512 645.205c-108.885 0-197.205-88.277-197.205-197.205s88.32-197.205 197.205-197.205 197.205 88.277 197.205 197.205-88.32 197.205-197.205 197.205zM512 320c-70.699 0-128 57.301-128 128s57.301 128 128 128 128-57.301 128-128-57.301-128-128-128zM716.971 699.051c-25.429 0-46.080-20.651-46.080-46.080s20.651-46.080 46.080-46.080c25.429 0 46.080 20.651 46.080 46.080s-20.608 46.080-46.080 46.080z" />
<glyph unicode="&#xe90b;" glyph-name="linkedin" d="M840.533 832h-657.067c-30.635 0-55.467-24.832-55.467-55.467v-657.067c0-30.635 24.832-55.467 55.467-55.467h657.067c30.635 0 55.467 24.832 55.467 55.467v657.067c0 30.635-24.832 55.467-55.467 55.467zM355.797 177.579h-114.005v366.507h114.005v-366.507zM298.837 594.176c-36.565 0-66.091 29.611-66.091 66.048 0 36.48 29.483 66.048 66.091 66.048 36.437 0 66.005-29.611 66.005-66.048 0-36.48-29.568-66.048-66.005-66.048zM782.464 177.579h-113.877v178.219c0 42.496-0.725 97.195-59.179 97.195-59.264 0-68.309-46.336-68.309-94.123v-181.291h-113.792v366.507h109.184v-50.091h1.579c15.189 28.8 52.352 59.179 107.776 59.179 115.328 0 136.661-75.904 136.661-174.592v-201.003z" />
<glyph unicode="&#xe90c;" glyph-name="mail" d="M853.333 789.333h-682.667c-47.147 0-85.333-38.187-85.333-85.333v-512c0-47.147 38.187-85.333 85.333-85.333h682.667c47.147 0 85.333 38.187 85.333 85.333v512c0 47.147-38.187 85.333-85.333 85.333zM853.333 608.597l-341.333-208.299-341.333 208.299v95.403h682.667v-95.403z" />
<glyph unicode="&#xe90d;" glyph-name="medium" d="M894.379 650.368l-232.832-378.325-167.381 272 133.376 216.747c4.779 7.765 13.611 12.203 22.485 12.203 2.133 0 4.267-0.341 6.357-0.853 1.664-0.427 3.328-0.981 4.864-1.749l231.936-115.968c0.171-0.085 0.299-0.256 0.469-0.341 1.109-0.896 1.493-2.432 0.725-3.712zM420.693 593.408v-246.741l219.307-109.653-219.307 356.395zM672.939 220.544l180.523-90.24c23.509-11.733 42.539-3.541 42.539 18.347v434.389l-223.061-362.496zM382.635 653.739l-226.261 113.109c-4.096 2.048-7.979 3.029-11.52 3.029-9.899 0-16.853-7.68-16.853-20.565v-488.533c0-13.056 9.557-28.544 21.248-34.389l199.296-99.627c5.12-2.56 9.984-3.755 14.379-3.755 12.373 0 21.077 9.6 21.077 25.685v502.784c0 0.981-0.512 1.835-1.365 2.261z" />
<glyph unicode="&#xe90e;" glyph-name="path" d="M810.667 832h-597.333c-47.147 0-85.333-38.187-85.333-85.333v-597.333c0-47.147 38.187-85.333 85.333-85.333h597.333c47.147 0 85.333 38.187 85.333 85.333v597.333c0 47.147-38.187 85.333-85.333 85.333zM636.587 354.517c-16.341-8.149-37.035-14.421-55.851-14.421-20.693 0-42.667 0.64-62.123 10.027v-42.667c0-55.211-23.851-88.448-81.579-88.448-16.341 0-47.701 5.035-57.088 20.053v67.797c8.789-10.027 22.571-16.939 36.395-16.939 15.061 0 23.851 8.747 23.851 23.851v234.667h78.464v-138.027c13.184-4.395 26.368-6.272 40.149-6.272 50.219 0 92.245 33.877 92.245 86.613 0 82.219-70.912 114.176-143.701 114.176-67.797 0-138.069-39.509-138.069-114.816 0-23.211 5.035-42.027 21.333-59.008l-57.131-48.939c-31.36 34.517-38.912 62.123-38.912 107.947 0 119.211 99.157 186.965 210.219 186.965 112.341 0 224.64-57.728 224.64-183.211 0-62.805-37.035-113.024-92.843-139.349z" />
<glyph unicode="&#xe90f;" glyph-name="path-alt" d="M733.483 261.12c-28.885-14.421-65.579-25.557-98.901-25.557-36.651 0-75.563 1.109-109.952 17.749v-75.563c0-97.707-42.197-156.629-144.427-156.629-28.885 0-84.48 8.917-101.12 35.541v120.021c15.531-17.749 39.979-29.995 64.427-29.995 26.667 0 42.197 15.531 42.197 42.24v415.488h138.88v-244.395c23.296-7.765 46.677-11.093 71.083-11.093 88.875 0 163.328 59.989 163.328 153.344 0 145.536-125.568 202.155-254.421 202.155-120.021 0-244.437-69.973-244.437-203.264 0-41.131 8.917-74.453 37.803-104.448l-101.12-86.656c-55.509 61.099-68.821 109.952-68.821 191.061 0 211.072 175.531 331.051 372.139 331.051 198.869 0 397.739-102.187 397.739-324.395 0.043-111.104-65.493-199.979-164.395-246.656z" />
<glyph unicode="&#xe910;" glyph-name="pinterest" d="M512 874.667c-235.648 0-426.667-191.019-426.667-426.667 0-180.736 112.469-335.147 271.189-397.312-3.712 33.749-7.083 85.547 1.493 122.411 7.765 33.28 50.048 212.096 50.048 212.096s-12.757 25.557-12.757 63.317c0 59.307 34.389 103.637 77.184 103.637 36.395 0 53.973-27.349 53.973-60.117 0-36.608-23.296-91.349-35.328-142.037-10.069-42.496 21.291-77.099 63.189-77.099 75.819 0 134.144 79.957 134.144 195.371 0 102.144-73.387 173.568-178.219 173.568-121.387 0-192.64-91.051-192.64-185.173 0-36.651 14.123-75.989 31.744-97.365 3.499-4.224 4.011-7.936 2.944-12.245-3.285-13.483-10.496-42.453-11.904-48.384-1.877-7.808-6.187-9.472-14.251-5.717-53.291 24.789-86.613 102.699-86.613 165.291 0 134.571 97.792 258.176 281.899 258.176 148.011 0 263.040-105.472 263.040-246.4 0-147.029-92.715-265.387-221.397-265.387-43.221 0-83.883 22.443-97.792 48.981 0 0-21.376-81.451-26.581-101.419-9.643-37.077-35.627-83.499-53.035-111.872 39.936-12.331 82.347-18.987 126.336-18.987 235.648 0 426.667 191.019 426.667 426.667s-191.019 426.667-426.667 426.667z" />
<glyph unicode="&#xe911;" glyph-name="pinterest-alt" d="M524.331 874.667c-242.005 0-370.475-155.648-370.475-325.205 0-78.763 43.733-176.896 113.749-208.128 10.667-4.736 16.256-2.688 18.731 7.211 1.877 7.467 11.392 43.904 15.573 60.928 1.365 5.461 0.725 10.112-3.883 15.445-23.040 26.88-41.6 76.416-41.6 122.581 0 118.485 93.611 233.131 253.141 233.131 137.813 0 234.24-89.941 234.24-218.539 0-145.365-76.544-246.101-176.213-246.101-55.083 0-96.299 43.563-83.115 97.152 15.872 63.787 46.464 132.779 46.464 178.816 0 41.259-23.125 75.733-70.955 75.733-56.277 0-101.504-55.851-101.504-130.517 0-47.573 16.811-79.744 16.811-79.744s-55.552-225.237-65.707-267.136c-17.28-71.083 2.261-186.368 4.011-196.437 0.896-5.376 7.125-7.211 10.667-2.688 5.504 7.040 72.491 103.211 91.392 172.843 6.741 25.173 34.859 127.787 34.859 127.787 18.347-33.451 71.723-61.696 128.555-61.696 169.088 0 291.072 149.077 291.072 334.208 0 177.579-151.253 310.357-345.813 310.357z" />
<glyph unicode="&#xe912;" glyph-name="pocket" d="M935.552 781.056c-11.093 30.464-40.32 50.944-72.747 50.944h-699.008c-31.872 0-60.928-20.053-72.277-49.92-3.371-8.875-5.077-18.091-5.077-27.477v-257.493l2.944-51.2c12.373-116.48 72.832-218.24 166.357-289.195 1.664-1.28 3.371-2.517 5.077-3.797l1.067-0.768c50.133-36.651 106.283-61.483 166.827-73.685 27.947-5.632 56.533-8.533 84.949-8.533 26.24 0 52.565 2.432 78.464 7.253 3.115 0.597 6.187 1.195 9.344 1.877 0.853 0.171 1.792 0.512 2.731 0.981 57.984 12.672 111.829 36.864 160.128 72.149l1.067 0.768c1.707 1.237 3.413 2.475 5.077 3.797 93.525 70.997 153.984 172.757 166.315 289.195l2.944 51.2v257.451c0.043 8.917-1.067 17.749-4.181 26.453zM754.859 512.811l-200.704-192.512c-11.349-10.837-25.941-16.299-40.491-16.299-14.592 0-29.184 5.461-40.491 16.299l-200.747 192.512c-23.339 22.357-24.107 59.392-1.749 82.731s59.392 24.107 82.731 1.707l160.256-153.643 160.213 153.643c23.339 22.357 60.373 21.589 82.731-1.707 22.315-23.339 21.547-60.331-1.749-82.731z" />
<glyph unicode="&#xe913;" glyph-name="polldaddy" d="M512 874.667c-235.221 0-426.667-191.445-426.667-426.667 0-235.264 191.445-426.667 426.667-426.667 235.264 0 426.667 191.403 426.667 426.667 0 235.221-191.403 426.667-426.667 426.667zM554.283 802.987c100.736-3.584 198.699-53.376 264.405-133.803 12.075-14.251 23.083-29.568 33.024-45.525-60.885 76.416-154.752 125.44-260.011 125.44-100.565 0-190.592-44.672-251.563-115.328-0.256-0.128-0.427-0.427-0.683-0.597-2.133-2.261-4.267-4.523-6.485-6.784-0.427-0.469-0.853-0.896-1.323-1.365-43.179-46.763-69.675-109.184-69.675-177.707 0-144.512 117.589-262.101 262.101-262.101 24.32 0 47.915 3.456 70.357 9.685-78.891-35.797-176.256-31.872-252.843 13.824-78.549 46.464-135.296 132.736-146.475 226.688-12.544 94.080 20.608 194.048 90.325 262.741 68.437 69.845 168.277 109.824 268.843 104.832zM698.197 439.509c-2.091 86.357-67.712 165.931-151.211 178.091-82.219 14.635-167.125-36.565-189.909-113.536-11.563-37.675-8.107-78.805 8.533-113.195 16.64-34.133 45.525-61.909 80.811-75.051 70.997-27.904 154.88 11.52 178.048 79.488 25.301 67.413-16.896 146.048-82.773 161.109-64.853 17.365-134.869-32.299-136.704-95.701-2.176-30.549 10.795-60.629 32.128-80.171 21.376-20.309 52.48-28.459 79.829-22.571 27.563 5.419 51.2 23.765 62.677 48.384 11.52 24.576 9.344 53.589-3.712 75.392-12.672 21.888-36.651 36.821-60.971 37.589-24.363 1.237-47.787-10.496-61.312-28.971-13.909-18.603-16.213-43.776-7.68-63.531 0.171-0.469 0.427-0.896 0.683-1.28 8.235-27.051 33.024-46.933 62.592-47.659-14.037-1.664-28.757 0.811-41.387 7.808-19.883 10.411-34.517 31.872-38.101 55.040-3.541 23.211 3.84 48.512 21.291 65.664 17.024 17.621 42.197 27.776 67.413 25.856 25.301-1.707 49.451-14.933 64.725-36.651 15.531-21.163 21.76-49.323 16.341-75.648-4.949-26.453-22.571-50.091-46.635-64.597-23.765-14.507-53.931-19.371-81.664-12.203-27.733 6.869-52.309 25.856-67.584 51.456-15.36 25.387-20.907 57.088-14.549 86.656 6.101 29.867 24.448 56.363 50.176 74.795 50.901 37.675 130.389 32.043 175.189-17.536 47.189-46.933 56.619-129.152 17.323-186.496-37.419-58.709-116.907-89.003-186.624-68.011-69.931 19.157-124.288 88.704-129.323 164.395-2.987 37.717 5.547 76.672 24.875 109.952 18.987 33.152 49.28 61.099 84.139 79.445 69.973 37.547 162.816 31.701 228.224-18.091 53.376-39.424 88.875-103.253 95.403-171.051 0-0.469 0.043-0.896 0.043-1.28 0-123.733-100.651-224.427-224.427-224.427-29.312 0-57.344 5.717-83.072 16.043 36.949-8.832 75.819-7.509 111.488 3.371 42.923 12.971 80.811 39.552 107.264 74.709 26.368 35.328 40.533 79.403 38.443 122.411zM512 59.179c-214.357 0-388.736 174.379-388.736 388.821 0 204.331 158.421 372.181 358.869 387.456-5.675-0.683-11.349-1.536-16.939-2.56-112.811-19.328-214.059-89.856-269.653-188.117-55.851-98.176-59.349-221.44-12.8-321.152 45.056-99.84 138.795-177.323 246.443-194.261 106.539-18.773 219.008 20.608 289.579 98.176 73.344 76.672 96.811 193.237 63.403 289.963-24.875 77.227-84.309 142.123-157.867 172.629 145.792-25.344 263.424-137.429 263.424-289.323 0-42.837-10.283-86.187-28.032-126.549-63.915-127.317-195.669-215.083-347.691-215.083z" />
<glyph unicode="&#xe914;" glyph-name="linkedin-alt" d="M302.336 64h-164.608v495.36h164.608v-495.36zM220.032 626.944h-1.024c-55.232 0-91.008 38.080-91.008 85.568 0 48.576 36.8 85.568 93.184 85.568 56.256 0 90.944-37.056 92.032-85.568 0-47.488-35.776-85.568-93.184-85.568zM896 64h-164.608v265.024c0 66.56-23.68 112-83.328 112-45.568 0-72.64-30.592-84.544-60.16-4.288-10.624-5.376-25.472-5.376-40.256v-276.608h-164.672s2.176 448.896 0 495.36h164.672v-70.208c21.888 33.728 60.992 81.792 148.224 81.792 108.352 0 189.632-70.784 189.632-222.912v-284.032z" />
<glyph unicode="&#xe915;" glyph-name="reddit" d="M938.667 455.851c0 53.589-43.563 97.152-97.152 97.152-25.301 0-47.872-10.24-65.109-26.197-63.189 41.173-147.413 68.011-240.939 72.107l49.963 157.952 135.68-31.915c0.341-43.861 36.096-79.445 80.043-79.445 44.16 0 80.085 35.925 80.085 80.128 0 44.16-35.925 80.085-80.085 80.085-32.811 0-61.056-19.883-73.387-48.213l-149.675 35.243c-8.661 2.005-17.024-2.859-19.627-11.136l-57.6-182.101c-98.816-1.621-188.203-28.587-254.72-71.296-17.109 15.147-39.083 24.789-63.659 24.789-53.589 0-97.152-43.563-97.152-97.152 0-34.731 18.475-64.981 45.995-82.133-1.579-9.429-2.603-18.944-2.603-28.672 0-140.459 171.136-254.72 381.483-254.72s381.483 114.261 381.483 254.72c0 9.131-0.853 18.091-2.261 26.965 29.312 16.683 49.237 47.787 49.237 83.84zM801.109 772.523c25.856 0 46.933-21.035 46.933-46.933s-21.035-46.933-46.933-46.933-46.933 21.077-46.933 46.933 21.035 46.933 46.933 46.933zM118.485 455.851c0 35.285 28.672 64 63.957 64 13.355 0 25.515-4.395 35.755-11.477-36.309-28.843-63.019-63.104-77.312-100.693-13.611 11.648-22.4 28.8-22.4 48.171zM510.251 123.477c-192.043 0-348.331 99.371-348.331 221.568s156.245 221.568 348.331 221.568 348.331-99.371 348.331-221.568-156.288-221.568-348.331-221.568zM880.469 405.291c-13.909 37.973-40.448 72.576-76.672 101.717 10.581 7.936 23.467 12.843 37.675 12.843 35.285 0 64-28.715 64-64 0.043-20.608-9.813-38.869-25.003-50.56zM383.829 332.629c-32.427 0-59.605 26.283-59.605 58.709s27.179 59.605 59.605 59.605c32.427 0 58.709-27.179 58.709-59.605s-26.283-58.709-58.709-58.709zM699.776 391.339c0-32.427-26.283-58.709-58.709-58.709s-59.691 26.283-59.691 58.709c0 32.427 27.264 59.605 59.691 59.605s58.709-27.179 58.709-59.605zM649.771 247.125c6.485-6.485 6.485-16.981 0-23.467-28.757-28.757-73.685-42.752-137.344-42.752-0.171 0-0.299 0.085-0.469 0.085s-0.299-0.085-0.469-0.085c-63.659 0-108.544 13.995-137.301 42.752-6.485 6.485-6.485 16.981 0 23.467s17.024 6.443 23.467 0c22.229-22.229 59.477-33.067 113.877-33.067 0.171 0 0.299-0.085 0.469-0.085s0.299 0.085 0.469 0.085c54.4 0 91.648 10.795 113.877 33.067 6.443 6.485 16.981 6.485 23.424 0z" />
<glyph unicode="&#xe916;" glyph-name="share" d="M768 277.333c-33.621 0-63.957-13.227-86.784-34.432l-301.056 175.232c2.133 9.813 3.84 19.627 3.84 29.867s-1.707 20.053-3.84 29.867l300.8 175.36c23.040-21.333 53.333-34.56 87.040-34.56 70.827 0 128 57.173 128 128s-57.173 128-128 128-128-57.173-128-128c0-10.24 1.707-20.053 3.84-29.867l-300.8-175.36c-23.040 21.333-53.333 34.56-87.040 34.56-70.827 0-128-57.173-128-128s57.173-128 128-128c33.707 0 64 13.227 87.040 34.56l300.715-175.701c-2.261-9.515-3.755-19.328-3.755-29.525 0-70.699 57.301-128 128-128s128 57.301 128 128-57.301 128-128 128z" />
<glyph unicode="&#xe917;" glyph-name="skype" d="M431.488 844.843c1.408 0.256 2.859 0.555 4.267 0.853 1.408-0.725 2.816-1.408 4.181-2.176l-8.448 1.323zM116.053 523.819c-0.256-1.451-0.469-2.944-0.725-4.395 0.768-1.365 1.408-2.731 2.176-4.053l-1.451 8.448zM907.733 372.437c0.299 1.493 0.469 3.029 0.768 4.523-0.768 1.323-1.408 2.731-2.219 4.053l1.451-8.576zM578.688 55.509c1.365-0.811 2.773-1.493 4.096-2.261 1.536 0.256 3.029 0.469 4.48 0.725l-8.576 1.536zM938.667 260.864c0-63.744-24.789-123.648-69.845-168.661-45.056-45.099-104.917-69.845-168.661-69.845-41.259 0-81.664 10.709-117.333 30.933 1.536 0.256 3.029 0.469 4.48 0.725l-8.619 1.493c1.365-0.811 2.773-1.493 4.096-2.261-23.168-4.096-46.891-6.272-70.571-6.272-54.4 0-107.179 10.667-156.843 31.701-48 20.224-91.093 49.323-128.085 86.315s-66.048 80.085-86.315 128.085c-21.035 49.664-31.701 102.443-31.701 156.843 0 23.296 2.091 46.635 6.059 69.461 0.768-1.365 1.408-2.731 2.176-4.053l-1.451 8.491c-0.256-1.451-0.469-2.944-0.725-4.395-19.584 35.243-29.995 75.093-29.995 115.669 0 63.701 24.832 123.648 69.845 168.661 45.056 45.056 104.96 69.888 168.661 69.888 39.040 0 77.568-9.728 111.872-27.947-1.408-0.299-2.859-0.555-4.267-0.853l8.491-1.323c-1.365 0.768-2.816 1.451-4.181 2.176 0.085 0 0.128 0.043 0.171 0.043 25.003 4.779 50.645 7.211 76.288 7.211 54.4 0 107.179-10.624 156.843-31.659 47.957-20.309 91.093-49.323 128.085-86.357 37.035-36.992 66.048-80.085 86.357-128.085 21.035-49.664 31.701-102.443 31.701-156.843 0-24.533-2.304-49.067-6.699-73.045-0.768 1.323-1.408 2.731-2.219 4.053l1.451-8.576c0.299 1.493 0.469 3.029 0.768 4.523 19.669-35.371 30.165-75.392 30.165-116.096zM717.525 356.779c0 56.789-26.155 117.035-129.408 140.032l-94.251 20.907c-35.84 8.192-77.099 18.944-77.099 52.779 0 33.877 28.971 57.515 81.195 57.515 105.301 0 95.701-72.363 147.968-72.363 27.52 0 51.584 16.171 51.584 43.989 0 64.896-103.893 113.621-192 113.621-95.659 0-197.547-40.619-197.547-148.821 0-52.096 18.603-107.563 121.131-133.248l127.317-31.787c38.528-9.515 48.171-31.189 48.171-50.731 0-32.512-32.341-64.299-90.837-64.299-114.304 0-98.432 87.979-159.701 87.979-27.52 0-47.488-18.944-47.488-45.995 0-52.736 64.043-123.136 207.189-123.136 136.32 0 203.776 65.621 203.776 153.557z" />
<glyph unicode="&#xe918;" glyph-name="spotify" d="M512 874.667c-235.648 0-426.667-191.019-426.667-426.667s191.019-426.667 426.667-426.667c235.648 0 426.667 191.019 426.667 426.667s-191.019 426.667-426.667 426.667zM707.669 259.243c-7.68-12.587-24.021-16.512-36.565-8.832-100.181 61.227-226.304 75.093-374.827 41.131-14.293-3.285-28.587 5.675-31.829 20.011-3.285 14.293 5.632 28.587 20.011 31.829 162.517 37.163 301.952 21.163 414.421-47.573 12.501-7.637 16.469-24.021 8.789-36.565zM759.893 375.467c-9.643-15.659-30.123-20.565-45.739-10.965-114.645 70.485-289.493 90.923-425.173 49.749-17.621-5.376-36.181 4.565-41.515 22.101-5.333 17.621 4.608 36.181 22.187 41.515 154.965 47.019 347.605 24.235 479.317-56.661 15.616-9.643 20.523-30.165 10.923-45.739zM764.373 496.427c-137.515 81.664-364.373 89.173-495.701 49.323-21.035-6.4-43.349 5.504-49.749 26.581-6.357 21.12 5.504 43.392 26.624 49.792 150.699 45.739 401.237 36.907 559.573-57.088 18.987-11.264 25.173-35.755 13.952-54.699-11.264-18.944-35.755-25.173-54.699-13.909z" />
<glyph unicode="&#xe919;" glyph-name="squarespace" d="M890.453 564.437c-64.299 64.299-168.576 64.299-232.875 0l-262.016-262.016c-16.085-16.085-16.085-42.155 0-58.197 16.085-16.085 42.155-16.085 58.24 0l261.973 261.973c32.171 32.171 84.309 32.171 116.437 0 32.171-32.171 32.171-84.267 0-116.437l-256.939-256.939c32.171-32.171 84.267-32.171 116.437 0l198.741 198.741c64.299 64.299 64.299 168.576 0 232.875zM803.115 477.099c-16.085 16.085-42.155 16.085-58.24 0l-261.973-261.973c-32.171-32.171-84.309-32.171-116.437 0-16.085 16.085-42.155 16.085-58.197 0-16.085-16.085-16.085-42.155 0-58.197 64.299-64.299 168.576-64.299 232.875 0l261.973 261.973c16.043 16.043 16.043 42.155 0 58.197zM715.776 739.115c-64.299 64.341-168.576 64.341-232.875 0l-261.973-261.973c-16.085-16.085-16.085-42.155 0-58.197 16.085-16.085 42.155-16.085 58.197 0l262.016 261.973c32.171 32.171 84.267 32.171 116.437 0 16.085-16.085 42.155-16.085 58.24 0 16.043 16.043 16.043 42.112-0.043 58.197zM628.437 651.776c-16.085 16.085-42.155 16.085-58.197 0l-261.973-262.016c-32.171-32.171-84.309-32.171-116.437 0-32.171 32.128-32.171 84.267 0 116.437l256.939 256.939c-32.171 32.171-84.309 32.171-116.437 0l-198.784-198.699c-64.299-64.341-64.299-168.576 0-232.875s168.576-64.299 232.875 0l261.973 262.016c16.128 16.043 16.128 42.112 0.043 58.197z" />
<glyph unicode="&#xe91a;" glyph-name="stumbleupon" d="M512 776.789c-105.344 0-190.763-85.419-190.763-190.763v-271.061c0-24.96-20.224-45.184-45.184-45.184s-45.184 20.224-45.184 45.184v120.491h-145.536v-125.483c0-105.344 85.419-190.763 190.763-190.763s190.763 85.419 190.763 190.763v276.053c0 24.96 20.224 45.184 45.184 45.184s45.184-20.224 45.184-45.184v-55.211l60.245-27.605 85.333 27.605v55.211c-0.043 105.344-85.461 190.763-190.805 190.763zM557.184 432.939v-122.965c0-105.344 85.419-190.763 190.763-190.763s190.72 85.419 190.72 190.763v120.491h-145.579v-120.491c0-24.96-20.224-45.184-45.184-45.184s-45.184 20.224-45.184 45.184v122.965l-85.333-27.605-60.203 27.605z" />
<glyph unicode="&#xe91b;" glyph-name="telegram" d="M512 874.667c-235.648 0-426.667-191.019-426.667-426.667s191.019-426.667 426.667-426.667 426.667 191.019 426.667 426.667-191.019 426.667-426.667 426.667zM643.413 245.035c0 0-10.667-26.667-39.936-13.867l-108.416 83.157-69.547-63.403c0 0-5.419-4.096-11.349-1.536 0 0-5.12 0.469-11.52 20.736s-38.869 126.805-38.869 126.805l-107.776 36.181c0 0-16.512 5.845-18.133 18.688-1.579 12.8 18.645 19.712 18.645 19.712l427.947 167.851c0 0 35.157 15.445 35.157-10.155l-76.203-384.171z" />
<glyph unicode="&#xe91c;" glyph-name="tumblr" d="M810.667 832h-597.333c-47.147 0-85.333-38.187-85.333-85.333v-597.333c0-47.147 38.187-85.333 85.333-85.333h597.333c47.147 0 85.333 38.187 85.333 85.333v597.333c0 47.147-38.187 85.333-85.333 85.333zM573.056 223.36c-104.363-1.792-143.872 74.325-143.872 127.915v156.501h-48.469v61.867c72.661 26.197 90.155 91.733 94.251 129.067 0.299 2.56 2.304 3.584 3.456 3.584s70.187 0 70.187 0v-122.027h95.829v-72.533h-96.171v-149.12c0.341-20.309 7.765-48.256 46.123-47.232 12.715 0.341 29.739 4.011 38.656 8.277l23.040-68.309c-8.747-12.629-47.829-27.349-83.029-27.989z" />
<glyph unicode="&#xe91d;" glyph-name="tumblr-alt" d="M714.624 217.771c-15.232-7.253-44.416-13.611-66.176-14.165-65.664-1.749-78.379 46.123-78.933 80.896v255.36h164.736v124.16h-164.139v208.981c0 0-118.187 0-120.192 0-1.963 0-5.419-1.749-5.888-6.144-7.040-63.957-36.992-176.213-161.408-221.056v-105.984h82.987v-268.032c0-91.776 67.712-222.123 246.4-219.093 60.288 1.024 127.232 26.283 142.037 48.043l-39.424 117.035z" />
<glyph unicode="&#xe91e;" glyph-name="twitch" d="M703.957 614.869h-69.803v-209.493h69.803v209.493zM512 614.869h-69.845v-209.493h69.845v209.493zM180.395 824.405l-52.395-139.648v-558.592h191.957v-104.832h104.789l104.704 104.789h157.056l209.493 209.408v488.875h-715.605zM826.197 370.517l-122.197-122.24h-192l-104.661-104.661v104.704h-157.184v506.283h576.043v-384.085z" />
<glyph unicode="&#xe91f;" glyph-name="twitter" d="M810.667 832h-597.333c-47.147 0-85.333-38.187-85.333-85.333v-597.333c0-47.147 38.187-85.333 85.333-85.333h597.333c47.147 0 85.333 38.187 85.333 85.333v597.333c0 47.147-38.187 85.333-85.333 85.333zM702.549 545.707c0.171-4.224 0.299-8.448 0.299-12.715 0-129.92-98.901-279.723-279.723-279.723-55.509 0-107.179 16.256-150.699 44.16 7.68-0.896 15.531-1.365 23.467-1.365 46.037 0 88.448 15.701 122.112 42.069-43.008 0.811-79.317 29.227-91.819 68.267 6.016-1.152 12.16-1.749 18.475-1.749 8.96 0 17.664 1.195 25.899 3.456-44.971 9.045-78.848 48.768-78.848 96.384 0 0.427 0 0.811 0 1.237 13.269-7.381 28.416-11.776 44.544-12.288-26.368 17.621-43.733 47.701-43.733 81.835 0 18.005 4.864 34.901 13.312 49.408 48.469-59.477 120.917-98.603 202.624-102.699-1.664 7.211-2.56 14.677-2.56 22.4 0 54.272 44.032 98.304 98.304 98.304 28.288 0 53.803-11.947 71.765-31.061 22.4 4.395 43.435 12.587 62.421 23.851-7.339-22.955-22.912-42.24-43.221-54.4 19.883 2.389 38.827 7.68 56.448 15.488-13.227-19.669-29.867-36.992-49.067-50.859z" />
<glyph unicode="&#xe920;" glyph-name="twitter-alt" d="M948.48 707.243c-31.403-13.909-65.152-23.339-100.565-27.563 36.139 21.675 63.915 55.979 76.971 96.853-33.835-20.053-71.296-34.645-111.189-42.496-31.872 34.048-77.397 55.296-127.744 55.296-96.683 0-175.061-78.379-175.061-175.061 0-13.739 1.536-27.093 4.523-39.893-145.493 7.296-274.475 76.971-360.832 182.912-15.061-25.856-23.723-55.936-23.723-88.021 0-60.757 30.891-114.304 77.867-145.707-28.715 0.896-55.68 8.789-79.317 21.888 0-0.725 0-1.451 0-2.219 0-84.821 60.331-155.605 140.459-171.648-14.677-4.011-30.165-6.144-46.123-6.144-11.264 0-22.229 1.109-32.939 3.157 22.272-69.547 86.955-120.149 163.541-121.6-59.904-46.933-135.424-74.923-217.429-74.923-14.123 0-28.075 0.811-41.771 2.432 77.483-49.664 169.515-78.635 268.373-78.635 322.005 0 498.133 266.752 498.133 498.133 0 7.595-0.171 15.147-0.512 22.656 34.219 24.619 63.872 55.467 87.339 90.581z" />
<glyph unicode="&#xe921;" glyph-name="vimeo" d="M955.563 654.336c-3.968-86.443-64.299-204.757-181.12-354.987-120.704-156.885-222.848-235.349-306.389-235.349-51.797 0-95.573 47.744-131.371 143.317-23.893 87.595-47.744 175.189-71.68 262.784-26.581 95.531-55.040 143.36-85.547 143.36-6.656 0-29.909-13.995-69.717-41.813l-41.728 53.803c43.819 38.485 87.040 77.013 129.579 115.541 58.453 50.475 102.357 77.056 131.584 79.744 69.077 6.656 111.616-40.576 127.573-141.696 17.237-109.099 29.227-176.939 35.883-203.477 19.925-90.496 41.856-135.723 65.792-135.723 18.56 0 46.507 29.355 83.755 88.107 37.163 58.709 57.088 103.339 59.776 134.059 5.333 50.645-14.635 76.032-59.776 76.032-21.248 0-43.179-4.907-65.749-14.549 43.648 142.933 127.019 212.352 250.112 208.384 91.264-2.688 134.315-61.867 129.024-177.536z" />
<glyph unicode="&#xe922;" glyph-name="whatsapp" d="M87.381 21.333l59.989 219.136c-36.992 64.128-56.491 136.875-56.448 211.413 0.085 233.088 189.781 422.784 422.869 422.784 113.109-0.043 219.307-44.075 299.136-123.989s123.776-186.155 123.733-299.136c-0.085-233.131-189.781-422.827-422.827-422.827 0 0 0 0 0 0h-0.171c-70.784 0.043-140.288 17.792-202.069 51.456l-224.213-58.837zM321.92 156.672l12.843-7.637c53.973-32.043 115.797-48.981 178.901-48.981h0.128c193.707 0 351.36 157.653 351.445 351.445 0.043 93.909-36.48 182.229-102.827 248.661s-154.581 103.040-248.491 103.083c-193.877 0-351.531-157.653-351.616-351.445-0.043-66.389 18.56-131.072 53.717-187.051l8.363-13.312-35.499-129.707 133.035 34.944zM726.827 350.976c-2.645 4.395-9.685 7.040-20.267 12.331s-62.507 30.848-72.192 34.389c-9.685 3.541-16.725 5.291-23.765-5.291s-27.307-34.389-33.451-41.429c-6.144-7.040-12.331-7.936-22.869-2.645-10.581 5.291-44.629 16.427-84.949 52.437-31.403 28.032-52.608 62.635-58.795 73.173-6.144 10.581-0.64 16.299 4.651 21.547 4.736 4.736 10.581 12.331 15.829 18.517 5.291 6.187 7.040 10.581 10.581 17.621s1.749 13.227-0.896 18.517c-2.645 5.291-23.765 57.301-32.555 78.464-8.619 20.608-17.365 17.792-23.851 18.133-6.144 0.299-13.227 0.384-20.267 0.384s-18.475-2.645-28.16-13.227c-9.643-10.581-36.949-36.139-36.949-88.149s37.845-102.229 43.136-109.312c5.291-7.040 74.496-113.749 180.48-159.531 25.216-10.88 44.885-17.408 60.245-22.272 25.301-8.064 48.341-6.912 66.56-4.181 20.309 3.029 62.507 25.557 71.296 50.219 8.789 24.747 8.789 45.867 6.187 50.304z" />
<glyph unicode="&#xe923;" glyph-name="wordpress" d="M518.741 414.464l-115.115-334.464c34.389-10.112 70.699-15.616 108.373-15.616 44.672 0 87.509 7.723 127.403 21.76-1.024 1.621-1.963 3.371-2.773 5.291l-117.888 323.029zM128.384 448c0-151.851 88.235-283.051 216.192-345.259l-182.955 501.376c-21.291-47.701-33.237-100.48-33.237-156.117zM770.944 467.371c0 47.445-17.024 80.256-31.616 105.813-19.456 31.616-37.675 58.368-37.675 89.984 0 35.243 26.752 68.096 64.427 68.096 1.707 0 3.328-0.213 4.949-0.299-68.224 62.464-159.189 100.651-259.029 100.651-134.016 0-251.904-68.779-320.512-172.885 9.003-0.299 17.493-0.469 24.704-0.469 40.107 0 102.229 4.864 102.229 4.864 20.651 1.195 23.083-29.184 2.432-31.616 0 0-20.779-2.432-43.904-3.627l139.691-415.531 83.968 251.776-59.776 163.755c-20.651 1.195-40.235 3.627-40.235 3.627-20.693 1.237-18.261 32.811 2.432 31.616 0 0 63.317-4.864 101.035-4.864 40.107 0 102.272 4.864 102.272 4.864 20.693 1.195 23.125-29.184 2.432-31.616 0 0-20.821-2.432-43.904-3.627l138.624-412.373 38.272 127.829c19.456 49.877 29.184 91.179 29.184 124.032zM848.597 632.064c1.664-12.203 2.56-25.301 2.56-39.424 0-38.912-7.296-82.688-29.184-137.387l-117.163-338.773c114.048 66.475 190.72 190.037 190.72 331.563 0.085 66.688-16.981 129.365-46.933 184.021zM512 21.333c-235.264 0-426.667 191.403-426.667 426.667s191.403 426.667 426.667 426.667c235.264 0 426.667-191.403 426.667-426.667s-191.403-426.667-426.667-426.667z" />
<glyph unicode="&#xe924;" glyph-name="xanga" d="M384 576h256v-256h-256v256zM128 576h256v256h-256v-256zM640 576h256v256h-256v-256zM640 64h256v256h-256v-256zM128 64h256v256h-256v-256z" />
<glyph unicode="&#xe925;" glyph-name="youtube" d="M930.133 618.624c0 0-8.32 58.795-33.92 84.693-32.427 34.005-68.821 34.176-85.504 36.139-119.424 8.619-298.539 8.619-298.539 8.619h-0.384c0 0-179.115 0-298.539-8.619-16.64-2.005-52.992-2.176-85.461-36.139-25.6-25.899-33.92-84.693-33.92-84.693s-8.533-69.077-8.533-138.112v-64.725c0-69.035 8.533-138.112 8.533-138.112s8.32-58.795 33.92-84.693c32.469-34.005 75.093-32.896 94.080-36.48 68.267-6.528 290.133-8.576 290.133-8.576s179.328 0.256 298.709 8.917c16.683 2.005 53.035 2.176 85.504 36.139 25.6 25.899 33.92 84.693 33.92 84.693s8.533 69.035 8.533 138.112v64.725c0 69.035-8.533 138.112-8.533 138.112zM423.893 337.323l-0.043 239.787 230.571-120.32-230.528-119.467z" />
<glyph unicode="&#xe926;" glyph-name="amazon" d="M579.499 610.901c-70.315-7.893-162.219-13.141-228.011-41.984-75.989-32.811-129.28-99.712-129.28-198.144 0-125.995 79.36-188.971 181.461-188.971 86.187 0 133.333 20.352 199.893 88.107 22.016-31.872 29.227-47.317 69.504-80.811 9.045-4.864 20.608-4.395 28.672 2.816l0.256-0.256c24.192 21.547 68.224 59.776 93.013 80.555 9.856 8.021 8.107 21.163 0.384 32.171-22.187 30.635-45.739 55.595-45.739 112.384v188.885c0 80.043 5.675 153.557-53.291 208.683-46.549 44.587-123.691 60.331-182.656 60.331-115.371 0-244.139-43.093-271.104-185.643-2.901-15.147 8.149-23.125 18.048-25.344l117.504-12.715c11.008 0.555 18.987 11.349 21.077 22.315 10.069 49.109 51.2 72.789 97.451 72.789 24.917 0 53.291-9.173 68.053-31.488 16.981-24.917 14.763-59.051 14.763-87.936v-15.744zM556.757 358.912c-19.243-34.133-49.877-55.083-83.925-55.083-46.507 0-73.728 35.413-73.728 87.936 0 103.253 92.629 122.027 180.352 122.027v-26.24c0.043-47.275 1.152-86.656-22.699-128.64zM882.475 134.869c-100.437-74.112-246.016-113.536-371.371-113.536-175.701 0-333.909 64.939-453.632 173.099-9.387 8.491-1.024 20.096 10.283 13.525 129.152-75.179 288.896-120.448 453.931-120.448 111.275 0 233.643 23.083 346.24 70.827 16.939 7.211 31.147-11.179 14.549-23.467zM910.336 62.165c-8.277-6.955-16.171-3.243-12.501 5.931 12.117 30.293 39.253 98.048 26.411 114.517s-84.907 7.808-117.291 3.925c-9.813-1.152-11.349 7.381-2.517 13.611 57.515 40.363 151.68 28.715 162.603 15.189 11.093-13.653-2.816-108.075-56.704-153.173z" />
<glyph unicode="&#xe927;" glyph-name="behance" d="M332.757 716.885c25.131 0 47.787-2.176 68.523-6.656 20.565-4.352 38.144-11.648 52.949-21.632 14.677-10.027 26.112-23.296 34.304-40.021 8.021-16.512 11.989-37.163 11.989-61.568 0-26.411-6.016-48.512-17.963-66.176-12.117-17.621-29.867-32.043-53.547-43.264 32.256-9.301 56.192-25.643 72.064-48.896 15.957-23.424 23.765-51.413 23.765-84.267 0-26.581-5.12-49.536-15.317-68.779-10.283-19.499-24.277-35.328-41.515-47.531-17.408-12.288-37.376-21.333-59.691-27.179-22.101-5.973-45.056-8.917-68.565-8.917h-254.421v524.885h247.424zM317.824 504.832c20.523 0 37.461 4.864 50.859 14.72 13.269 9.728 19.755 25.728 19.755 47.744 0 12.203-2.176 22.315-6.485 30.165-4.437 7.765-10.283 13.909-17.749 18.219-7.424 4.437-15.787 7.509-25.429 9.216-9.557 1.877-19.499 2.56-29.739 2.56h-108.117v-122.624h116.907zM324.267 281.387c11.392 0 22.229 1.024 32.384 3.285 10.368 2.261 19.499 5.845 27.179 11.136 7.765 5.12 14.165 12.075 18.816 20.949 4.693 8.789 6.955 20.224 6.955 34.048 0 27.008-7.68 46.251-22.741 57.899-15.189 11.52-35.413 17.237-60.288 17.237h-125.653v-144.555h123.349zM689.579 283.136c15.659-15.275 38.272-22.955 67.541-22.955 21.035 0 39.253 5.333 54.485 15.957 15.104 10.581 24.363 21.931 27.904 33.707h91.947c-14.805-45.739-37.205-78.421-67.797-98.091-30.208-19.755-67.072-29.568-110.080-29.568-29.909 0-56.832 4.821-81.024 14.379-24.192 9.685-44.416 23.211-61.397 40.875-16.597 17.707-29.397 38.699-38.571 63.317-9.088 24.491-13.653 51.627-13.653 81.024 0 28.416 4.693 54.955 14.037 79.488 9.472 24.619 22.571 45.867 39.808 63.659 17.323 17.92 37.76 32.043 61.611 42.411 23.808 10.283 50.133 15.488 79.232 15.488 32.171 0 60.331-6.187 84.48-18.773 24.021-12.416 43.776-29.269 59.264-50.389 15.488-21.035 26.539-45.099 33.408-72.107 6.827-26.965 9.259-55.125 7.296-84.608h-274.261c-0.043-30.123 10.112-58.539 25.771-73.813zM809.515 482.816c-12.416 13.696-33.408 21.163-59.051 21.163-16.64 0-30.464-2.816-41.515-8.533-10.837-5.632-19.669-12.672-26.496-20.949-6.699-8.405-11.307-17.28-13.995-26.795-2.688-9.259-4.309-17.621-4.736-25.045h169.813c-2.475 26.667-11.563 46.293-24.021 60.16zM642.432 629.845h212.693v51.797h-212.693v-51.797z" />
<glyph unicode="&#xe928;" glyph-name="blogger" d="M628.139 361.856c0-15.403-12.501-27.904-27.904-27.904h-174.549c-15.403 0-27.904 12.501-27.904 27.904s12.501 27.904 27.904 27.904h174.549c15.403 0 27.904-12.501 27.904-27.904zM425.856 503.552h86.955c16.299 0 29.525 13.227 29.525 29.525s-13.227 29.525-29.525 29.525h-86.955c-16.299 0-29.525-13.227-29.525-29.525s13.227-29.525 29.525-29.525zM896 746.667v-597.333c0-47.147-38.187-85.333-85.333-85.333h-597.333c-47.147 0-85.333 38.187-85.333 85.333v597.333c0 47.147 38.187 85.333 85.333 85.333h597.333c47.147 0 85.333-38.187 85.333-85.333zM748.544 474.027c0 16.981-13.739 30.72-30.72 30.72h-25.899l-0.555-0.043c-16.213 0-29.525 12.587-30.635 28.501l-0.043 0.341c0 84.821-68.736 153.557-153.557 153.557h-77.483c-84.821 0-153.557-68.736-153.557-153.557v-168.405c0-84.779 68.736-153.557 153.557-153.557h165.291c84.821 0 153.557 68.736 153.557 153.557l0.043 108.885z" />
<glyph unicode="&#xe929;" glyph-name="blogger-alt" d="M843.904 537.429l-42.752-0.043c-26.197 0-47.659 20.309-49.493 46.037l-0.043 0.555c0 136.96-111.019 248.021-248.021 248.021h-125.099c-136.96 0-248.021-111.019-248.021-248.021v-272c0-136.96 111.019-248.021 248.021-248.021h266.965c136.96 0 248.021 111.061 248.021 248.021l0.085 175.829c-0.043 27.435-22.272 49.621-49.664 49.621zM372.309 630.912h140.416c26.325 0 47.659-21.333 47.659-47.659s-21.333-47.659-47.659-47.659h-140.416c-26.325 0-47.659 21.333-47.659 47.659 0 26.283 21.333 47.659 47.659 47.659zM653.952 261.547h-281.899c-24.917 0-45.099 20.181-45.099 45.099s20.181 45.099 45.099 45.099h281.899c24.917 0 45.099-20.181 45.099-45.099s-20.181-45.099-45.099-45.099z" />
<glyph unicode="&#xe92a;" glyph-name="codepen" d="M939.349 582.827c-0.085 0.555-0.213 1.067-0.299 1.579-0.213 1.067-0.341 2.048-0.64 3.072-0.128 0.64-0.427 1.195-0.555 1.792-0.341 0.853-0.64 1.707-0.981 2.645-0.299 0.64-0.555 1.195-0.853 1.792-0.341 0.853-0.768 1.579-1.28 2.432-0.299 0.555-0.725 1.152-1.067 1.621-0.512 0.768-0.981 1.493-1.493 2.219-0.427 0.555-0.853 1.067-1.28 1.579-0.64 0.725-1.195 1.365-1.835 1.92-0.427 0.512-0.939 0.981-1.493 1.493-0.64 0.64-1.365 1.195-2.048 1.707-0.512 0.427-1.067 0.853-1.579 1.28-0.213 0.128-0.427 0.341-0.64 0.512l-390.869 260.096c-12.331 8.192-28.416 8.192-40.747 0l-391.040-260.011c-0.213-0.128-0.427-0.341-0.64-0.512l-1.621-1.195c-0.725-0.555-1.408-1.152-2.048-1.707-0.512-0.597-1.024-1.067-1.536-1.493-0.64-0.64-1.195-1.28-1.792-2.005-0.512-0.555-0.939-0.981-1.28-1.579-0.469-0.725-1.067-1.493-1.493-2.219-0.341-0.555-0.683-1.109-1.067-1.621-0.469-0.939-0.896-1.664-1.28-2.517-0.256-0.64-0.555-1.195-0.853-1.749-0.341-0.939-0.64-1.877-0.896-2.731-0.213-0.555-0.427-1.152-0.555-1.792-0.299-0.981-0.469-1.963-0.683-3.029-0.043-0.597-0.213-1.067-0.256-1.579-0.256-1.664-0.384-3.2-0.384-4.864v-259.968c0-1.579 0.128-3.2 0.341-4.779 0.085-0.512 0.213-1.067 0.299-1.621 0.213-0.981 0.341-2.005 0.64-3.072 0.128-0.64 0.341-1.195 0.555-1.707 0.299-0.939 0.555-1.792 0.939-2.688 0.299-0.64 0.555-1.195 0.853-1.707 0.341-0.853 0.768-1.621 1.28-2.475 0.299-0.555 0.64-1.152 1.067-1.621 0.512-0.768 0.981-1.493 1.493-2.219 0.427-0.555 0.853-1.067 1.28-1.579 0.555-0.64 1.195-1.365 1.792-1.92 0.512-0.512 0.981-0.981 1.493-1.493 0.64-0.555 1.365-1.195 2.048-1.707l1.621-1.28c0.213-0.128 0.427-0.299 0.555-0.427l390.955-260.053c6.357-4.309 13.397-6.315 20.523-6.315s14.165 2.005 20.395 6.144l391.595 260.48c0.555 0.427 1.152 0.853 1.579 1.28 0.768 0.555 1.493 1.195 2.048 1.707s1.067 0.981 1.493 1.493c0.725 0.64 1.28 1.365 1.835 1.92 0.427 0.555 0.853 1.067 1.28 1.579 0.555 0.768 1.067 1.493 1.493 2.219 0.341 0.555 0.768 1.152 1.067 1.621 0.512 0.853 0.939 1.621 1.28 2.475 0.299 0.555 0.555 1.152 0.853 1.707 0.341 0.939 0.64 1.792 0.981 2.688 0.128 0.555 0.427 1.152 0.555 1.707 0.299 1.067 0.427 2.048 0.64 3.072 0.085 0.555 0.213 1.152 0.299 1.579 0.128 1.792 0.299 3.371 0.299 4.992v259.968c0.043 1.664-0.085 3.2-0.341 4.864zM548.779 769.536l288.043-191.573-128.683-85.888-159.36 106.325v171.136zM475.221 769.536v-171.051l-159.36-106.411-128.597 85.888 287.957 191.573zM157.824 509.355l91.904-61.355-91.947-61.355v122.709zM475.221 126.464l-287.957 191.616 128.64 85.803 159.36-106.325v-171.093zM512 361.173l-130.005 86.827 130.005 86.784 130.005-86.784-130.005-86.827zM548.779 126.464v171.051l159.36 106.325 128.683-85.803-288.043-191.573zM866.261 386.645l-91.989 61.355 91.989 61.355v-122.709z" />
<glyph unicode="&#xe92b;" glyph-name="dribbble" d="M512 21.333c-235.264 0-426.667 191.403-426.667 426.667s191.403 426.667 426.667 426.667c235.264 0 426.667-191.403 426.667-426.667s-191.403-426.667-426.667-426.667zM871.851 389.589c-12.459 3.925-112.811 33.877-226.987 15.573 47.659-130.987 67.072-237.653 70.784-259.84 81.749 55.296 139.947 142.891 156.203 244.267zM654.336 111.957c-5.419 31.957-26.581 143.403-77.739 276.352-0.811-0.256-1.621-0.555-2.389-0.811-205.568-71.637-279.339-214.187-285.909-227.584 61.781-48.171 139.435-76.928 223.701-76.928 50.475 0 98.603 10.325 142.336 28.971zM241.237 203.776c8.235 14.123 108.288 179.755 296.235 240.512 4.736 1.536 9.557 2.987 14.379 4.352-9.131 20.693-19.115 41.429-29.525 61.867-182.016-54.485-358.613-52.181-374.528-51.883-0.128-3.712-0.171-7.424-0.171-11.136-0.085-93.653 35.413-179.115 93.611-243.712zM155.264 522.069c16.299-0.213 166.443-0.853 336.939 44.416-60.373 107.349-125.525 197.589-135.125 210.773-101.973-48.085-178.176-142.080-201.813-255.189zM426.581 801.749c10.069-13.483 76.245-103.637 135.979-213.333 129.579 48.555 184.448 122.325 191.019 131.627-64.341 57.088-148.992 91.861-241.579 91.861-29.397 0-57.984-3.541-85.419-10.155zM794.112 677.888c-7.68-10.368-68.779-88.661-203.52-143.659 8.491-17.365 16.597-35.029 24.192-52.779 2.688-6.315 5.291-12.587 7.851-18.816 121.259 15.232 241.749-9.173 253.781-11.733-0.811 86.016-31.573 164.992-82.304 226.987z" />
<glyph unicode="&#xe92c;" glyph-name="dropbox" d="M512 698.283l-253.056-156.288-173.611 138.965 251.008 163.968 175.659-146.645zM85.333 403.029l251.008-163.968 175.659 146.688-253.056 156.245-173.611-138.965zM512 385.749l175.616-146.731 251.051 164.011-173.611 138.965-253.056-156.245zM938.667 680.96l-251.051 163.968-175.616-146.645 253.056-156.288 173.611 138.965zM512.469 354.133l-176.171-146.176-75.392 49.195v-55.083l251.563-150.997 251.605 150.997v55.083l-75.477-49.195-176.128 146.176z" />
<glyph unicode="&#xe92d;" glyph-name="eventbrite" d="M769.749 792.277l-515.499 39.723c-69.717 0-126.251-56.533-126.251-126.251v-515.541c0-69.675 56.533-126.208 126.251-126.208l515.541 39.723c70.699 3.669 126.208 56.533 126.208 126.251v436.053c0 69.717-53.717 122.155-126.251 126.251zM722.475 611.413c-3.499-9.173-8.192-18.432-16.128-23.509-8.021-5.205-20.864-5.632-34.091-5.632-64.896 0-130.645 2.048-196.565 2.048-6.485-30.208-12.971-60.416-19.243-90.795 39.765 0.171 79.915-0.213 119.893-0.213 30.976 0 62.379 2.944 67.669-22.4 1.707-8.064-0.043-18.176-2.219-26.24-4.48-16.213-11.008-28.843-26.667-33.408-7.893-2.304-17.408-2.475-27.563-2.475-48.853 0-100.053-0.725-149.035-0.853-7.211-32.939-13.995-66.261-20.864-99.541 66.987 0.213 130.859 1.749 197.675 2.475 26.752 0.299 46.293-8.277 43.051-36.267-1.323-11.179-4.181-21.205-9.003-30.933-4.352-8.875-10.581-16.043-20.821-19.285-10.112-3.2-23.083-2.731-36.779-3.328-12.971-0.597-26.197-0.341-39.424-0.683-13.184-0.384-26.411-0.939-39.211-0.939-53.461 0-103.637-3.413-157.141-3.115-25.728 0.171-43.264 10.624-47.957 32.299-2.517 11.648-0.768 24.747 1.536 35.883 23.083 110.592 46.208 220.843 69.504 331.221 2.389 11.307 4.864 21.803 9.6 30.464 7.211 12.971 18.091 22.229 33.707 26.453 15.701 4.224 37.675 2.005 57.344 2.005 13.013 0 26.112-0.341 38.997-0.683 39.467-1.109 77.525-1.28 117.205-2.261 12.971-0.299 26.24-0.683 39.040-0.683 26.496 0 49.92-3.115 53.12-26.197 1.664-12.288-2.176-24.192-5.632-33.408z" />
<glyph unicode="&#xe92e;" glyph-name="link" d="M908.288 818.688q64.512-65.024 64.512-156.16t-64.512-156.16l-78.336-77.824q-41.984-41.984-99.84-56.576t-112.128 0.768l134.144 133.632 38.912 39.424 38.912 38.912q32.256 32.256 32.256 77.824t-32.256 77.824q-32.256 32.768-77.824 32.768t-77.824-32.768l-39.424-38.912-173.056-173.056q-14.848 54.272-0.256 112.128t56.576 99.84l77.824 78.336q65.024 64.512 156.416 64.512t155.904-64.512zM439.808 272.384l273.408 273.408q15.872 15.872 15.872 38.912t-15.872 38.912q-17.408 16.384-39.936 15.872t-38.4-15.872l-272.896-273.408q-15.872-15.872-15.872-38.912t15.872-38.912q17.408-16.384 39.936-15.872t37.888 15.872zM400.896 155.136l211.968 212.48q15.36-54.272 0.768-112.128t-56.576-99.84l-77.824-78.336q-65.024-64.512-156.16-64.512t-156.16 64.512q-64.512 64.512-64.512 156.16t64.512 156.16l78.336 77.824q41.984 41.984 99.84 56.576t112.128-0.256l-211.968-212.48q-32.768-32.256-32.768-77.824t32.768-78.336q32.256-32.256 77.824-32.256t77.824 32.256z" />
<glyph unicode="&#xe92f;" glyph-name="globe" d="M512 832c212.032 0 384-171.968 384-384s-171.968-384-384-384-384 171.968-384 384 171.968 384 384 384zM238.080 606.272l-1.408 1.984c-2.304-3.968-4.416-8.064-6.592-12.16l2.24 0.512 8.768 3.136 15.104 1.344zM512 128c132.544 0 246.528 81.088 295.104 196.288l-3.264 5.248 7.488 25.408-17.344 12.608-12.672 3.776-11.776 9.92-27.904-10.56-26.368-1.536-19.968 14.528-19.52 26.752-0.384 16.256 0.448 27.136 2.816 3.776 2.432 9.088 11.392 17.536 6.656 6.528 9.344 10.368 6.528 12.8 18.432 17.472 18.88-0.192 13.824 4.8 33.216 3.584 12.992-18.432 12.096-5.248c-4.224 19.712-10.112 38.848-17.792 57.024l-2.752 2.56-6.72-3.328-14.464-1.344-11.904-10.624-12.992-17.536-25.344-5.824-11.776 4.608 1.344 20.288 6.656 12.608 23.232-1.344 4.288 10.944-12.032 13.312 10.304 4.16 20.224 11.008 7.232 5.824c-24.576 38.848-56.832 72.128-95.36 97.344l-2.176-0.896 10.176-8.896-16.448 2.624-2.304-4.672 10.624-1.28-3.968-4.48-29.952-5.184-38.656-17.152-29.952-14.464-3.136 29.824 8.448 16.32-6.208 10.88-22.976 9.728-11.072 8.576 16.064 3.84 34.56 8.448 14.912 0.832c-32.384 11.072-66.496 18.368-102.528 18.368-73.28 0-140.032-25.728-194.048-67.328l19.136 0.576 39.872-10.24 17.408 3.904 23.808-3.008 14.976 3.648 2.816 9.024 14.080-1.472 5.504-11.392 23.808 2.176-37.376-12.352-18.048-10.432-27.584-21.12 6.848-7.488 19.2-9.024 13.696-14.016 16.832 17.216 9.728 18.944 16.512 11.328 16.512-8.384 4.544-9.216 14.464 5.12 5.12-27.584 10.24-10.048-37.376-9.536-27.392-10.752 21.376 5.888-2.624-8.576 6.784-7.68 5.632-3.584-22.976-9.344 8.064 9.408-12.992-2.816-15.616-7.424-7.104-8.256-17.472-9.664-12.8-10.112-4.864-11.712-16.384-13.376-12.928-29.696-4.032-12.864-11.84 23.744-23.104-0.064-19.2 0.128-24.64-19.84-3.264-21.76 14.848-16.192 28.608 15.36-7.424-21.76-20.224-13.056-19.648 4.736-21.76 9.088-24.96 39.552-11.072 23.616-2.624 8.128 3.712-33.024-0.32-8.576-4.096 5.12-2.496 8.32-4.992 6.208-2.56 11.456-0.128 17.984-13.376 23.168c-8.704-29.056-14.784-59.2-14.784-91.072 0-147.968 101.44-271.616 238.080-308.096l-2.048 6.336-4.8 68.8-5.568 31.424-33.664 32.896-15.872 28.16-5.312 13.952 3.84 8.256 7.040 26.496 3.776 30.848-4.16 2.368-7.488-5.44-9.984 4.672 6.72 3.136 29.952 6.912 19.712 8.832-1.216-13.376 7.296 12.096 9.856-3.456 33.856-10.816 24.256-16.832 17.472-9.664 4.16-2.752-4.096-24.384 16.704 4.736-4.16-8.32 23.68-5.056 24-1.984 15.68-9.856 0.64-28.672-11.392-32.704-13.824-34.048-25.088-15.424-19.968-45.44-18.048 2.56 8.576-11.712-0.96-8.256-16.64-13.248c9.728-0.896 19.072-2.944 28.992-2.944z" />
<glyph unicode="&#xe930;" glyph-name="facebook-alt" d="M591.104 571.904h164.352l-7.232-151.36h-157.12v-420.544h-160.064v420.544h-111.040v151.36h111.040v129.28c0 101.504 65.728 194.816 217.088 194.816 61.248 0 106.496-5.824 106.496-5.824l-3.52-141.312s-46.272 0.32-96.768 0.32c-54.464 0-63.232-25.152-63.232-66.752 0-6.208 0-7.68 0-6.976v-103.552z" />
<glyph unicode="&#xe931;" glyph-name="paypal" d="M868 590.848q10.272-48-2.272-116.576-49.728-253.728-322.848-253.728h-25.152q-14.272 0-25.152-9.44t-13.728-24.288l-2.272-10.848-31.424-197.728-1.152-8.576q-2.848-14.848-14.016-24.288t-25.44-9.44h-143.424q-12 0-18.848 8.576t-5.152 20.576q5.152 32 15.136 96t15.136 96 15.424 95.712 15.424 95.712q2.848 21.152 24.576 21.152h74.848q76-1.152 134.848 12 100 22.272 164 82.272 58.272 54.272 88.576 140.576 13.728 40 20 76 0.576 3.424 1.44 4.288t2.016 0.576 3.424-2.016q45.152-33.728 56-92.576zM769.728 752q0-61.152-26.272-134.848-45.728-133.152-172.576-180-64.576-22.848-144-24 0-0.576-51.424-0.576l-51.424 0.576q-57.152 0-67.424-54.848-1.152-4.576-48.576-302.848-0.576-5.728-6.848-5.728h-168.576q-12.576 0-20.864 9.44t-6.56 22.016l132.576 840.576q2.848 16.576 15.712 27.424t29.44 10.848h341.728q19.424 0 55.712-7.424t63.712-18.272q61.152-23.424 93.44-70.272t32.288-112z" />
<glyph unicode="&#xe932;" glyph-name="paypal-card" horiz-adv-x="1312" d="M425.728 442.272q0-21.152-14.56-35.136t-35.712-14.016q-16.576 0-26.56 9.152t-10.016 25.152q0 21.152 14.272 35.712t35.424 14.56q16 0 26.56-9.44t10.56-25.984zM874.272 527.424q0-24-12.576-32.576t-37.728-8.576l-18.272-0.576 9.728 61.152q1.152 6.272 7.424 6.272h10.272q12.576 0 20-1.152t14.272-7.136 6.848-17.44zM1074.848 442.272q0-20.576-14.56-34.848t-35.136-14.272q-16.576 0-26.848 9.152t-10.272 25.152q0 21.152 14.272 35.712t35.424 14.56q16 0 26.56-9.44t10.56-26.016zM293.152 540q0 33.728-22.016 48.864t-57.44 15.136h-91.424q-10.848 0-12-10.848l-37.152-233.152q-0.576-3.424 1.728-6.272t5.728-2.848h43.424q11.424 0 12.576 10.848l10.272 62.848q0.576 4.576 4 7.424t8.576 3.712 9.728 0.864 10.848-0.576 8-0.576q49.152 0 77.152 27.712t28 76.864zM469.728 361.728l23.424 149.152q0.576 3.424-1.728 6.272t-5.728 2.848h-43.424q-8 0-9.728-18.848-15.424 22.848-54.272 22.848-41.152 0-70.016-30.848t-28.864-72.576q0-33.728 19.712-53.728t52.864-20q16 0 33.152 6.848t27.424 18.272q-2.272-6.848-2.272-12 0-9.152 7.424-9.152h39.424q10.848 0 12.576 10.848zM725.152 512q0 2.848-2.272 5.44t-5.152 2.56h-44q-6.272 0-10.272-5.728l-60.576-89.152-25.152 85.728q-2.848 9.152-12.576 9.152h-42.848q-2.848 0-5.152-2.56t-2.272-5.44q0-1.152 11.136-33.728t24-70.272 13.44-40q-46.848-64-46.848-68.576 0-7.424 7.424-7.424h44q6.272 0 10.272 5.728l145.728 210.272q1.152 1.152 1.152 4zM942.272 540q0 33.728-22.016 48.864t-57.44 15.136h-90.848q-11.424 0-12.576-10.848l-37.152-233.152q-0.576-3.424 1.728-6.272t5.728-2.848h46.848q6.848 0 9.152 7.424l10.272 66.272q0.576 4.576 4 7.424t8.576 3.712 9.728 0.864 10.848-0.576 8-0.576q49.152 0 77.152 27.712t28 76.864zM1118.848 361.728l23.424 149.152q0.576 3.424-1.728 6.272t-5.728 2.848h-43.424q-8 0-9.728-18.848-14.848 22.848-54.272 22.848-41.152 0-70.016-30.848t-28.864-72.576q0-33.728 19.712-53.728t52.864-20q16.576 0 33.728 6.848t26.848 18.272q0-0.576-1.152-5.152t-1.152-6.848q0-9.152 7.424-9.152h39.424q10.848 0 12.576 10.848zM1243.424 595.424v0.576q0 8-7.424 8h-42.272q-6.272 0-7.424-6.272l-37.152-237.728-0.576-1.152q0-2.848 2.272-5.44t5.728-2.56h37.728q10.848 0 12 10.848zM224 518.848q-2.848-20-14.848-26.272t-34.272-6.272l-18.848-0.576 9.728 61.152q1.152 6.272 7.424 6.272h10.848q22.848 0 33.152-6.56t6.848-27.712zM1316.576 813.728v-731.424q0-29.728-21.728-51.424t-51.424-21.728h-1170.272q-29.728 0-51.424 21.728t-21.728 51.424v731.424q0 29.728 21.728 51.424t51.424 21.728h1170.272q29.728 0 51.424-21.728t21.728-51.424z" />
<glyph unicode="&#xe933;" glyph-name="slack" horiz-adv-x="960" d="M868 516.576q35.424 0 59.136-23.136t23.712-58.016q0-55.424-53.152-74.272l-98.272-33.728 32-95.424q4-12 4-26.848 0-33.728-24-58.272t-57.728-24.576q-26.848 0-48.864 15.424t-30.56 41.152l-31.424 94.272-177.152-60.576 31.424-93.728q4.576-13.728 4.576-26.848 0-33.728-24-58.272t-58.272-24.576q-26.848 0-48.576 15.424t-30.272 41.152l-31.424 93.152-87.424-30.272q-16.576-5.152-28.576-5.152-34.848 0-58.016 22.848t-23.136 57.728q0 26.848 15.712 48.576t40.864 30.272l89.152 30.272-60 178.848-89.152-30.848q-14.848-4.576-27.424-4.576-34.272 0-57.728 23.136t-23.424 57.44q0 26.848 15.712 48.576t40.864 30.272l89.728 30.272-30.272 90.848q-4.576 13.728-4.576 26.848 0 34.272 24 58.56t58.272 24.288q26.848 0 48.576-15.424t30.272-41.152l30.848-91.424 177.152 60-30.848 91.424q-4.576 13.728-4.576 26.848 0 33.728 24.288 58.272t57.984 24.576q26.848 0 48.864-15.712t30.56-40.864l30.272-92 92.576 31.424q12 3.424 24.576 3.424 34.272 0 58.56-22.56t24.288-56.288q0-25.728-17.152-46.56t-42.272-29.44l-89.728-30.848 60-180.576 93.728 32q13.728 4.576 26.272 4.576zM414.272 366.848l177.152 60-60 180-177.152-61.152z" />
<glyph unicode="&#xe934;" glyph-name="star" horiz-adv-x="960" d="M950.848 590.272q0-12.576-14.848-27.424l-207.424-202.272 49.152-285.728q0.576-4 0.576-11.424 0-12-6.016-20.288t-17.44-8.288q-10.848 0-22.848 6.848l-256.576 134.848-256.576-134.848q-12.576-6.848-22.848-6.848-12 0-18.016 8.288t-6.016 20.288q0 3.424 1.152 11.424l49.152 285.728-208 202.272q-14.272 15.424-14.272 27.424 0 21.152 32 26.272l286.848 41.728 128.576 260q10.848 23.424 28 23.424t28-23.424l128.576-260 286.848-41.728q32-5.152 32-26.272z" />
<glyph unicode="&#xe935;" glyph-name="stripe-card" horiz-adv-x="1312" d="M912.576 444q0-39.424-12-60.576-10.848-20-29.728-20-13.152 0-23.424 5.152v128q16.576 17.152 32.576 17.152 32.576 0 32.576-69.728zM1162.848 464.576h-62.848q3.424 56 32 56 29.152 0 30.848-56zM272 387.424q0 33.728-18.848 52.288t-57.728 32.864q-20.576 7.424-29.728 13.728t-9.152 14.272q0 14.848 21.728 14.848 33.152 0 70.848-18.848l10.272 64q-38.272 18.272-85.152 18.272-44 0-70.272-21.728-27.424-22.272-27.424-62.272 0-33.152 18.56-51.712t56.864-32.288q22.272-8 31.136-14.56t8.864-15.712q0-17.728-27.424-17.728-16.576 0-40 7.136t-41.152 17.44l-10.272-64.576q41.152-23.424 96-23.424 46.272 0 73.728 21.152 29.152 23.424 29.152 66.848zM440.576 510.272l10.848 63.424h-54.848v77.152l-73.728-12-10.272-65.152-26.272-4.576-9.728-58.848h35.424v-125.152q0-48 25.152-68.576 21.728-17.152 63.424-17.152 18.272 0 45.152 6.272v67.424q-18.272-4-25.152-4-24 0-24 28.576v112.576h44zM621.152 496v79.424q-8.576 1.728-16 1.728-18.272 0-31.712-9.152t-19.136-26.272l-5.728 32h-74.848v-269.152h85.728v174.848q14.848 17.728 46.848 17.728 9.152 0 14.848-1.152zM642.272 304.576h85.728v269.152h-85.728v-269.152zM997.728 446.848q0 69.728-25.728 102.272-22.848 29.728-63.424 29.728-36.576 0-66.848-32l-4.576 26.848h-75.424v-368.576l85.728 14.272v86.272q20.576-6.272 38.848-6.272 47.424 0 76.576 32 34.848 37.152 34.848 115.424zM730.272 645.728q0 18.848-13.152 32t-32 13.152-32-13.152-13.152-32 13.152-32.288 32-13.44 32 13.44 13.152 32.288zM1243.424 441.728q0 64.576-27.424 100.576-28.576 36.576-82.272 36.576-54.848 0-86.56-37.728t-31.712-102.848q0-73.152 36-107.424 31.424-31.424 92-31.424 57.728 0 91.424 22.848l-9.152 58.848q-32.576-17.728-73.152-17.728-24.576 0-36 10.848-13.152 10.848-16 37.728h141.728q1.152 8 1.152 29.728zM1316.576 813.728v-731.424q0-29.728-21.728-51.424t-51.424-21.728h-1170.272q-29.728 0-51.424 21.728t-21.728 51.424v731.424q0 29.728 21.728 51.424t51.424 21.728h1170.272q29.728 0 51.424-21.728t21.728-51.424z" />
<glyph unicode="&#xe936;" glyph-name="visa-card" horiz-adv-x="1312" d="M1128.576 394.272h-78.848q8 21.152 37.728 102.272l1.728 5.152q2.272 5.728 5.728 14.848t5.152 14.848l6.848-31.424zM303.424 431.424l-33.152 168.576q-6.272 30.848-42.848 30.848h-153.152l-1.152-7.424q177.728-45.152 230.272-192zM405.728 630.848l-92.576-250.272-9.728 50.848q-14.848 40-48.576 74.016t-74.848 50.56l77.152-291.424h100l149.152 366.272h-100.576zM485.152 264h94.848l59.424 366.848h-94.848zM924 621.728q-39.424 15.424-85.152 15.424-70.272 0-114.848-33.728t-45.152-87.424q-0.576-58.272 82.848-99.424 27.424-13.152 38.272-23.424t10.848-22.272q0-17.152-17.152-26.272t-39.424-9.152q-49.152 0-89.152 18.848l-12.576 6.272-13.152-82.272q42.272-19.424 105.728-19.424 74.272-0.576 119.136 33.728t46.016 91.424q0 60.576-80 99.424-28 14.272-40.576 24t-12.576 21.728q0 12.576 14.016 22.016t40.288 9.44q40 0.576 70.848-13.728l8.576-4.576zM1166.848 630.848h-73.152q-37.152 0-49.728-30.848l-140.576-336h99.424l20 54.848h121.152q2.848-12.576 11.424-54.848h88zM1316.576 813.728v-731.424q0-29.728-21.728-51.424t-51.424-21.728h-1170.272q-29.728 0-51.424 21.728t-21.728 51.424v731.424q0 29.728 21.728 51.424t51.424 21.728h1170.272q29.728 0 51.424-21.728t21.728-51.424z" />
<glyph unicode="&#xe937;" glyph-name="yelp" d="M441.728 206.272v-72.576q-0.576-166.848-3.424-174.272-6.848-18.272-29.152-22.848-30.848-5.152-103.712 21.728t-92.864 50.848q-7.424 8.576-9.728 20.576-0.576 6.848 2.272 14.848 2.272 5.728 19.424 26.848t103.424 123.424q0.576 0 34.272 40 8.576 10.848 22.56 14.016t28.288-2.016q13.728-5.728 21.44-16.576t7.136-24zM356.576 349.728q-1.728-31.424-29.728-40l-68.576-22.272q-157.152-50.272-166.848-50.272-20 1.152-30.848 20.576-6.848 14.272-9.728 42.848-4.576 43.424 0.576 95.136t17.152 71.136 32 18.272q7.424 0 115.424-44 40.576-16.576 65.728-26.848l48-19.424q13.152-5.152 20.288-17.44t6.56-27.712zM828.576 180q-4-30.848-52.288-92t-77.44-72.576q-21.152-8-36 4-8 5.728-105.152 164l-26.848 44q-8 12-6.56 26.272t11.136 26.272q20 24.576 47.424 14.848 0.576-0.576 68-22.848 116-37.728 138.272-45.44t26.848-11.712q16-12.576 12.576-34.848zM444.576 541.152q2.848-58.272-30.848-69.728-33.152-9.728-65.152 40.576l-216 341.728q-4.576 20 10.848 35.424 23.424 24.576 118.56 51.136t128.288 18.016q22.848-5.728 28-25.728 1.728-10.272 12.576-174.56t13.728-216.864zM822.848 479.424q1.728-22.272-14.848-33.728-8.576-5.728-188-49.152-38.272-8.576-52-13.152l0.576 1.152q-13.152-3.424-26.272 2.272t-21.152 18.272q-17.152 26.848 0 49.728 0.576 0.576 42.848 58.272 71.424 97.728 85.728 116.576t19.424 22.272q16 10.848 37.152 1.152 27.424-13.152 70.272-76.288t46.272-95.712v-1.728z" />
<glyph unicode="&#xe938;" glyph-name="credit-card" horiz-adv-x="1088" d="M1005.728 886.848q37.728 0 64.576-26.848t26.848-64.576v-694.848q0-37.728-26.848-64.576t-64.576-26.848h-914.272q-37.728 0-64.576 26.848t-26.848 64.576v694.848q0 37.728 26.848 64.576t64.576 26.848h914.272zM91.424 813.728q-7.424 0-12.864-5.44t-5.44-12.864v-128h950.848v128q0 7.424-5.44 12.864t-12.864 5.44h-914.272zM1005.728 82.272q7.424 0 12.864 5.44t5.44 12.864v347.424h-950.848v-347.424q0-7.424 5.44-12.864t12.864-5.44h914.272zM146.272 155.424v73.152h146.272v-73.152h-146.272zM365.728 155.424v73.152h219.424v-73.152h-219.424z" />
<glyph unicode="&#xe939;" glyph-name="heart" d="M512 9.152q-14.848 0-25.152 10.272l-356.576 344q-5.728 4.576-15.712 14.848t-31.712 37.44-38.848 55.712-30.56 69.152-13.44 78.848q0 125.728 72.576 196.576t200.576 70.848q35.424 0 72.288-12.288t68.576-33.152 54.56-39.136 43.424-38.848q20.576 20.576 43.424 38.848t54.56 39.136 68.576 33.152 72.288 12.288q128 0 200.576-70.848t72.576-196.576q0-126.272-130.848-257.152l-356-342.848q-10.272-10.272-25.152-10.272z" />
<glyph unicode="&#xe93a;" glyph-name="id-card" horiz-adv-x="1184" d="M512 267.424q0-31.424-18.016-53.44t-43.136-22.016h-243.424q-25.152 0-43.136 22.016t-18.016 53.44q0 30.848 4.288 57.44t14.016 51.424 29.152 39.136 46.272 14.272q36.576-36.576 89.152-36.576t89.152 36.576q26.848 0 46.272-14.272t29.152-39.136 14.016-51.424 4.288-57.44zM438.848 521.152q0-45.728-32-77.728t-77.728-32-77.728 32-32 77.728 32 77.728 77.728 32 77.728-32 32-77.728zM1024 283.424v-36.576q0-8-5.152-13.152t-13.152-5.152h-402.272q-8 0-13.152 5.152t-5.152 13.152v36.576q0 8 5.152 13.152t13.152 5.152h402.272q8 0 13.152-5.152t5.152-13.152zM804.576 429.728v-36.576q0-8-5.152-13.152t-13.152-5.152h-182.848q-8 0-13.152 5.152t-5.152 13.152v36.576q0 8 5.152 13.152t13.152 5.152h182.848q8 0 13.152-5.152t5.152-13.152zM1024 429.728v-36.576q0-8-5.152-13.152t-13.152-5.152h-109.728q-8 0-13.152 5.152t-5.152 13.152v36.576q0 8 5.152 13.152t13.152 5.152h109.728q8 0 13.152-5.152t5.152-13.152zM1024 576v-36.576q0-8-5.152-13.152t-13.152-5.152h-402.272q-8 0-13.152 5.152t-5.152 13.152v36.576q0 8 5.152 13.152t13.152 5.152h402.272q8 0 13.152-5.152t5.152-13.152zM1097.152 100.576v640h-1024v-640q0-7.424 5.44-12.864t12.864-5.44h987.424q7.424 0 12.864 5.44t5.44 12.864zM1170.272 795.424v-694.848q0-37.728-26.848-64.576t-64.576-26.848h-987.424q-37.728 0-64.576 26.848t-26.848 64.576v694.848q0 37.728 26.848 64.576t64.576 26.848h987.424q37.728 0 64.576-26.848t26.848-64.576z" />
<glyph unicode="&#xe93b;" glyph-name="mastercard-card" horiz-adv-x="1312" d="M639.424 765.152q-73.152 48.576-160.576 48.576-58.848 0-112.864-23.136t-92.864-62.016-62.016-92.576-23.136-112.576q0-59.424 23.136-113.152t62.016-92.576 92.576-62.016 113.152-23.136q87.424 0 160.576 48.576-74.848 61.152-101.728 151.712t0.288 180.864 101.44 151.424zM658.272 751.424q-72-56.576-98.272-142.56t-0.288-171.712 98.56-142.272q72.576 56.576 98.56 142.272t-0.288 171.712-98.272 142.56zM677.152 765.152q74.272-61.152 101.44-151.712t0.288-181.152-101.728-151.136q73.152-48.576 160.576-48.576 59.424 0 113.152 23.136t92.576 62.016 62.016 92.576 23.136 113.152q0 58.848-23.136 112.576t-62.016 92.576-92.864 62.016-112.864 23.136q-87.424 0-160.576-48.576zM1100.576 352.576h4v1.728h-9.728v-1.728h4v-9.728h1.728v9.728zM1117.152 342.848h2.272v11.424h-2.848l-3.424-7.424-3.424 7.424h-2.848v-11.424h1.728v8.576l3.424-7.424h2.272l2.848 7.424v-8.576zM1112.576 91.424v-1.152h-2.848v1.728h2.848v-0.576zM1112.576 86.272h1.728l-2.272 2.848h1.152l0.576 0.576q0.576 0.576 0.576 1.728t-0.576 1.728l-0.576 0.576h-5.152v-7.424h1.728v2.848h0.576zM391.424 125.152q0 10.848 6.272 17.728t17.152 6.848q10.272 0 16.576-7.136t6.272-17.44q0-10.848-6.272-17.728t-16.576-6.848q-10.848 0-17.152 6.848t-6.272 17.728zM661.728 150.272q17.152 0 20-18.272h-40q2.848 18.272 20 18.272zM865.152 125.152q0 10.848 6.272 17.728t16.576 6.848 16.864-7.136 6.56-17.44q0-10.848-6.272-17.728t-17.152-6.848q-10.272 0-16.576 6.848t-6.272 17.728zM1020.576 125.152q0 10.272 6.56 17.44t16.864 7.136 16.864-7.136 6.56-17.44q0-10.848-6.56-17.728t-16.864-6.848-16.864 7.136-6.56 17.44zM1110.848 84q-1.152 0-2.272 0.576-0.576 0-1.728 1.152t-1.152 1.728q-0.576 1.152-0.576 2.272 0 1.728 0.576 2.272 0 1.152 1.152 2.272l0.576 0.576q1.152 0 1.152 0.576 1.152 0.576 2.272 0.576 1.728 0 2.272-0.576l2.272-1.152 1.152-2.272v-0.576q0.576-1.152 0.576-1.728l-0.576-0.576v-1.728t-0.576-0.576l-0.576-1.152q-1.152-1.152-2.272-1.152-0.576-0.576-2.272-0.576zM342.272 86.272h17.152v48.576q0 13.728-8.288 22.016t-22.56 8.864q-18.272 0-26.848-13.728-8 13.728-25.728 13.728-13.728 0-22.272-11.424v9.152h-17.152v-77.152h17.152v42.848q0 20.576 18.848 20.576 17.152 0 17.152-20.576v-42.848h16.576v42.848q0 20.576 18.848 20.576 17.152 0 17.152-20.576v-42.848zM437.152 86.272h16.576v77.152h-16.576v-9.152q-9.728 11.424-24.576 11.424-16.576 0-27.424-11.424t-10.848-29.152 10.848-29.152 27.424-11.424q16 0 24.576 11.424v-9.728zM538.848 109.728q0 19.424-26.848 22.848l-8 1.152q-13.152 2.272-13.152 8 0 8.576 14.272 8.576 13.152 0 24.576-6.272l6.848 13.728q-12.576 8-31.424 8-14.848 0-23.424-6.848t-8.576-18.272q0-18.848 26.848-22.272l7.424-1.152q13.728-2.272 13.728-8 0-9.728-17.728-9.728-14.272 0-25.728 8l-7.424-13.152q14.272-9.728 33.152-9.728 16.576 0 26.016 6.848t9.44 18.272zM613.152 90.272l-4.576 14.272q-7.424-4-14.848-4-10.848 0-10.848 12.576v34.848h27.424v15.424h-27.424v23.424h-17.152v-23.424h-16v-15.424h16v-34.848q0-28.576 26.848-28.576 12 0 20.576 5.728zM662.272 165.728q-16.576 0-27.424-11.424t-10.848-29.152q0-18.272 11.136-29.44t28.288-11.136q18.848 0 31.424 10.848l-8 12.576q-10.272-8.576-22.272-8.576-19.424 0-23.424 18.848h57.728v6.848q0 18.272-10.272 29.44t-26.272 11.136zM753.152 165.728q-13.152 0-20-11.424v9.152h-17.152v-77.152h17.152v43.424q0 20 16.576 20 5.728 0 10.272-2.272l5.152 16q-5.152 2.272-12 2.272zM770.272 125.152q0-17.728 11.136-29.152t30.016-11.424q16.576 0 27.424 9.152l-8 13.728q-10.272-7.424-20-6.848-10.272 0-16.864 6.848t-6.56 17.728 6.56 17.728 16.864 6.848q10.848 0 20-6.848l8 13.728q-11.424 9.152-27.424 9.152-18.848 0-30.016-11.424t-11.136-29.152zM910.272 86.272h17.152v77.152h-17.152v-9.152q-8.576 11.424-24 11.424-16.576 0-27.712-11.424t-11.136-29.152 11.136-29.152 27.712-11.424q16 0 24 11.424v-9.728zM986.272 165.728q-13.152 0-20-11.424v9.152h-16.576v-77.152h16.576v43.424q0 20 16.576 20 5.728 0 10.272-2.272l5.152 16q-4.576 2.272-12 2.272zM1066.272 86.272h16.576v108.576h-16.576v-40.576q-8.576 11.424-24.576 11.424t-27.136-11.712-11.136-28.864 11.136-28.864 27.136-11.712q16.576 0 24.576 11.424v-9.728zM1110.848 97.728l-1.152-0.576h-1.728q-1.152-0.576-2.272-1.728-1.728-0.576-1.728-2.272-0.576-1.152-0.576-3.424 0-1.728 0.576-2.848 0-1.152 1.728-2.272 1.152-1.152 2.272-1.728t2.848-0.576q2.272 0 3.424 0.576 0 0.576 1.152 1.152l1.152 0.576q0.576 0.576 1.728 2.272 0.576 1.152 0.576 2.848 0 2.272-0.576 3.424-0.576 0.576-1.728 2.272 0 0.576-1.152 1.152l-1.152 0.576q-0.576 0-1.728 0.288t-1.728 0.288zM1316.576 813.728v-731.424q0-29.728-21.728-51.424t-51.424-21.728h-1170.272q-29.728 0-51.424 21.728t-21.728 51.424v731.424q0 29.728 21.728 51.424t51.424 21.728h1170.272q29.728 0 51.424-21.728t21.728-51.424z" />
<glyph unicode="&#xe93c;" glyph-name="money" horiz-adv-x="1088" d="M438.848 301.728h219.424v54.848h-73.152v256h-65.152l-84.576-78.272 44-45.728q24 21.152 31.424 32.576h1.152v-164.576h-73.152v-54.848zM731.424 448q0-40-12-81.152t-34.016-76.576-58.016-57.728-78.848-22.272-78.848 22.272-58.016 57.728-34.016 76.576-12 81.152 12 81.152 34.016 76.576 58.016 57.728 78.848 22.272 78.848-22.272 58.016-57.728 34.016-76.576 12-81.152zM1024 301.728v292.576q-60.576 0-103.424 42.848t-42.848 103.424h-658.272q0-60.576-42.848-103.424t-103.424-42.848v-292.576q60.576 0 103.424-42.848t42.848-103.424h658.272q0 60.576 42.848 103.424t103.424 42.848zM1097.152 777.152v-658.272q0-14.848-10.848-25.728t-25.728-10.848h-1024q-14.848 0-25.728 10.848t-10.848 25.728v658.272q0 14.848 10.848 25.728t25.728 10.848h1024q14.848 0 25.728-10.848t10.848-25.728z" />
<glyph unicode="&#xe93d;" glyph-name="smartphone" d="M307.2 857.6h409.6q20.992 0 36.096-15.104t15.104-36.096v-716.8q0-20.992-15.104-36.096t-36.096-15.104h-409.6q-20.992 0-36.096 15.104t-15.104 36.096v716.8q0 20.992 15.104 36.096t36.096 15.104zM665.6 243.2v512h-307.2v-512h307.2zM409.6 704h204.8l-204.8-256v256z" />
<glyph unicode="&#xe93e;" glyph-name="phone" d="M617.472 652.8l-10.752 10.24q-13.312 13.824-16.384 24.064t1.792 19.456 18.688 23.040l139.264 140.8q5.632 5.632 14.080 14.592t12.032 12.544 9.728 8.96 9.472 6.144 8.704 1.792 9.984-1.536 10.752-6.656 13.824-11.264l10.752-10.24zM644.608 629.76l225.28 225.28q10.752-14.336 21.248-30.464t24.064-39.936 23.040-48.64 15.872-51.2 5.12-53.248-11.008-49.92q-16.896-38.912-30.208-60.16t-35.584-47.616-36.608-45.824q-115.712-131.584-307.2-310.784-20.992-14.848-46.080-37.12t-46.848-36.096-60.672-29.184q-22.016-8.704-48.64-9.216t-52.992 6.4-51.456 16.128-49.664 22.784-40.96 23.296-31.744 20.48l225.28 225.28 60.416-82.944q8.192-11.776 24.832-8.448t33.792 14.592 33.536 27.648q11.776 11.776 47.36 47.616t60.416 60.672 53.504 54.528 43.52 45.568q16.384 16.384 27.392 33.28t14.848 33.536-8.448 25.344zM80.384 115.2l-10.752 10.752q-7.68 8.192-12.032 14.336t-4.864 12.544-0.512 9.984 5.632 10.752 8.704 10.496 13.824 13.568 15.872 15.36l140.288 139.264q20.992 19.968 32.512 21.76t32.512-16.128l10.24-10.752z" />
<glyph unicode="&#xe93f;" glyph-name="user" d="M512 486.4q-23.552 0-44.288 9.728t-34.56 25.344-25.088 34.304-17.664 37.376-10.752 34.304-5.888 25.344l-1.536 9.728q-3.072 28.16-1.536 55.552t12.544 52.736 27.136 44.544 42.24 30.72 57.856 11.52q52.736 0 87.552-30.208t46.592-73.728 4.608-91.136q-0.512-3.584-1.536-9.984t-5.376-24.576-10.496-34.816-17.152-37.12-24.576-35.072-34.048-24.576-44.032-9.984zM512 354.816l139.264 93.184q59.392 0 113.408-34.304t86.016-88.064 32-109.568v-127.488q-7.68-2.56-21.248-6.4t-55.808-13.824-84.224-17.664-99.84-13.824-109.568-6.144q-82.944 0-175.616 14.592t-143.872 28.928l-51.2 14.336v127.488q0 57.344 29.696 110.080t83.2 86.016 115.968 33.28z" />
<glyph unicode="&#xe940;" glyph-name="location" d="M512 857.6q-83.456 0-154.112-41.216t-111.872-111.872-41.216-154.112q0-72.704 35.84-136.448t93.696-113.92q2.048-1.536 12.032-9.984t15.104-13.056 15.36-14.080 17.664-16.896 16.896-18.176 17.664-21.504q68.096-89.088 82.944-138.752 14.848 49.664 82.944 138.752 8.192 10.752 17.664 21.504t16.896 18.176 17.664 16.896 15.36 14.080 15.104 13.056 12.032 9.984q57.856 50.176 93.696 113.92t35.84 136.448q0 83.456-41.216 154.112t-111.872 111.872-154.112 41.216zM512 726.528q72.704 0 124.416-51.712t51.712-124.416-51.712-124.416-124.416-51.712-124.416 51.712-51.712 124.416 51.712 124.416 124.416 51.712z" />
</font>
</defs>
</svg>
