<svg version="1.1" xmlns="http://www.w3.org/2000/svg" xmlns:xlink="http://www.w3.org/1999/xlink" width="32" height="32" viewBox="0 0 32 32">
<path d="M27.28 4.32q1.52 1.52 2.056 3.592t0 4.136-2.056 3.584l-11.28 11.312q-1.472 1.488-3.456 2.040t-3.984 0.080-3.536-1.88q-0.032-0.016-0.144-0.104t-0.16-0.136q-1.52-1.52-2.056-3.584t0-4.128 2.056-3.6l7.904-7.92q1.072-1.088 2.592-1.328t2.832 0.4q0.848 0.416 1.328 0.928 1.408 1.408 1.408 3.392t-1.408 3.392l-7.888 7.92q-0.464 0.464-1.128 0.464t-1.128-0.464-0.464-1.128 0.464-1.128l7.888-7.92q0.464-0.464 0.464-1.128t-0.464-1.128q-0.448-0.464-1.12-0.464t-1.12 0.464l-7.904 7.92q-1.072 1.088-1.32 2.608t0.408 2.832q0.384 0.816 0.912 1.344t1.344 0.912q1.312 0.656 2.824 0.416t2.6-1.328l11.28-11.312q1.392-1.408 1.392-3.4t-1.392-3.4q-1.328-1.296-3.2-1.376-0.192 0.016-0.384 0-0.592-0.080-0.96-0.432-0.464-0.48-0.456-1.16t0.488-1.16q0.336-0.336 0.896-0.448 0.304-0.048 0.64 0.032 3.104 0.16 5.232 2.288z"></path>
</svg>
