<svg version="1.1" xmlns="http://www.w3.org/2000/svg" xmlns:xlink="http://www.w3.org/1999/xlink" width="32" height="32" viewBox="0 0 32 32">
<path d="M24 6.4h4.8v24h-25.6v-24h4.8v-1.6q0-0.96 0.704-1.696 0.704-0.704 1.696-0.704t1.696 0.704q0.704 0.736 0.704 1.696v1.6h6.4v-1.6q0-0.96 0.704-1.696 0.704-0.704 1.696-0.704t1.696 0.704q0.704 0.736 0.704 1.696v1.6zM9.6 4.8v4q0 0.336 0.24 0.576 0.224 0.224 0.56 0.224t0.56-0.224q0.24-0.24 0.24-0.576v-4q0-0.352-0.24-0.56-0.208-0.24-0.56-0.24t-0.56 0.24q-0.24 0.208-0.24 0.56zM20.8 4.8v4q0 0.32 0.224 0.576 0.256 0.224 0.576 0.224t0.576-0.224q0.224-0.256 0.224-0.576v-4q0-0.336-0.224-0.56-0.24-0.24-0.576-0.24t-0.576 0.24q-0.224 0.224-0.224 0.56zM27.2 28.8v-16h-22.4v16h22.4zM11.2 14.4v3.2h-3.2v-3.2h3.2zM14.4 14.4h3.2v3.2h-3.2v-3.2zM20.8 17.6v-3.2h3.2v3.2h-3.2zM11.2 19.2v3.2h-3.2v-3.2h3.2zM14.4 19.2h3.2v3.2h-3.2v-3.2zM20.8 22.4v-3.2h3.2v3.2h-3.2zM11.2 24v3.2h-3.2v-3.2h3.2zM17.6 27.2h-3.2v-3.2h3.2v3.2zM24 27.2h-3.2v-3.2h3.2v3.2z"></path>
</svg>
