<svg version="1.1" xmlns="http://www.w3.org/2000/svg" xmlns:xlink="http://www.w3.org/1999/xlink" width="32" height="32" viewBox="0 0 32 32">
<path d="M30.4 23.2v-14.4q0-0.992-0.704-1.696t-1.696-0.704h-22.416q-0.992 0-1.696 0.704t-0.704 1.696v14.4q0 0.992 0.704 1.696t1.696 0.704h22.416q0.992 0 1.696-0.704t0.704-1.696zM28.304 8.624q0.24 0.24 0.28 0.52t-0.064 0.472-0.264 0.352l-6.496 5.952 6.24 6.496q0.416 0.48 0.096 0.816-0.144 0.176-0.448 0.192t-0.448-0.112l-6.992-5.968-3.424 3.12-3.408-3.12-6.992 5.968q-0.144 0.128-0.448 0.112t-0.448-0.192q-0.32-0.336 0.096-0.816l6.24-6.496-6.496-5.952q-0.16-0.16-0.264-0.352t-0.064-0.472 0.28-0.52q0.64-0.64 1.52 0.112l9.984 8.064 10-8.064q0.88-0.752 1.52-0.112z"></path>
</svg>
