<svg version="1.1" xmlns="http://www.w3.org/2000/svg" xmlns:xlink="http://www.w3.org/1999/xlink" width="32" height="32" viewBox="0 0 32 32">
<path d="M25.6 6.4h3.136q0.688 0 1.176 0.488t0.488 1.176v20.672q0 0.688-0.488 1.176t-1.176 0.488h-20.672q-0.688 0-1.176-0.488t-0.488-1.176v-3.136h-3.136q-0.688 0-1.176-0.488t-0.488-1.176v-20.672q0-0.688 0.488-1.176t1.176-0.488h20.672q0.688 0 1.176 0.488t0.488 1.176v3.136zM4.8 22.4h17.6v-17.6h-17.6v17.6zM12.8 8.8q0-0.992-0.704-1.696t-1.696-0.704-1.696 0.704-0.704 1.696 0.704 1.696 1.696 0.704 1.696-0.704 0.704-1.696zM16 16q0.032-0.16 0.096-0.448t0.296-1.12 0.488-1.592 0.688-1.68 0.888-1.584 1.072-1.12 1.272-0.456v12.8h-14.4v-9.6q0.896 0 1.552 0.496t0.96 1.2 0.48 1.408 0.192 1.2l0.016 0.496q0.016-0.064 0.040-0.184t0.128-0.448 0.248-0.632 0.408-0.672 0.576-0.632 0.784-0.448 1.016-0.184q0.752 0 1.352 0.328t0.928 0.8 0.552 0.944 0.304 0.808zM27.2 27.2v-17.6h-1.6v14.336q0 0.688-0.488 1.176t-1.176 0.488h-14.336v1.6h17.6z"></path>
</svg>
