<svg version="1.1" xmlns="http://www.w3.org/2000/svg" xmlns:xlink="http://www.w3.org/1999/xlink" width="32" height="32" viewBox="0 0 32 32">
<path d="M3.6 1.6h24.8q0.832 0 1.416 0.584t0.584 1.416v24.8q0 0.832-0.584 1.416t-1.416 0.584h-24.8q-0.832 0-1.416-0.584t-0.584-1.416v-24.8q0-0.832 0.584-1.416t1.416-0.584zM27.2 27.2v-22.4h-22.4v22.4h22.4zM16 9.6q0-1.312-0.944-2.256t-2.256-0.944-2.256 0.944-0.944 2.256 0.944 2.256 2.256 0.944 2.256-0.944 0.944-2.256zM20.8 17.6q0-0.128 0.008-0.336t0.048-0.864 0.12-1.296 0.248-1.504 0.4-1.608 0.6-1.496 0.832-1.288 1.12-0.872 1.424-0.336v16q0 0.656-0.472 1.128t-1.128 0.472h-16q-0.656 0-1.128-0.472t-0.472-1.128v-11.2q0.656 0 1.272 0.352t1.080 0.92 0.88 1.248 0.696 1.36 0.48 1.248 0.296 0.92l0.096 0.352q0.064-0.192 0.192-0.52t0.576-1.152 0.96-1.456 1.344-1.152 1.728-0.52 1.72 0.328 1.36 0.8 0.944 0.944 0.584 0.808z"></path>
</svg>
