<svg version="1.1" xmlns="http://www.w3.org/2000/svg" xmlns:xlink="http://www.w3.org/1999/xlink" width="32" height="32" viewBox="0 0 32 32">
<path d="M19.2 14.4v-9.6q0-1.328-0.936-2.264t-2.264-0.936-2.264 0.952-0.936 2.248v9.6q0 1.312 0.944 2.256t2.256 0.944q1.344 0 2.272-0.952t0.928-2.248zM25.6 14.4q0 3.536-2.28 6.208t-5.72 3.248v3.344h3.2q0.672 0 1.136 0.472t0.464 1.128-0.464 1.128-1.136 0.472h-9.6q-0.656 0-1.128-0.472t-0.472-1.128 0.472-1.128 1.128-0.472h3.2v-3.344q-3.424-0.576-5.712-3.248t-2.288-6.208q0-0.656 0.472-1.128t1.128-0.472q0.672 0 1.136 0.472t0.464 1.128q0 2.656 1.88 4.528t4.52 1.872q2.656 0 4.528-1.872t1.872-4.528q0-0.656 0.472-1.128t1.128-0.472q0.672 0 1.136 0.472t0.464 1.128z"></path>
</svg>
