<svg version="1.1" xmlns="http://www.w3.org/2000/svg" xmlns:xlink="http://www.w3.org/1999/xlink" width="32" height="32" viewBox="0 0 32 32">
<path d="M6.4 8h-5.152q-0.48 0-0.824 0.376t-0.28 0.968l2.496 15.984q2.96-11.776 3.536-14.608 0.128-0.576 0.584-0.848t0.984-0.272h8.256q-1.12-3.328-1.232-3.696-0.304-1.104-1.248-1.104h-5.296q-0.448 0-0.808 0.272t-0.472 0.752zM14.208 8h-6.4q0.032-0.064 0.080-0.176t0.2-0.384 0.312-0.48 0.376-0.384 0.424-0.176h3.408q0.336 0 0.736 0.4t0.64 0.8zM4.272 26q-0.784 1.2-2.016 1.2h25.168q0.64 0 1.080-0.352t0.568-0.976l2.688-13.504q0.080-0.56-0.24-0.864t-0.752-0.304h-5.168v-2.352q0-0.24-0.312-0.544t-0.744-0.304h-6.016q-0.368 0-0.72 0.232t-0.512 0.472l-0.16 0.224-1.136 2.272h-7.056q-0.4 0-0.72 0.216t-0.384 0.584q-2.544 10.72-2.752 11.728-0.272 1.472-0.816 2.272zM24.608 11.2h-7.008q0.032-0.064 0.104-0.176t0.28-0.384 0.408-0.48 0.488-0.384 0.528-0.176h3.664q0.32 0 0.592 0.168t0.44 0.4 0.288 0.464 0.168 0.408z"></path>
</svg>
