<svg version="1.1" xmlns="http://www.w3.org/2000/svg" xmlns:xlink="http://www.w3.org/1999/xlink" width="32" height="32" viewBox="0 0 32 32">
<path d="M13.664 20.384q0-2.080-1.152-3.552-0.8-1.008-2.184-1.312t-2.552-0.048q-0.4-2.288 1.248-4.856t4.224-3.864l-2.608-3.648q-1.568 0.752-3.016 1.824t-2.712 2.512-2.136 3.080-1.272 3.632-0.144 4.040q0.416 3.376 2.232 5.392t4.536 2.016q2.416 0 3.968-1.408 1.568-1.408 1.568-3.808zM28.752 20.384q0-2.080-1.152-3.552-0.8-1.008-2.184-1.312t-2.552-0.048q-0.4-2.288 1.248-4.856t4.224-3.864l-2.608-3.648q-1.568 0.752-3.016 1.824t-2.712 2.512-2.136 3.080-1.272 3.632-0.144 4.040q0.416 3.376 2.232 5.392t4.536 2.016q2.416 0 3.968-1.408 1.568-1.408 1.568-3.808z"></path>
</svg>
