<svg version="1.1" xmlns="http://www.w3.org/2000/svg" xmlns:xlink="http://www.w3.org/1999/xlink" width="32" height="32" viewBox="0 0 32 32">
<path d="M19.424 6.688q2.224 2.224 2.528 5.352t-1.376 5.672q0.048 0.048 0.248 0.224t0.328 0.272q0.544 0.432 1.296 0.944 0.992 0.688 1.056 0.752 0.976 0.72 1.504 1.248 0.784 0.784 1.344 1.6 0.576 0.8 0.944 1.664 0.352 0.88 0.288 1.6-0.048 0.768-0.576 1.296t-1.296 0.576q-0.784 0.048-1.584-0.304-0.832-0.336-1.664-0.944-0.816-0.56-1.6-1.344-0.528-0.528-1.232-1.488-0.032-0.048-0.752-1.056-0.512-0.736-0.896-1.248-0.384-0.48-0.704-0.8-2.464 1.328-5.344 0.912t-4.96-2.48q-2.56-2.576-2.56-6.232t2.56-6.216q1.696-1.696 3.96-2.296t4.528 0 3.96 2.296zM17.168 16.864q1.632-1.648 1.632-3.96t-1.632-3.96q-1.648-1.648-3.968-1.648t-3.952 1.648q-1.648 1.648-1.648 3.96t1.648 3.96q1.632 1.648 3.952 1.648t3.968-1.648z"></path>
</svg>
