<svg style="position: absolute; width: 0; height: 0; overflow: hidden;" version="1.1" xmlns="http://www.w3.org/2000/svg" xmlns:xlink="http://www.w3.org/1999/xlink">
<defs>
<symbol id="esocons-paypal" viewBox="0 0 32 32">
<title>paypal</title>
<path class="path1" d="M27.125 11.536q0.321 1.5-0.071 3.643-1.554 7.929-10.089 7.929h-0.786q-0.446 0-0.786 0.295t-0.429 0.759l-0.071 0.339-0.982 6.179-0.036 0.268q-0.089 0.464-0.438 0.759t-0.795 0.295h-4.482q-0.375 0-0.589-0.268t-0.161-0.643q0.161-1 0.473-3t0.473-3 0.482-2.991 0.482-2.991q0.089-0.661 0.768-0.661h2.339q2.375 0.036 4.214-0.375 3.125-0.696 5.125-2.571 1.821-1.696 2.768-4.393 0.429-1.25 0.625-2.375 0.018-0.107 0.045-0.134t0.063-0.018 0.107 0.063q1.411 1.054 1.75 2.893zM24.054 6.5q0 1.911-0.821 4.214-1.429 4.161-5.393 5.625-2.018 0.714-4.5 0.75 0 0.018-1.607 0.018l-1.607-0.018q-1.786 0-2.107 1.714-0.036 0.143-1.518 9.464-0.018 0.179-0.214 0.179h-5.268q-0.393 0-0.652-0.295t-0.205-0.688l4.143-26.268q0.089-0.518 0.491-0.857t0.92-0.339h10.679q0.607 0 1.741 0.232t1.991 0.571q1.911 0.732 2.92 2.196t1.009 3.5z"></path>
</symbol>
<symbol id="esocons-paypal-card" viewBox="0 0 41 32">
<title>paypal-card</title>
<path class="path1" d="M13.304 16.179q0 0.661-0.455 1.098t-1.116 0.438q-0.518 0-0.83-0.286t-0.313-0.786q0-0.661 0.446-1.116t1.107-0.455q0.5 0 0.83 0.295t0.33 0.812zM27.321 13.518q0 0.75-0.393 1.018t-1.179 0.268l-0.571 0.018 0.304-1.911q0.036-0.196 0.232-0.196h0.321q0.393 0 0.625 0.036t0.446 0.223 0.214 0.545zM33.589 16.179q0 0.643-0.455 1.089t-1.098 0.446q-0.518 0-0.839-0.286t-0.321-0.786q0-0.661 0.446-1.116t1.107-0.455q0.5 0 0.83 0.295t0.33 0.813zM9.161 13.125q0-1.054-0.688-1.527t-1.795-0.473h-2.857q-0.339 0-0.375 0.339l-1.161 7.286q-0.018 0.107 0.054 0.196t0.179 0.089h1.357q0.357 0 0.393-0.339l0.321-1.964q0.018-0.143 0.125-0.232t0.268-0.116 0.304-0.027 0.339 0.018 0.25 0.018q1.536 0 2.411-0.866t0.875-2.402zM14.679 18.696l0.732-4.661q0.018-0.107-0.054-0.196t-0.179-0.089h-1.357q-0.25 0-0.304 0.589-0.482-0.714-1.696-0.714-1.286 0-2.188 0.964t-0.902 2.268q0 1.054 0.616 1.679t1.652 0.625q0.5 0 1.036-0.214t0.857-0.571q-0.071 0.214-0.071 0.375 0 0.286 0.232 0.286h1.232q0.339 0 0.393-0.339zM22.661 14q0-0.089-0.071-0.17t-0.161-0.080h-1.375q-0.196 0-0.321 0.179l-1.893 2.786-0.786-2.679q-0.089-0.286-0.393-0.286h-1.339q-0.089 0-0.161 0.080t-0.071 0.17q0 0.036 0.348 1.054t0.75 2.196 0.42 1.25q-1.464 2-1.464 2.143 0 0.232 0.232 0.232h1.375q0.196 0 0.321-0.179l4.554-6.571q0.036-0.036 0.036-0.125zM29.446 13.125q0-1.054-0.688-1.527t-1.795-0.473h-2.839q-0.357 0-0.393 0.339l-1.161 7.286q-0.018 0.107 0.054 0.196t0.179 0.089h1.464q0.214 0 0.286-0.232l0.321-2.071q0.018-0.143 0.125-0.232t0.268-0.116 0.304-0.027 0.339 0.018 0.25 0.018q1.536 0 2.411-0.866t0.875-2.402zM34.964 18.696l0.732-4.661q0.018-0.107-0.054-0.196t-0.179-0.089h-1.357q-0.25 0-0.304 0.589-0.464-0.714-1.696-0.714-1.286 0-2.188 0.964t-0.902 2.268q0 1.054 0.616 1.679t1.652 0.625q0.518 0 1.054-0.214t0.839-0.571q0 0.018-0.036 0.161t-0.036 0.214q0 0.286 0.232 0.286h1.232q0.339 0 0.393-0.339zM38.857 11.393v-0.018q0-0.25-0.232-0.25h-1.321q-0.196 0-0.232 0.196l-1.161 7.429-0.018 0.036q0 0.089 0.071 0.17t0.179 0.080h1.179q0.339 0 0.375-0.339zM7 13.786q-0.089 0.625-0.464 0.821t-1.071 0.196l-0.589 0.018 0.304-1.911q0.036-0.196 0.232-0.196h0.339q0.714 0 1.036 0.205t0.214 0.866zM41.143 4.571v22.857q0 0.929-0.679 1.607t-1.607 0.679h-36.571q-0.929 0-1.607-0.679t-0.679-1.607v-22.857q0-0.929 0.679-1.607t1.607-0.679h36.571q0.929 0 1.607 0.679t0.679 1.607z"></path>
</symbol>
<symbol id="esocons-slack" viewBox="0 0 30 32">
<title>slack</title>
<path class="path1" d="M27.125 13.857q1.107 0 1.848 0.723t0.741 1.813q0 1.732-1.661 2.321l-3.071 1.054 1 2.982q0.125 0.375 0.125 0.839 0 1.054-0.75 1.821t-1.804 0.768q-0.839 0-1.527-0.482t-0.955-1.286l-0.982-2.946-5.536 1.893 0.982 2.929q0.143 0.429 0.143 0.839 0 1.054-0.75 1.821t-1.821 0.768q-0.839 0-1.518-0.482t-0.946-1.286l-0.982-2.911-2.732 0.946q-0.518 0.161-0.893 0.161-1.089 0-1.813-0.714t-0.723-1.804q0-0.839 0.491-1.518t1.277-0.946l2.786-0.946-1.875-5.589-2.786 0.964q-0.464 0.143-0.857 0.143-1.071 0-1.804-0.723t-0.732-1.795q0-0.839 0.491-1.518t1.277-0.946l2.804-0.946-0.946-2.839q-0.143-0.429-0.143-0.839 0-1.071 0.75-1.83t1.821-0.759q0.839 0 1.518 0.482t0.946 1.286l0.964 2.857 5.536-1.875-0.964-2.857q-0.143-0.429-0.143-0.839 0-1.054 0.759-1.821t1.812-0.768q0.839 0 1.527 0.491t0.955 1.277l0.946 2.875 2.893-0.982q0.375-0.107 0.768-0.107 1.071 0 1.83 0.705t0.759 1.759q0 0.804-0.536 1.455t-1.321 0.92l-2.804 0.964 1.875 5.643 2.929-1q0.429-0.143 0.821-0.143zM12.946 18.536l5.536-1.875-1.875-5.625-5.536 1.911z"></path>
</symbol>
<symbol id="esocons-star" viewBox="0 0 30 32">
<title>star</title>
<path class="path1" d="M29.714 11.554q0 0.393-0.464 0.857l-6.482 6.321 1.536 8.929q0.018 0.125 0.018 0.357 0 0.375-0.188 0.634t-0.545 0.259q-0.339 0-0.714-0.214l-8.018-4.214-8.018 4.214q-0.393 0.214-0.714 0.214-0.375 0-0.563-0.259t-0.188-0.634q0-0.107 0.036-0.357l1.536-8.929-6.5-6.321q-0.446-0.482-0.446-0.857 0-0.661 1-0.821l8.964-1.304 4.018-8.125q0.339-0.732 0.875-0.732t0.875 0.732l4.018 8.125 8.964 1.304q1 0.161 1 0.821z"></path>
</symbol>
<symbol id="esocons-stripe-card" viewBox="0 0 41 32">
<title>stripe-card</title>
<path class="path1" d="M28.518 16.125q0 1.232-0.375 1.893-0.339 0.625-0.929 0.625-0.411 0-0.732-0.161v-4q0.518-0.536 1.018-0.536 1.018 0 1.018 2.179zM36.339 15.482h-1.964q0.107-1.75 1-1.75 0.911 0 0.964 1.75zM8.5 17.893q0-1.054-0.589-1.634t-1.804-1.027q-0.643-0.232-0.929-0.429t-0.286-0.446q0-0.464 0.679-0.464 1.036 0 2.214 0.589l0.321-2q-1.196-0.571-2.661-0.571-1.375 0-2.196 0.679-0.857 0.696-0.857 1.946 0 1.036 0.58 1.616t1.777 1.009q0.696 0.25 0.973 0.455t0.277 0.491q0 0.554-0.857 0.554-0.518 0-1.25-0.223t-1.286-0.545l-0.321 2.018q1.286 0.732 3 0.732 1.446 0 2.304-0.661 0.911-0.732 0.911-2.089zM13.768 14.054l0.339-1.982h-1.714v-2.411l-2.304 0.375-0.321 2.036-0.821 0.143-0.304 1.839h1.107v3.911q0 1.5 0.786 2.143 0.679 0.536 1.982 0.536 0.571 0 1.411-0.196v-2.107q-0.571 0.125-0.786 0.125-0.75 0-0.75-0.893v-3.518h1.375zM19.411 14.5v-2.482q-0.268-0.054-0.5-0.054-0.571 0-0.991 0.286t-0.598 0.821l-0.179-1h-2.339v8.411h2.679v-5.464q0.464-0.554 1.464-0.554 0.286 0 0.464 0.036zM20.071 20.482h2.679v-8.411h-2.679v8.411zM31.179 16.036q0-2.179-0.804-3.196-0.714-0.929-1.982-0.929-1.143 0-2.089 1l-0.143-0.839h-2.357v11.518l2.679-0.446v-2.696q0.643 0.196 1.214 0.196 1.482 0 2.393-1 1.089-1.161 1.089-3.607zM22.821 9.821q0-0.589-0.411-1t-1-0.411-1 0.411-0.411 1 0.411 1.009 1 0.42 1-0.42 0.411-1.009zM38.857 16.196q0-2.018-0.857-3.143-0.893-1.143-2.571-1.143-1.714 0-2.705 1.179t-0.991 3.214q0 2.286 1.125 3.357 0.982 0.982 2.875 0.982 1.804 0 2.857-0.714l-0.286-1.839q-1.018 0.554-2.286 0.554-0.768 0-1.125-0.339-0.411-0.339-0.5-1.179h4.429q0.036-0.25 0.036-0.929zM41.143 4.571v22.857q0 0.929-0.679 1.607t-1.607 0.679h-36.571q-0.929 0-1.607-0.679t-0.679-1.607v-22.857q0-0.929 0.679-1.607t1.607-0.679h36.571q0.929 0 1.607 0.679t0.679 1.607z"></path>
</symbol>
<symbol id="esocons-visa-card" viewBox="0 0 41 32">
<title>visa-card</title>
<path class="path1" d="M35.268 17.679h-2.464q0.25-0.661 1.179-3.196l0.054-0.161q0.071-0.179 0.179-0.464t0.161-0.464l0.214 0.982zM9.482 16.518l-1.036-5.268q-0.196-0.964-1.339-0.964h-4.786l-0.036 0.232q5.554 1.411 7.196 6zM12.679 10.286l-2.893 7.821-0.304-1.589q-0.464-1.25-1.518-2.313t-2.339-1.58l2.411 9.107h3.125l4.661-11.446h-3.143zM15.161 21.75h2.964l1.857-11.464h-2.964zM28.875 10.571q-1.232-0.482-2.661-0.482-2.196 0-3.589 1.054t-1.411 2.732q-0.018 1.821 2.589 3.107 0.857 0.411 1.196 0.732t0.339 0.696q0 0.536-0.536 0.821t-1.232 0.286q-1.536 0-2.786-0.589l-0.393-0.196-0.411 2.571q1.321 0.607 3.304 0.607 2.321 0.018 3.723-1.054t1.438-2.857q0-1.893-2.5-3.107-0.875-0.446-1.268-0.75t-0.393-0.679q0-0.393 0.438-0.688t1.259-0.295q1.25-0.018 2.214 0.429l0.268 0.143zM36.464 10.286h-2.286q-1.161 0-1.554 0.964l-4.393 10.5h3.107l0.625-1.714h3.786q0.089 0.393 0.357 1.714h2.75zM41.143 4.571v22.857q0 0.929-0.679 1.607t-1.607 0.679h-36.571q-0.929 0-1.607-0.679t-0.679-1.607v-22.857q0-0.929 0.679-1.607t1.607-0.679h36.571q0.929 0 1.607 0.679t0.679 1.607z"></path>
</symbol>
<symbol id="esocons-yelp" viewBox="0 0 32 32">
<title>yelp</title>
<path class="path1" d="M13.804 23.554v2.268q-0.018 5.214-0.107 5.446-0.214 0.571-0.911 0.714-0.964 0.161-3.241-0.679t-2.902-1.589q-0.232-0.268-0.304-0.643-0.018-0.214 0.071-0.464 0.071-0.179 0.607-0.839t3.232-3.857q0.018 0 1.071-1.25 0.268-0.339 0.705-0.438t0.884 0.063q0.429 0.179 0.67 0.518t0.223 0.75zM11.143 19.071q-0.054 0.982-0.929 1.25l-2.143 0.696q-4.911 1.571-5.214 1.571-0.625-0.036-0.964-0.643-0.214-0.446-0.304-1.339-0.143-1.357 0.018-2.973t0.536-2.223 1-0.571q0.232 0 3.607 1.375 1.268 0.518 2.054 0.839l1.5 0.607q0.411 0.161 0.634 0.545t0.205 0.866zM25.893 24.375q-0.125 0.964-1.634 2.875t-2.42 2.268q-0.661 0.25-1.125-0.125-0.25-0.179-3.286-5.125l-0.839-1.375q-0.25-0.375-0.205-0.821t0.348-0.821q0.625-0.768 1.482-0.464 0.018 0.018 2.125 0.714 3.625 1.179 4.321 1.42t0.839 0.366q0.5 0.393 0.393 1.089zM13.893 13.089q0.089 1.821-0.964 2.179-1.036 0.304-2.036-1.268l-6.75-10.679q-0.143-0.625 0.339-1.107 0.732-0.768 3.705-1.598t4.009-0.563q0.714 0.179 0.875 0.804 0.054 0.321 0.393 5.455t0.429 6.777zM25.714 15.018q0.054 0.696-0.464 1.054-0.268 0.179-5.875 1.536-1.196 0.268-1.625 0.411l0.018-0.036q-0.411 0.107-0.821-0.071t-0.661-0.571q-0.536-0.839 0-1.554 0.018-0.018 1.339-1.821 2.232-3.054 2.679-3.643t0.607-0.696q0.5-0.339 1.161-0.036 0.857 0.411 2.196 2.384t1.446 2.991v0.054z"></path>
</symbol>
<symbol id="esocons-credit-card" viewBox="0 0 34 32">
<title>credit-card</title>
<path class="path1" d="M31.429 2.286q1.179 0 2.018 0.839t0.839 2.018v21.714q0 1.179-0.839 2.018t-2.018 0.839h-28.571q-1.179 0-2.018-0.839t-0.839-2.018v-21.714q0-1.179 0.839-2.018t2.018-0.839h28.571zM2.857 4.571q-0.232 0-0.402 0.17t-0.17 0.402v4h29.714v-4q0-0.232-0.17-0.402t-0.402-0.17h-28.571zM31.429 27.429q0.232 0 0.402-0.17t0.17-0.402v-10.857h-29.714v10.857q0 0.232 0.17 0.402t0.402 0.17h28.571zM4.571 25.143v-2.286h4.571v2.286h-4.571zM11.429 25.143v-2.286h6.857v2.286h-6.857z"></path>
</symbol>
<symbol id="esocons-heart" viewBox="0 0 32 32">
<title>heart</title>
<path class="path1" d="M16 29.714q-0.464 0-0.786-0.321l-11.143-10.75q-0.179-0.143-0.491-0.464t-0.991-1.17-1.214-1.741-0.955-2.161-0.42-2.464q0-3.929 2.268-6.143t6.268-2.214q1.107 0 2.259 0.384t2.143 1.036 1.705 1.223 1.357 1.214q0.643-0.643 1.357-1.214t1.705-1.223 2.143-1.036 2.259-0.384q4 0 6.268 2.214t2.268 6.143q0 3.946-4.089 8.036l-11.125 10.714q-0.321 0.321-0.786 0.321z"></path>
</symbol>
<symbol id="esocons-id-card" viewBox="0 0 37 32">
<title>id-card</title>
<path class="path1" d="M16 21.643q0 0.982-0.563 1.67t-1.348 0.688h-7.607q-0.786 0-1.348-0.688t-0.563-1.67q0-0.964 0.134-1.795t0.438-1.607 0.911-1.223 1.446-0.446q1.143 1.143 2.786 1.143t2.786-1.143q0.839 0 1.446 0.446t0.911 1.223 0.438 1.607 0.134 1.795zM13.714 13.714q0 1.429-1 2.429t-2.429 1-2.429-1-1-2.429 1-2.429 2.429-1 2.429 1 1 2.429zM32 21.143v1.143q0 0.25-0.161 0.411t-0.411 0.161h-12.571q-0.25 0-0.411-0.161t-0.161-0.411v-1.143q0-0.25 0.161-0.411t0.411-0.161h12.571q0.25 0 0.411 0.161t0.161 0.411zM25.143 16.571v1.143q0 0.25-0.161 0.411t-0.411 0.161h-5.714q-0.25 0-0.411-0.161t-0.161-0.411v-1.143q0-0.25 0.161-0.411t0.411-0.161h5.714q0.25 0 0.411 0.161t0.161 0.411zM32 16.571v1.143q0 0.25-0.161 0.411t-0.411 0.161h-3.429q-0.25 0-0.411-0.161t-0.161-0.411v-1.143q0-0.25 0.161-0.411t0.411-0.161h3.429q0.25 0 0.411 0.161t0.161 0.411zM32 12v1.143q0 0.25-0.161 0.411t-0.411 0.161h-12.571q-0.25 0-0.411-0.161t-0.161-0.411v-1.143q0-0.25 0.161-0.411t0.411-0.161h12.571q0.25 0 0.411 0.161t0.161 0.411zM34.286 26.857v-20h-32v20q0 0.232 0.17 0.402t0.402 0.17h30.857q0.232 0 0.402-0.17t0.17-0.402zM36.571 5.143v21.714q0 1.179-0.839 2.018t-2.018 0.839h-30.857q-1.179 0-2.018-0.839t-0.839-2.018v-21.714q0-1.179 0.839-2.018t2.018-0.839h30.857q1.179 0 2.018 0.839t0.839 2.018z"></path>
</symbol>
<symbol id="esocons-mastercard-card" viewBox="0 0 41 32">
<title>mastercard-card</title>
<path class="path1" d="M19.982 6.089q-2.286-1.518-5.018-1.518-1.839 0-3.527 0.723t-2.902 1.938-1.938 2.893-0.723 3.518q0 1.857 0.723 3.536t1.938 2.893 2.893 1.938 3.536 0.723q2.732 0 5.018-1.518-2.339-1.911-3.179-4.741t0.009-5.652 3.17-4.732zM20.571 6.518q-2.25 1.768-3.071 4.455t-0.009 5.366 3.080 4.446q2.268-1.768 3.080-4.446t-0.009-5.366-3.071-4.455zM21.161 6.089q2.321 1.911 3.17 4.741t0.009 5.661-3.179 4.723q2.286 1.518 5.018 1.518 1.857 0 3.536-0.723t2.893-1.938 1.938-2.893 0.723-3.536q0-1.839-0.723-3.518t-1.938-2.893-2.902-1.938-3.527-0.723q-2.732 0-5.018 1.518zM34.393 18.982h0.125v-0.054h-0.304v0.054h0.125v0.304h0.054v-0.304zM34.911 19.286h0.071v-0.357h-0.089l-0.107 0.232-0.107-0.232h-0.089v0.357h0.054v-0.268l0.107 0.232h0.071l0.089-0.232v0.268zM34.768 27.143v0.036h-0.089v-0.054h0.089v0.018zM34.768 27.304h0.054l-0.071-0.089h0.036l0.018-0.018q0.018-0.018 0.018-0.054t-0.018-0.054l-0.018-0.018h-0.161v0.232h0.054v-0.089h0.018zM12.232 26.089q0-0.339 0.196-0.554t0.536-0.214q0.321 0 0.518 0.223t0.196 0.545q0 0.339-0.196 0.554t-0.518 0.214q-0.339 0-0.536-0.214t-0.196-0.554zM20.679 25.304q0.536 0 0.625 0.571h-1.25q0.089-0.571 0.625-0.571zM27.036 26.089q0-0.339 0.196-0.554t0.518-0.214 0.527 0.223 0.205 0.545q0 0.339-0.196 0.554t-0.536 0.214q-0.321 0-0.518-0.214t-0.196-0.554zM31.893 26.089q0-0.321 0.205-0.545t0.527-0.223 0.527 0.223 0.205 0.545q0 0.339-0.205 0.554t-0.527 0.214-0.527-0.223-0.205-0.545zM34.714 27.375q-0.036 0-0.071-0.018-0.018 0-0.054-0.036t-0.036-0.054q-0.018-0.036-0.018-0.071 0-0.054 0.018-0.071 0-0.036 0.036-0.071l0.018-0.018q0.036 0 0.036-0.018 0.036-0.018 0.071-0.018 0.054 0 0.071 0.018l0.071 0.036 0.036 0.071v0.018q0.018 0.036 0.018 0.054l-0.018 0.018v0.054t-0.018 0.018l-0.018 0.036q-0.036 0.036-0.071 0.036-0.018 0.018-0.071 0.018zM10.696 27.304h0.536v-1.518q0-0.429-0.259-0.688t-0.705-0.277q-0.571 0-0.839 0.429-0.25-0.429-0.804-0.429-0.429 0-0.696 0.357v-0.286h-0.536v2.411h0.536v-1.339q0-0.643 0.589-0.643 0.536 0 0.536 0.643v1.339h0.518v-1.339q0-0.643 0.589-0.643 0.536 0 0.536 0.643v1.339zM13.661 27.304h0.518v-2.411h-0.518v0.286q-0.304-0.357-0.768-0.357-0.518 0-0.857 0.357t-0.339 0.911 0.339 0.911 0.857 0.357q0.5 0 0.768-0.357v0.304zM16.839 26.571q0-0.607-0.839-0.714l-0.25-0.036q-0.411-0.071-0.411-0.25 0-0.268 0.446-0.268 0.411 0 0.768 0.196l0.214-0.429q-0.393-0.25-0.982-0.25-0.464 0-0.732 0.214t-0.268 0.571q0 0.589 0.839 0.696l0.232 0.036q0.429 0.071 0.429 0.25 0 0.304-0.554 0.304-0.446 0-0.804-0.25l-0.232 0.411q0.446 0.304 1.036 0.304 0.518 0 0.813-0.214t0.295-0.571zM19.161 27.179l-0.143-0.446q-0.232 0.125-0.464 0.125-0.339 0-0.339-0.393v-1.089h0.857v-0.482h-0.857v-0.732h-0.536v0.732h-0.5v0.482h0.5v1.089q0 0.893 0.839 0.893 0.375 0 0.643-0.179zM20.696 24.821q-0.518 0-0.857 0.357t-0.339 0.911q0 0.571 0.348 0.92t0.884 0.348q0.589 0 0.982-0.339l-0.25-0.393q-0.321 0.268-0.696 0.268-0.607 0-0.732-0.589h1.804v-0.214q0-0.571-0.321-0.92t-0.821-0.348zM23.536 24.821q-0.411 0-0.625 0.357v-0.286h-0.536v2.411h0.536v-1.357q0-0.625 0.518-0.625 0.179 0 0.321 0.071l0.161-0.5q-0.161-0.071-0.375-0.071zM24.071 26.089q0 0.554 0.348 0.911t0.938 0.357q0.518 0 0.857-0.286l-0.25-0.429q-0.321 0.232-0.625 0.214-0.321 0-0.527-0.214t-0.205-0.554 0.205-0.554 0.527-0.214q0.339 0 0.625 0.214l0.25-0.429q-0.357-0.286-0.857-0.286-0.589 0-0.938 0.357t-0.348 0.911zM28.446 27.304h0.536v-2.411h-0.536v0.286q-0.268-0.357-0.75-0.357-0.518 0-0.866 0.357t-0.348 0.911 0.348 0.911 0.866 0.357q0.5 0 0.75-0.357v0.304zM30.821 24.821q-0.411 0-0.625 0.357v-0.286h-0.518v2.411h0.518v-1.357q0-0.625 0.518-0.625 0.179 0 0.321 0.071l0.161-0.5q-0.143-0.071-0.375-0.071zM33.321 27.304h0.518v-3.393h-0.518v1.268q-0.268-0.357-0.768-0.357t-0.848 0.366-0.348 0.902 0.348 0.902 0.848 0.366q0.518 0 0.768-0.357v0.304zM34.714 26.946l-0.036 0.018h-0.054q-0.036 0.018-0.071 0.054-0.054 0.018-0.054 0.071-0.018 0.036-0.018 0.107 0 0.054 0.018 0.089 0 0.036 0.054 0.071 0.036 0.036 0.071 0.054t0.089 0.018q0.071 0 0.107-0.018 0-0.018 0.036-0.036l0.036-0.018q0.018-0.018 0.054-0.071 0.018-0.036 0.018-0.089 0-0.071-0.018-0.107-0.018-0.018-0.054-0.071 0-0.018-0.036-0.036l-0.036-0.018q-0.018 0-0.054-0.009t-0.054-0.009zM41.143 4.571v22.857q0 0.929-0.679 1.607t-1.607 0.679h-36.571q-0.929 0-1.607-0.679t-0.679-1.607v-22.857q0-0.929 0.679-1.607t1.607-0.679h36.571q0.929 0 1.607 0.679t0.679 1.607z"></path>
</symbol>
<symbol id="esocons-money" viewBox="0 0 34 32">
<title>money</title>
<path class="path1" d="M13.714 20.571h6.857v-1.714h-2.286v-8h-2.036l-2.643 2.446 1.375 1.429q0.75-0.661 0.982-1.018h0.036v5.143h-2.286v1.714zM22.857 16q0 1.25-0.375 2.536t-1.063 2.393-1.813 1.804-2.464 0.696-2.464-0.696-1.813-1.804-1.063-2.393-0.375-2.536 0.375-2.536 1.063-2.393 1.813-1.804 2.464-0.696 2.464 0.696 1.813 1.804 1.063 2.393 0.375 2.536zM32 20.571v-9.143q-1.893 0-3.232-1.339t-1.339-3.232h-20.571q0 1.893-1.339 3.232t-3.232 1.339v9.143q1.893 0 3.232 1.339t1.339 3.232h20.571q0-1.893 1.339-3.232t3.232-1.339zM34.286 5.714v20.571q0 0.464-0.339 0.804t-0.804 0.339h-32q-0.464 0-0.804-0.339t-0.339-0.804v-20.571q0-0.464 0.339-0.804t0.804-0.339h32q0.464 0 0.804 0.339t0.339 0.804z"></path>
</symbol>
<symbol id="esocons-smartphone" viewBox="0 0 32 32">
<title>smartphone</title>
<path class="path1" d="M9.6 3.2h12.8q0.656 0 1.128 0.472t0.472 1.128v22.4q0 0.656-0.472 1.128t-1.128 0.472h-12.8q-0.656 0-1.128-0.472t-0.472-1.128v-22.4q0-0.656 0.472-1.128t1.128-0.472zM20.8 22.4v-16h-9.6v16h9.6zM12.8 8h6.4l-6.4 8v-8z"></path>
</symbol>
<symbol id="esocons-phone" viewBox="0 0 32 32">
<title>phone</title>
<path class="path1" d="M19.296 9.6l-0.336-0.32q-0.416-0.432-0.512-0.752t0.056-0.608 0.584-0.72l4.352-4.4q0.176-0.176 0.44-0.456t0.376-0.392 0.304-0.28 0.296-0.192 0.272-0.056 0.312 0.048 0.336 0.208 0.432 0.352l0.336 0.32zM20.144 10.32l7.040-7.040q0.336 0.448 0.664 0.952t0.752 1.248 0.72 1.52 0.496 1.6 0.16 1.664-0.344 1.56q-0.528 1.216-0.944 1.88t-1.112 1.488-1.144 1.432q-3.616 4.112-9.6 9.712-0.656 0.464-1.44 1.16t-1.464 1.128-1.896 0.912q-0.688 0.272-1.52 0.288t-1.656-0.2-1.608-0.504-1.552-0.712-1.28-0.728-0.992-0.64l7.040-7.040 1.888 2.592q0.256 0.368 0.776 0.264t1.056-0.456 1.048-0.864q0.368-0.368 1.48-1.488t1.888-1.896 1.672-1.704 1.36-1.424q0.512-0.512 0.856-1.040t0.464-1.048-0.264-0.792zM2.512 26.4l-0.336-0.336q-0.24-0.256-0.376-0.448t-0.152-0.392-0.016-0.312 0.176-0.336 0.272-0.328 0.432-0.424 0.496-0.48l4.384-4.352q0.656-0.624 1.016-0.68t1.016 0.504l0.32 0.336z"></path>
</symbol>
<symbol id="esocons-user" viewBox="0 0 32 32">
<title>user</title>
<path class="path1" d="M16 14.8q-0.736 0-1.384-0.304t-1.080-0.792-0.784-1.072-0.552-1.168-0.336-1.072-0.184-0.792l-0.048-0.304q-0.096-0.88-0.048-1.736t0.392-1.648 0.848-1.392 1.32-0.96 1.808-0.36q1.648 0 2.736 0.944t1.456 2.304 0.144 2.848q-0.016 0.112-0.048 0.312t-0.168 0.768-0.328 1.088-0.536 1.16-0.768 1.096-1.064 0.768-1.376 0.312zM16 18.912l4.352-2.912q1.856 0 3.544 1.072t2.688 2.752 1 3.424v3.984q-0.24 0.080-0.664 0.2t-1.744 0.432-2.632 0.552-3.12 0.432-3.424 0.192q-2.592 0-5.488-0.456t-4.496-0.904l-1.6-0.448v-3.984q0-1.792 0.928-3.44t2.6-2.688 3.624-1.040z"></path>
</symbol>
<symbol id="esocons-location" viewBox="0 0 32 32">
<title>location</title>
<path class="path1" d="M16 3.2q-2.608 0-4.816 1.288t-3.496 3.496-1.288 4.816q0 2.272 1.12 4.264t2.928 3.56q0.064 0.048 0.376 0.312t0.472 0.408 0.48 0.44 0.552 0.528 0.528 0.568 0.552 0.672q2.128 2.784 2.592 4.336 0.464-1.552 2.592-4.336 0.256-0.336 0.552-0.672t0.528-0.568 0.552-0.528 0.48-0.44 0.472-0.408 0.376-0.312q1.808-1.568 2.928-3.56t1.12-4.264q0-2.608-1.288-4.816t-3.496-3.496-4.816-1.288zM16 7.296q2.272 0 3.888 1.616t1.616 3.888-1.616 3.888-3.888 1.616-3.888-1.616-1.616-3.888 1.616-3.888 3.888-1.616z"></path>
</symbol>
<symbol id="esocons-linkedin-alt" viewBox="0 0 32 32">
<title>linkedin-alt</title>
<path class="path1" d="M9.448 28h-5.144v-15.48h5.144v15.48zM6.876 10.408h-0.032c-1.726 0-2.844-1.19-2.844-2.674 0-1.518 1.15-2.674 2.912-2.674 1.758 0 2.842 1.158 2.876 2.674 0 1.484-1.118 2.674-2.912 2.674zM28 28h-5.144v-8.282c0-2.080-0.74-3.5-2.604-3.5-1.424 0-2.27 0.956-2.642 1.88-0.134 0.332-0.168 0.796-0.168 1.258v8.644h-5.146s0.068-14.028 0-15.48h5.146v2.194c0.684-1.054 1.906-2.556 4.632-2.556 3.386 0 5.926 2.212 5.926 6.966v8.876z"></path>
</symbol>
<symbol id="esocons-globe" viewBox="0 0 32 32">
<title>globe</title>
<path class="path1" d="M16 4c6.626 0 12 5.374 12 12s-5.374 12-12 12-12-5.374-12-12 5.374-12 12-12zM7.44 11.054l-0.044-0.062c-0.072 0.124-0.138 0.252-0.206 0.38l0.070-0.016 0.274-0.098 0.472-0.042zM16 26c4.142 0 7.704-2.534 9.222-6.134l-0.102-0.164 0.234-0.794-0.542-0.394-0.396-0.118-0.368-0.31-0.872 0.33-0.824 0.048-0.624-0.454-0.61-0.836-0.012-0.508 0.014-0.848 0.088-0.118 0.076-0.284 0.356-0.548 0.208-0.204 0.292-0.324 0.204-0.4 0.576-0.546 0.59 0.006 0.432-0.15 1.038-0.112 0.406 0.576 0.378 0.164c-0.132-0.616-0.316-1.214-0.556-1.782l-0.086-0.080-0.21 0.104-0.452 0.042-0.372 0.332-0.406 0.548-0.792 0.182-0.368-0.144 0.042-0.634 0.208-0.394 0.726 0.042 0.134-0.342-0.376-0.416 0.322-0.13 0.632-0.344 0.226-0.182c-0.768-1.214-1.776-2.254-2.98-3.042l-0.068 0.028 0.318 0.278-0.514-0.082-0.072 0.146 0.332 0.040-0.124 0.14-0.936 0.162-1.208 0.536-0.936 0.452-0.098-0.932 0.264-0.51-0.194-0.34-0.718-0.304-0.346-0.268 0.502-0.12 1.080-0.264 0.466-0.026c-1.012-0.346-2.078-0.574-3.204-0.574-2.29 0-4.376 0.804-6.064 2.104l0.598-0.018 1.246 0.32 0.544-0.122 0.744 0.094 0.468-0.114 0.088-0.282 0.44 0.046 0.172 0.356 0.744-0.068-1.168 0.386-0.564 0.326-0.862 0.66 0.214 0.234 0.6 0.282 0.428 0.438 0.526-0.538 0.304-0.592 0.516-0.354 0.516 0.262 0.142 0.288 0.452-0.16 0.16 0.862 0.32 0.314-1.168 0.298-0.856 0.336 0.668-0.184-0.082 0.268 0.212 0.24 0.176 0.112-0.718 0.292 0.252-0.294-0.406 0.088-0.488 0.232-0.222 0.258-0.546 0.302-0.4 0.316-0.152 0.366-0.512 0.418-0.404 0.928-0.126 0.402-0.37-0.742-0.722 0.002-0.6-0.004-0.77 0.62-0.102 0.68 0.464 0.506 0.894-0.48-0.232 0.68-0.632 0.408-0.614-0.148-0.68-0.284-0.78-1.236-0.346-0.738-0.082-0.254 0.116 1.032-0.010 0.268-0.128-0.16-0.078-0.26-0.156-0.194-0.080-0.358-0.004-0.562-0.418-0.724c-0.272 0.908-0.462 1.85-0.462 2.846 0 4.624 3.17 8.488 7.44 9.628l-0.064-0.198-0.15-2.15-0.174-0.982-1.052-1.028-0.496-0.88-0.166-0.436 0.12-0.258 0.22-0.828 0.118-0.964-0.13-0.074-0.234 0.17-0.312-0.146 0.21-0.098 0.936-0.216 0.616-0.276-0.038 0.418 0.228-0.378 0.308 0.108 1.058 0.338 0.758 0.526 0.546 0.302 0.13 0.086-0.128 0.762 0.522-0.148-0.13 0.26 0.74 0.158 0.75 0.062 0.49 0.308 0.020 0.896-0.356 1.022-0.432 1.064-0.784 0.482-0.624 1.42-0.564-0.080 0.268 0.366-0.030 0.258-0.52 0.414c0.304 0.028 0.596 0.092 0.906 0.092z"></path>
</symbol>
<symbol id="esocons-facebook-alt" viewBox="0 0 32 32">
<title>facebook-alt</title>
<path class="path1" d="M18.472 12.128h5.136l-0.226 4.73h-4.91v13.142h-5.002v-13.142h-3.47v-4.73h3.47v-4.040c0-3.172 2.054-6.088 6.784-6.088 1.914 0 3.328 0.182 3.328 0.182l-0.11 4.416s-1.446-0.010-3.024-0.010c-1.702 0-1.976 0.786-1.976 2.086 0 0.194 0 0.24 0 0.218v3.236z"></path>
</symbol>
<symbol id="esocons-link" viewBox="0 0 32 32">
<title>link</title>
<path class="path1" d="M28.384 4.416q2.016 2.032 2.016 4.88t-2.016 4.88l-2.448 2.432q-1.312 1.312-3.12 1.768t-3.504-0.024l4.192-4.176 1.216-1.232 1.216-1.216q1.008-1.008 1.008-2.432t-1.008-2.432q-1.008-1.024-2.432-1.024t-2.432 1.024l-1.232 1.216-5.408 5.408q-0.464-1.696-0.008-3.504t1.768-3.12l2.432-2.448q2.032-2.016 4.888-2.016t4.872 2.016zM13.744 21.488l8.544-8.544q0.496-0.496 0.496-1.216t-0.496-1.216q-0.544-0.512-1.248-0.496t-1.2 0.496l-8.528 8.544q-0.496 0.496-0.496 1.216t0.496 1.216q0.544 0.512 1.248 0.496t1.184-0.496zM12.528 25.152l6.624-6.64q0.48 1.696 0.024 3.504t-1.768 3.12l-2.432 2.448q-2.032 2.016-4.88 2.016t-4.88-2.016q-2.016-2.016-2.016-4.88t2.016-4.88l2.448-2.432q1.312-1.312 3.12-1.768t3.504 0.008l-6.624 6.64q-1.024 1.008-1.024 2.432t1.024 2.448q1.008 1.008 2.432 1.008t2.432-1.008z"></path>
</symbol>
<symbol id="esocons-facebook" viewBox="0 0 32 32">
<title>facebook</title>
<path class="path1" d="M26.676 4h-21.352c-0.731 0-1.324 0.593-1.324 1.324v21.351c0 0.732 0.593 1.325 1.324 1.325h11.495v-9.295h-3.128v-3.623h3.128v-2.669c0-3.1 1.893-4.788 4.659-4.788 1.324 0 2.463 0.099 2.795 0.143v3.24l-1.917 0.001c-1.504 0-1.795 0.715-1.795 1.764v2.312h3.587l-0.467 3.623h-3.12v9.292h6.116c0.731 0 1.324-0.593 1.324-1.324v-21.352c0-0.731-0.593-1.324-1.324-1.324z"></path>
</symbol>
<symbol id="esocons-feed" viewBox="0 0 32 32">
<title>feed</title>
<path class="path1" d="M2.667 11.556v4.444c7.353 0 13.333 5.98 13.333 13.333h4.444c0-9.817-7.96-17.777-17.777-17.777zM2.667 2.667v4.444c12.253 0 22.223 9.969 22.223 22.223h4.444c0-14.727-11.94-26.667-26.667-26.667zM6 22.667c-1.843 0-3.333 1.493-3.333 3.333s1.491 3.333 3.333 3.333 3.333-1.493 3.333-3.333-1.491-3.333-3.333-3.333z"></path>
</symbol>
<symbol id="esocons-flickr" viewBox="0 0 32 32">
<title>flickr</title>
<path class="path1" d="M8.667 9.333c-3.667 0-6.667 3-6.667 6.667s3 6.667 6.667 6.667 6.667-3 6.667-6.667-3-6.667-6.667-6.667zM23.333 9.333c-3.667 0-6.667 3-6.667 6.667s3 6.667 6.667 6.667 6.667-3 6.667-6.667-3-6.667-6.667-6.667z"></path>
</symbol>
<symbol id="esocons-foursquare" viewBox="0 0 32 32">
<title>foursquare</title>
<path class="path1" d="M23.431 2.667c0 0-12.263 0-14.224 0s-2.54 1.476-2.54 2.407 0 22.597 0 22.597c0 1.047 0.563 1.436 0.88 1.563 0.317 0.129 1.189 0.236 1.713-0.367 0 0 6.713-7.791 6.829-7.907 0.176-0.176 0.176-0.176 0.349-0.176h4.347c1.824 0 2.117-1.303 2.309-2.069 0.104-0.424 0.923-4.571 1.633-8.163l0.9-4.491c0.452-2.204-0.108-3.395-2.197-3.395zM21.993 9.627c-0.071 0.336-0.496 0.691-0.887 0.691s-5.543 0-5.543 0c-0.623 0-1.069 0.424-1.069 1.049v0.677c0 0.623 0.449 1.064 1.073 1.064 0 0 4.263 0 4.704 0s0.873 0.483 0.777 0.953c-0.096 0.471-0.543 2.803-0.597 3.060-0.053 0.257-0.349 0.697-0.873 0.697-0.44 0-3.84 0-3.84 0-0.697 0-0.911 0.091-1.377 0.671-0.467 0.583-4.673 5.631-4.673 5.631-0.043 0.047-0.084 0.036-0.084-0.020v-17.631c0-0.397 0.347-0.864 0.864-0.864 0 0 10.971 0 11.416 0 0.42 0 0.813 0.396 0.704 0.911l-0.595 3.111z"></path>
</symbol>
<symbol id="esocons-ghost" viewBox="0 0 32 32">
<title>ghost</title>
<path class="path1" d="M13.604 27.996h-9.597v-4.799h9.597v4.799zM27.993 23.197h-9.591v4.799h9.591v-4.799zM27.997 13.6h-23.997v4.799h23.997v-4.799zM18.404 4.004h-14.397v4.799h14.397v-4.799zM28 4.004h-4.799v4.799h4.799v-4.799z"></path>
</symbol>
<symbol id="esocons-github" viewBox="0 0 32 32">
<title>github</title>
<path class="path1" d="M16 2.667c-7.364 0-13.333 5.969-13.333 13.333 0 5.892 3.82 10.888 9.119 12.652 0.667 0.12 0.909-0.291 0.909-0.645 0-0.315-0.012-1.155-0.019-2.265-3.709 0.803-4.492-1.787-4.492-1.787-0.607-1.543-1.48-1.953-1.48-1.953-1.212-0.827 0.092-0.811 0.092-0.811 1.339 0.095 2.043 1.373 2.043 1.373 1.188 2.039 3.121 1.452 3.88 1.111 0.121-0.863 0.465-1.448 0.847-1.783-2.96-0.335-6.073-1.481-6.073-6.591 0-1.455 0.52-2.645 1.373-3.576-0.137-0.339-0.596-1.693 0.129-3.528 0 0 1.12-0.359 3.667 1.367 1.065-0.297 2.205-0.444 3.339-0.449 1.133 0.005 2.273 0.152 3.339 0.448 2.545-1.725 3.664-1.367 3.664-1.367 0.728 1.835 0.269 3.192 0.133 3.528 0.853 0.932 1.368 2.121 1.368 3.576 0 5.121-3.116 6.249-6.087 6.58 0.479 0.409 0.905 1.223 0.905 2.469 0 1.78-0.016 3.22-0.016 3.655 0 0.359 0.24 0.772 0.917 0.641 5.293-1.764 9.109-6.757 9.109-12.645 0-7.364-5.969-13.333-13.333-13.333z"></path>
</symbol>
<symbol id="esocons-google" viewBox="0 0 32 32">
<title>google</title>
<path class="path1" d="M16.027 13.573v4.973h7.347c-0.347 2.093-2.227 5.627-7.333 5.627-4.413 0-8.013-3.667-8.013-8.16s3.6-8.16 8.013-8.16c2.493 0 4.173 1.067 5.133 1.973l3.787-3.68c-2.307-2.16-5.32-3.48-8.92-3.48-7.36 0-13.333 5.973-13.333 13.333s5.973 13.333 13.333 13.333c7.693 0 12.8-5.413 12.8-13.027 0-1.107-0.147-1.893-0.333-2.733h-12.48z"></path>
</symbol>
<symbol id="esocons-google-alt" viewBox="0 0 32 32">
<title>google-alt</title>
<path class="path1" d="M16 2.667c-7.364 0-13.333 5.969-13.333 13.333s5.969 13.333 13.333 13.333 13.333-5.969 13.333-13.333-5.969-13.333-13.333-13.333zM15.933 24c-4.416 0-8-3.584-8-8s3.584-8 8-8c2.16 0 3.968 0.792 5.352 2.088l-2.272 2.208c-0.576-0.544-1.584-1.184-3.080-1.184-2.648 0-4.808 2.2-4.808 4.896s2.16 4.896 4.808 4.896c3.064 0 4.192-2.12 4.4-3.376h-4.408v-2.984h7.488c0.112 0.504 0.2 0.976 0.2 1.64 0 4.568-3.064 7.816-7.68 7.816z"></path>
</symbol>
<symbol id="esocons-google-plus" viewBox="0 0 32 32">
<title>google-plus</title>
<path class="path1" d="M16 2.667c-7.364 0-13.333 5.969-13.333 13.333s5.969 13.333 13.333 13.333 13.333-5.969 13.333-13.333-5.969-13.333-13.333-13.333zM13.441 21.4c-2.981 0-5.4-2.419-5.4-5.4s2.419-5.4 5.4-5.4c1.459 0 2.679 0.535 3.612 1.409l-1.533 1.491c-0.389-0.367-1.069-0.799-2.079-0.799-1.788 0-3.245 1.485-3.245 3.305s1.459 3.305 3.245 3.305c2.068 0 2.829-1.431 2.969-2.279h-2.976v-2.015h5.055c0.076 0.34 0.135 0.659 0.135 1.107 0.001 3.083-2.067 5.275-5.183 5.275zM25.333 17h-1.667v1.667h-2v-1.667h-1.667v-2h1.667v-1.667h2v1.667h1.667v2z"></path>
</symbol>
<symbol id="esocons-google-plus-alt" viewBox="0 0 32 32">
<title>google-plus-alt</title>
<path class="path1" d="M10.667 14.667h8.813c0.080 0.467 0.147 0.933 0.147 1.547 0 5.333-3.573 9.12-8.96 9.12-5.16 0-9.333-4.173-9.333-9.333s4.173-9.333 9.333-9.333c2.52 0 4.627 0.92 6.253 2.44l-2.533 2.44c-0.693-0.667-1.907-1.44-3.72-1.44-3.187 0-5.787 2.64-5.787 5.893s2.6 5.893 5.787 5.893c3.693 0 5.080-2.653 5.293-4.027h-5.293v-3.2zM30.667 14.667h-2.667v-2.667h-2.667v2.667h-2.667v2.667h2.667v2.667h2.667v-2.667h2.667z"></path>
</symbol>
<symbol id="esocons-instagram" viewBox="0 0 32 32">
<title>instagram</title>
<path class="path1" d="M16 6.163c3.204 0 3.584 0.012 4.849 0.069 1.169 0.053 1.805 0.249 2.228 0.413 0.56 0.217 0.96 0.477 1.38 0.897s0.68 0.82 0.897 1.38c0.164 0.423 0.36 1.059 0.413 2.228 0.057 1.265 0.069 1.645 0.069 4.849s-0.012 3.584-0.069 4.849c-0.053 1.169-0.249 1.805-0.413 2.228-0.217 0.56-0.477 0.96-0.897 1.38s-0.82 0.68-1.38 0.897c-0.423 0.164-1.059 0.36-2.228 0.413-1.265 0.057-1.644 0.069-4.849 0.069s-3.584-0.012-4.849-0.069c-1.169-0.053-1.805-0.249-2.228-0.413-0.56-0.217-0.96-0.477-1.38-0.897s-0.68-0.82-0.897-1.38c-0.164-0.423-0.36-1.059-0.413-2.228-0.057-1.265-0.069-1.645-0.069-4.849s0.012-3.584 0.069-4.849c0.053-1.169 0.249-1.805 0.413-2.228 0.217-0.56 0.477-0.96 0.897-1.38s0.82-0.68 1.38-0.897c0.423-0.164 1.059-0.36 2.228-0.413 1.265-0.057 1.645-0.069 4.849-0.069zM16 4c-3.259 0-3.668 0.013-4.948 0.072-1.277 0.059-2.149 0.261-2.912 0.557-0.789 0.307-1.459 0.717-2.125 1.385-0.667 0.667-1.077 1.336-1.384 2.125-0.297 0.763-0.5 1.635-0.559 2.912-0.059 1.28-0.072 1.689-0.072 4.948s0.013 3.668 0.072 4.948c0.059 1.277 0.261 2.149 0.557 2.913 0.307 0.789 0.717 1.459 1.384 2.125s1.336 1.077 2.125 1.384c0.763 0.296 1.636 0.5 2.913 0.557 1.28 0.059 1.689 0.072 4.948 0.072s3.668-0.013 4.948-0.072c1.277-0.059 2.149-0.261 2.913-0.557 0.789-0.307 1.459-0.717 2.125-1.384s1.077-1.336 1.384-2.125c0.296-0.763 0.5-1.636 0.557-2.913 0.059-1.28 0.072-1.689 0.072-4.948s-0.013-3.668-0.072-4.948c-0.059-1.277-0.261-2.149-0.557-2.913-0.307-0.789-0.717-1.459-1.384-2.125s-1.336-1.077-2.125-1.384c-0.763-0.296-1.636-0.5-2.913-0.557-1.28-0.059-1.689-0.072-4.948-0.072v0zM16 9.837c-3.403 0-6.163 2.759-6.163 6.163s2.76 6.163 6.163 6.163 6.163-2.759 6.163-6.163-2.76-6.163-6.163-6.163zM16 20c-2.209 0-4-1.791-4-4s1.791-4 4-4 4 1.791 4 4-1.791 4-4 4zM22.405 8.155c-0.795 0-1.44 0.645-1.44 1.44s0.645 1.44 1.44 1.44c0.795 0 1.44-0.645 1.44-1.44s-0.644-1.44-1.44-1.44z"></path>
</symbol>
<symbol id="esocons-linkedin" viewBox="0 0 32 32">
<title>linkedin</title>
<path class="path1" d="M26.267 4h-20.533c-0.957 0-1.733 0.776-1.733 1.733v20.533c0 0.957 0.776 1.733 1.733 1.733h20.533c0.957 0 1.733-0.776 1.733-1.733v-20.533c0-0.957-0.776-1.733-1.733-1.733zM11.119 24.451h-3.563v-11.453h3.563v11.453zM9.339 11.432c-1.143 0-2.065-0.925-2.065-2.064 0-1.14 0.921-2.064 2.065-2.064 1.139 0 2.063 0.925 2.063 2.064 0 1.14-0.924 2.064-2.063 2.064zM24.452 24.451h-3.559v-5.569c0-1.328-0.023-3.037-1.849-3.037-1.852 0-2.135 1.448-2.135 2.941v5.665h-3.556v-11.453h3.412v1.565h0.049c0.475-0.9 1.636-1.849 3.368-1.849 3.604 0 4.271 2.372 4.271 5.456v6.281z"></path>
</symbol>
<symbol id="esocons-mail" viewBox="0 0 32 32">
<title>mail</title>
<path class="path1" d="M26.667 5.333h-21.333c-1.473 0-2.667 1.193-2.667 2.667v16c0 1.473 1.193 2.667 2.667 2.667h21.333c1.473 0 2.667-1.193 2.667-2.667v-16c0-1.473-1.193-2.667-2.667-2.667zM26.667 10.981l-10.667 6.509-10.667-6.509v-2.981h21.333v2.981z"></path>
</symbol>
<symbol id="esocons-medium" viewBox="0 0 32 32">
<title>medium</title>
<path class="path1" d="M27.949 9.676l-7.276 11.823-5.231-8.5 4.168-6.773c0.149-0.243 0.425-0.381 0.703-0.381 0.067 0 0.133 0.011 0.199 0.027 0.052 0.013 0.104 0.031 0.152 0.055l7.248 3.624c0.005 0.003 0.009 0.008 0.015 0.011 0.035 0.028 0.047 0.076 0.023 0.116zM13.147 11.456v7.711l6.853 3.427-6.853-11.137zM21.029 23.108l5.641 2.82c0.735 0.367 1.329 0.111 1.329-0.573v-13.575l-6.971 11.328zM11.957 9.571l-7.071-3.535c-0.128-0.064-0.249-0.095-0.36-0.095-0.309 0-0.527 0.24-0.527 0.643v15.267c0 0.408 0.299 0.892 0.664 1.075l6.228 3.113c0.16 0.080 0.312 0.117 0.449 0.117 0.387 0 0.659-0.3 0.659-0.803v-15.712c0-0.031-0.016-0.057-0.043-0.071z"></path>
</symbol>
<symbol id="esocons-path" viewBox="0 0 32 32">
<title>path</title>
<path class="path1" d="M25.333 4h-18.667c-1.473 0-2.667 1.193-2.667 2.667v18.667c0 1.473 1.193 2.667 2.667 2.667h18.667c1.473 0 2.667-1.193 2.667-2.667v-18.667c0-1.473-1.193-2.667-2.667-2.667zM19.893 18.921c-0.511 0.255-1.157 0.451-1.745 0.451-0.647 0-1.333-0.020-1.941-0.313v1.333c0 1.725-0.745 2.764-2.549 2.764-0.511 0-1.491-0.157-1.784-0.627v-2.119c0.275 0.313 0.705 0.529 1.137 0.529 0.471 0 0.745-0.273 0.745-0.745v-7.333h2.452v4.313c0.412 0.137 0.824 0.196 1.255 0.196 1.569 0 2.883-1.059 2.883-2.707 0-2.569-2.216-3.568-4.491-3.568-2.119 0-4.315 1.235-4.315 3.588 0 0.725 0.157 1.313 0.667 1.844l-1.785 1.529c-0.98-1.079-1.216-1.941-1.216-3.373 0-3.725 3.099-5.843 6.569-5.843 3.511 0 7.020 1.804 7.020 5.725 0 1.963-1.157 3.532-2.901 4.355z"></path>
</symbol>
<symbol id="esocons-path-alt" viewBox="0 0 32 32">
<title>path-alt</title>
<path class="path1" d="M22.921 21.84c-0.903 0.451-2.049 0.799-3.091 0.799-1.145 0-2.361-0.035-3.436-0.555v2.361c0 3.053-1.319 4.895-4.513 4.895-0.903 0-2.64-0.279-3.16-1.111v-3.751c0.485 0.555 1.249 0.937 2.013 0.937 0.833 0 1.319-0.485 1.319-1.32v-12.984h4.34v7.637c0.728 0.243 1.459 0.347 2.221 0.347 2.777 0 5.104-1.875 5.104-4.792 0-4.548-3.924-6.317-7.951-6.317-3.751 0-7.639 2.187-7.639 6.352 0 1.285 0.279 2.327 1.181 3.264l-3.16 2.708c-1.735-1.909-2.151-3.436-2.151-5.971 0-6.596 5.485-10.345 11.629-10.345 6.215 0 12.429 3.193 12.429 10.137 0.001 3.472-2.047 6.249-5.137 7.708z"></path>
</symbol>
<symbol id="esocons-pinterest" viewBox="0 0 32 32">
<title>pinterest</title>
<path class="path1" d="M16 2.667c-7.364 0-13.333 5.969-13.333 13.333 0 5.648 3.515 10.473 8.475 12.416-0.116-1.055-0.221-2.673 0.047-3.825 0.243-1.040 1.564-6.628 1.564-6.628s-0.399-0.799-0.399-1.979c0-1.853 1.075-3.239 2.412-3.239 1.137 0 1.687 0.855 1.687 1.879 0 1.144-0.728 2.855-1.104 4.439-0.315 1.328 0.665 2.409 1.975 2.409 2.369 0 4.192-2.499 4.192-6.105 0-3.192-2.293-5.424-5.569-5.424-3.793 0-6.020 2.845-6.020 5.787 0 1.145 0.441 2.375 0.992 3.043 0.109 0.132 0.125 0.248 0.092 0.383-0.103 0.421-0.328 1.327-0.372 1.512-0.059 0.244-0.193 0.296-0.445 0.179-1.665-0.775-2.707-3.209-2.707-5.165 0-4.205 3.056-8.068 8.809-8.068 4.625 0 8.22 3.296 8.22 7.7 0 4.595-2.897 8.293-6.919 8.293-1.351 0-2.621-0.701-3.056-1.531 0 0-0.668 2.545-0.831 3.169-0.301 1.159-1.113 2.609-1.657 3.496 1.248 0.385 2.573 0.593 3.948 0.593 7.364 0 13.333-5.969 13.333-13.333s-5.969-13.333-13.333-13.333z"></path>
</symbol>
<symbol id="esocons-pinterest-alt" viewBox="0 0 32 32">
<title>pinterest-alt</title>
<path class="path1" d="M16.385 2.667c-7.563 0-11.577 4.864-11.577 10.163 0 2.461 1.367 5.528 3.555 6.504 0.333 0.148 0.508 0.084 0.585-0.225 0.059-0.233 0.356-1.372 0.487-1.904 0.043-0.171 0.023-0.316-0.121-0.483-0.72-0.84-1.3-2.388-1.3-3.831 0-3.703 2.925-7.285 7.911-7.285 4.307 0 7.32 2.811 7.32 6.829 0 4.543-2.392 7.691-5.507 7.691-1.721 0-3.009-1.361-2.597-3.036 0.496-1.993 1.452-4.149 1.452-5.588 0-1.289-0.723-2.367-2.217-2.367-1.759 0-3.172 1.745-3.172 4.079 0 1.487 0.525 2.492 0.525 2.492s-1.736 7.039-2.053 8.348c-0.54 2.221 0.071 5.824 0.125 6.139 0.028 0.168 0.223 0.225 0.333 0.084 0.172-0.22 2.265-3.225 2.856-5.401 0.211-0.787 1.089-3.993 1.089-3.993 0.573 1.045 2.241 1.928 4.017 1.928 5.284 0 9.096-4.659 9.096-10.444 0-5.549-4.727-9.699-10.807-9.699z"></path>
</symbol>
<symbol id="esocons-pocket" viewBox="0 0 32 32">
<title>pocket</title>
<path class="path1" d="M29.236 5.592c-0.347-0.952-1.26-1.592-2.273-1.592h-21.844c-0.996 0-1.904 0.627-2.259 1.56-0.105 0.277-0.159 0.565-0.159 0.859v8.047l0.092 1.6c0.387 3.64 2.276 6.82 5.199 9.037 0.052 0.040 0.105 0.079 0.159 0.119l0.033 0.024c1.567 1.145 3.321 1.921 5.213 2.303 0.873 0.176 1.767 0.267 2.655 0.267 0.82 0 1.643-0.076 2.452-0.227 0.097-0.019 0.193-0.037 0.292-0.059 0.027-0.005 0.056-0.016 0.085-0.031 1.812-0.396 3.495-1.152 5.004-2.255l0.033-0.024c0.053-0.039 0.107-0.077 0.159-0.119 2.923-2.219 4.812-5.399 5.197-9.037l0.092-1.6v-8.045c0.001-0.279-0.033-0.555-0.131-0.827zM23.589 13.975l-6.272 6.016c-0.355 0.339-0.811 0.509-1.265 0.509-0.456 0-0.912-0.171-1.265-0.509l-6.273-6.016c-0.729-0.699-0.753-1.856-0.055-2.585s1.856-0.753 2.585-0.053l5.008 4.801 5.007-4.801c0.729-0.699 1.887-0.675 2.585 0.053 0.697 0.729 0.673 1.885-0.055 2.585z"></path>
</symbol>
<symbol id="esocons-polldaddy" viewBox="0 0 32 32">
<title>polldaddy</title>
<path class="path1" d="M16 2.667c-7.351 0-13.333 5.983-13.333 13.333 0 7.352 5.983 13.333 13.333 13.333 7.352 0 13.333-5.981 13.333-13.333 0-7.351-5.981-13.333-13.333-13.333zM17.321 4.907c3.148 0.112 6.209 1.668 8.263 4.181 0.377 0.445 0.721 0.924 1.032 1.423-1.903-2.388-4.836-3.92-8.125-3.92-3.143 0-5.956 1.396-7.861 3.604-0.008 0.004-0.013 0.013-0.021 0.019-0.067 0.071-0.133 0.141-0.203 0.212-0.013 0.015-0.027 0.028-0.041 0.043-1.349 1.461-2.177 3.412-2.177 5.553 0 4.516 3.675 8.191 8.191 8.191 0.76 0 1.497-0.108 2.199-0.303-2.465 1.119-5.508 0.996-7.901-0.432-2.455-1.452-4.228-4.148-4.577-7.084-0.392-2.94 0.644-6.064 2.823-8.211 2.139-2.183 5.259-3.432 8.401-3.276zM21.819 16.265c-0.065-2.699-2.116-5.185-4.725-5.565-2.569-0.457-5.223 1.143-5.935 3.548-0.361 1.177-0.253 2.463 0.267 3.537 0.52 1.067 1.423 1.935 2.525 2.345 2.219 0.872 4.84-0.36 5.564-2.484 0.791-2.107-0.528-4.564-2.587-5.035-2.027-0.543-4.215 1.009-4.272 2.991-0.068 0.955 0.337 1.895 1.004 2.505 0.668 0.635 1.64 0.889 2.495 0.705 0.861-0.169 1.6-0.743 1.959-1.512 0.36-0.768 0.292-1.675-0.116-2.356-0.396-0.684-1.145-1.151-1.905-1.175-0.761-0.039-1.493 0.328-1.916 0.905-0.435 0.581-0.507 1.368-0.24 1.985 0.005 0.015 0.013 0.028 0.021 0.040 0.257 0.845 1.032 1.467 1.956 1.489-0.439 0.052-0.899-0.025-1.293-0.244-0.621-0.325-1.079-0.996-1.191-1.72-0.111-0.725 0.12-1.516 0.665-2.052 0.532-0.551 1.319-0.868 2.107-0.808 0.791 0.053 1.545 0.467 2.023 1.145 0.485 0.661 0.68 1.541 0.511 2.364-0.155 0.827-0.705 1.565-1.457 2.019-0.743 0.453-1.685 0.605-2.552 0.381-0.867-0.215-1.635-0.808-2.112-1.608-0.48-0.793-0.653-1.784-0.455-2.708 0.191-0.933 0.764-1.761 1.568-2.337 1.591-1.177 4.075-1.001 5.475 0.548 1.475 1.467 1.769 4.036 0.541 5.828-1.169 1.835-3.653 2.781-5.832 2.125-2.185-0.599-3.884-2.772-4.041-5.137-0.093-1.179 0.173-2.396 0.777-3.436 0.593-1.036 1.54-1.909 2.629-2.483 2.187-1.173 5.088-0.991 7.132 0.565 1.668 1.232 2.777 3.227 2.981 5.345 0 0.015 0.001 0.028 0.001 0.040 0 3.867-3.145 7.013-7.013 7.013-0.916 0-1.792-0.179-2.596-0.501 1.155 0.276 2.369 0.235 3.484-0.105 1.341-0.405 2.525-1.236 3.352-2.335 0.824-1.104 1.267-2.481 1.201-3.825zM16 28.151c-6.699 0-12.148-5.449-12.148-12.151 0-6.385 4.951-11.631 11.215-12.108-0.177 0.021-0.355 0.048-0.529 0.080-3.525 0.604-6.689 2.808-8.427 5.879-1.745 3.068-1.855 6.92-0.4 10.036 1.408 3.12 4.337 5.541 7.701 6.071 3.329 0.587 6.844-0.644 9.049-3.068 2.292-2.396 3.025-6.039 1.981-9.061-0.777-2.413-2.635-4.441-4.933-5.395 4.556 0.792 8.232 4.295 8.232 9.041 0 1.339-0.321 2.693-0.876 3.955-1.997 3.979-6.115 6.721-10.865 6.721z"></path>
</symbol>
<symbol id="esocons-reddit" viewBox="0 0 32 32">
<title>reddit</title>
<path class="path1" d="M29.333 15.755c0-1.675-1.361-3.036-3.036-3.036-0.791 0-1.496 0.32-2.035 0.819-1.975-1.287-4.607-2.125-7.529-2.253l1.561-4.936 4.24 0.997c0.011 1.371 1.128 2.483 2.501 2.483 1.38 0 2.503-1.123 2.503-2.504 0-1.38-1.123-2.503-2.503-2.503-1.025 0-1.908 0.621-2.293 1.507l-4.677-1.101c-0.271-0.063-0.532 0.089-0.613 0.348l-1.8 5.691c-3.088 0.051-5.881 0.893-7.96 2.228-0.535-0.473-1.221-0.775-1.989-0.775-1.675 0-3.036 1.361-3.036 3.036 0 1.085 0.577 2.031 1.437 2.567-0.049 0.295-0.081 0.592-0.081 0.896 0 4.389 5.348 7.96 11.921 7.96s11.921-3.571 11.921-7.96c0-0.285-0.027-0.565-0.071-0.843 0.916-0.521 1.539-1.493 1.539-2.62zM25.035 5.859c0.808 0 1.467 0.657 1.467 1.467s-0.657 1.467-1.467 1.467-1.467-0.659-1.467-1.467 0.657-1.467 1.467-1.467zM3.703 15.755c0-1.103 0.896-2 1.999-2 0.417 0 0.797 0.137 1.117 0.359-1.135 0.901-1.969 1.972-2.416 3.147-0.425-0.364-0.7-0.9-0.7-1.505zM15.945 26.141c-6.001 0-10.885-3.105-10.885-6.924s4.883-6.924 10.885-6.924 10.885 3.105 10.885 6.924-4.884 6.924-10.885 6.924zM27.515 17.335c-0.435-1.187-1.264-2.268-2.396-3.179 0.331-0.248 0.733-0.401 1.177-0.401 1.103 0 2 0.897 2 2 0.001 0.644-0.307 1.215-0.781 1.58zM11.995 19.605c-1.013 0-1.863-0.821-1.863-1.835s0.849-1.863 1.863-1.863c1.013 0 1.835 0.849 1.835 1.863s-0.821 1.835-1.835 1.835zM21.868 17.771c0 1.013-0.821 1.835-1.835 1.835s-1.865-0.821-1.865-1.835c0-1.013 0.852-1.863 1.865-1.863s1.835 0.849 1.835 1.863zM20.305 22.277c0.203 0.203 0.203 0.531 0 0.733-0.899 0.899-2.303 1.336-4.292 1.336-0.005 0-0.009-0.003-0.015-0.003s-0.009 0.003-0.015 0.003c-1.989 0-3.392-0.437-4.291-1.336-0.203-0.203-0.203-0.531 0-0.733s0.532-0.201 0.733 0c0.695 0.695 1.859 1.033 3.559 1.033 0.005 0 0.009 0.003 0.015 0.003s0.009-0.003 0.015-0.003c1.7 0 2.864-0.337 3.559-1.033 0.201-0.203 0.531-0.203 0.732 0z"></path>
</symbol>
<symbol id="esocons-share" viewBox="0 0 32 32">
<title>share</title>
<path class="path1" d="M24 21.333c-1.051 0-1.999 0.413-2.712 1.076l-9.408-5.476c0.067-0.307 0.12-0.613 0.12-0.933s-0.053-0.627-0.12-0.933l9.4-5.48c0.72 0.667 1.667 1.080 2.72 1.080 2.213 0 4-1.787 4-4s-1.787-4-4-4-4 1.787-4 4c0 0.32 0.053 0.627 0.12 0.933l-9.4 5.48c-0.72-0.667-1.667-1.080-2.72-1.080-2.213 0-4 1.787-4 4s1.787 4 4 4c1.053 0 2-0.413 2.72-1.080l9.397 5.491c-0.071 0.297-0.117 0.604-0.117 0.923 0 2.209 1.791 4 4 4s4-1.791 4-4-1.791-4-4-4z"></path>
</symbol>
<symbol id="esocons-skype" viewBox="0 0 32 32">
<title>skype</title>
<path class="path1" d="M13.484 3.599c0.044-0.008 0.089-0.017 0.133-0.027 0.044 0.023 0.088 0.044 0.131 0.068l-0.264-0.041zM3.627 13.631c-0.008 0.045-0.015 0.092-0.023 0.137 0.024 0.043 0.044 0.085 0.068 0.127l-0.045-0.264zM28.367 18.361c0.009-0.047 0.015-0.095 0.024-0.141-0.024-0.041-0.044-0.085-0.069-0.127l0.045 0.268zM18.084 28.265c0.043 0.025 0.087 0.047 0.128 0.071 0.048-0.008 0.095-0.015 0.14-0.023l-0.268-0.048zM29.333 21.848c0 1.992-0.775 3.864-2.183 5.271-1.408 1.409-3.279 2.183-5.271 2.183-1.289 0-2.552-0.335-3.667-0.967 0.048-0.008 0.095-0.015 0.14-0.023l-0.269-0.047c0.043 0.025 0.087 0.047 0.128 0.071-0.724 0.128-1.465 0.196-2.205 0.196-1.7 0-3.349-0.333-4.901-0.991-1.5-0.632-2.847-1.541-4.003-2.697s-2.064-2.503-2.697-4.003c-0.657-1.552-0.991-3.201-0.991-4.901 0-0.728 0.065-1.457 0.189-2.171 0.024 0.043 0.044 0.085 0.068 0.127l-0.045-0.265c-0.008 0.045-0.015 0.092-0.023 0.137-0.612-1.101-0.937-2.347-0.937-3.615 0-1.991 0.776-3.864 2.183-5.271 1.408-1.408 3.28-2.184 5.271-2.184 1.22 0 2.424 0.304 3.496 0.873-0.044 0.009-0.089 0.017-0.133 0.027l0.265 0.041c-0.043-0.024-0.088-0.045-0.131-0.068 0.003 0 0.004-0.001 0.005-0.001 0.781-0.149 1.583-0.225 2.384-0.225 1.7 0 3.349 0.332 4.901 0.989 1.499 0.635 2.847 1.541 4.003 2.699 1.157 1.156 2.064 2.503 2.699 4.003 0.657 1.552 0.991 3.201 0.991 4.901 0 0.767-0.072 1.533-0.209 2.283-0.024-0.041-0.044-0.085-0.069-0.127l0.045 0.268c0.009-0.047 0.015-0.095 0.024-0.141 0.615 1.105 0.943 2.356 0.943 3.628zM22.423 18.851c0-1.775-0.817-3.657-4.044-4.376l-2.945-0.653c-1.12-0.256-2.409-0.592-2.409-1.649 0-1.059 0.905-1.797 2.537-1.797 3.291 0 2.991 2.261 4.624 2.261 0.86 0 1.612-0.505 1.612-1.375 0-2.028-3.247-3.551-6-3.551-2.989 0-6.173 1.269-6.173 4.651 0 1.628 0.581 3.361 3.785 4.164l3.979 0.993c1.204 0.297 1.505 0.975 1.505 1.585 0 1.016-1.011 2.009-2.839 2.009-3.572 0-3.076-2.749-4.991-2.749-0.86 0-1.484 0.592-1.484 1.437 0 1.648 2.001 3.848 6.475 3.848 4.26 0 6.368-2.051 6.368-4.799z"></path>
</symbol>
<symbol id="esocons-spotify" viewBox="0 0 32 32">
<title>spotify</title>
<path class="path1" d="M16 2.667c-7.364 0-13.333 5.969-13.333 13.333s5.969 13.333 13.333 13.333c7.364 0 13.333-5.969 13.333-13.333s-5.969-13.333-13.333-13.333zM22.115 21.899c-0.24 0.393-0.751 0.516-1.143 0.276-3.131-1.913-7.072-2.347-11.713-1.285-0.447 0.103-0.893-0.177-0.995-0.625-0.103-0.447 0.176-0.893 0.625-0.995 5.079-1.161 9.436-0.661 12.951 1.487 0.391 0.239 0.515 0.751 0.275 1.143zM23.747 18.267c-0.301 0.489-0.941 0.643-1.429 0.343-3.583-2.203-9.047-2.841-13.287-1.555-0.551 0.168-1.131-0.143-1.297-0.691-0.167-0.551 0.144-1.131 0.693-1.297 4.843-1.469 10.863-0.757 14.979 1.771 0.488 0.301 0.641 0.943 0.341 1.429zM23.887 14.487c-4.297-2.552-11.387-2.787-15.491-1.541-0.657 0.2-1.355-0.172-1.555-0.831-0.199-0.66 0.172-1.356 0.832-1.556 4.709-1.429 12.539-1.153 17.487 1.784 0.593 0.352 0.787 1.117 0.436 1.709-0.352 0.592-1.117 0.787-1.709 0.435z"></path>
</symbol>
<symbol id="esocons-squarespace" viewBox="0 0 32 32">
<title>squarespace</title>
<path class="path1" d="M27.827 12.361c-2.009-2.009-5.268-2.009-7.277 0l-8.188 8.188c-0.503 0.503-0.503 1.317 0 1.819 0.503 0.503 1.317 0.503 1.82 0l8.187-8.187c1.005-1.005 2.635-1.005 3.639 0 1.005 1.005 1.005 2.633 0 3.639l-8.029 8.029c1.005 1.005 2.633 1.005 3.639 0l6.211-6.211c2.009-2.009 2.009-5.268 0-7.277zM25.097 15.091c-0.503-0.503-1.317-0.503-1.82 0l-8.187 8.187c-1.005 1.005-2.635 1.005-3.639 0-0.503-0.503-1.317-0.503-1.819 0-0.503 0.503-0.503 1.317 0 1.819 2.009 2.009 5.268 2.009 7.277 0l8.187-8.187c0.501-0.501 0.501-1.317 0-1.819zM22.368 6.903c-2.009-2.011-5.268-2.011-7.277 0l-8.187 8.187c-0.503 0.503-0.503 1.317 0 1.819 0.503 0.503 1.317 0.503 1.819 0l8.188-8.187c1.005-1.005 2.633-1.005 3.639 0 0.503 0.503 1.317 0.503 1.82 0 0.501-0.501 0.501-1.316-0.001-1.819zM19.639 9.632c-0.503-0.503-1.317-0.503-1.819 0l-8.187 8.188c-1.005 1.005-2.635 1.005-3.639 0-1.005-1.004-1.005-2.633 0-3.639l8.029-8.029c-1.005-1.005-2.635-1.005-3.639 0l-6.212 6.209c-2.009 2.011-2.009 5.268 0 7.277s5.268 2.009 7.277 0l8.187-8.188c0.504-0.501 0.504-1.316 0.001-1.819z"></path>
</symbol>
<symbol id="esocons-stumbleupon" viewBox="0 0 32 32">
<title>stumbleupon</title>
<path class="path1" d="M16 5.725c-3.292 0-5.961 2.669-5.961 5.961v8.471c0 0.78-0.632 1.412-1.412 1.412s-1.412-0.632-1.412-1.412v-3.765h-4.548v3.921c0 3.292 2.669 5.961 5.961 5.961s5.961-2.669 5.961-5.961v-8.627c0-0.78 0.632-1.412 1.412-1.412s1.412 0.632 1.412 1.412v1.725l1.883 0.863 2.667-0.863v-1.725c-0.001-3.292-2.671-5.961-5.963-5.961zM17.412 16.471v3.843c0 3.292 2.669 5.961 5.961 5.961s5.96-2.669 5.96-5.961v-3.765h-4.549v3.765c0 0.78-0.632 1.412-1.412 1.412s-1.412-0.632-1.412-1.412v-3.843l-2.667 0.863-1.881-0.863z"></path>
</symbol>
<symbol id="esocons-telegram" viewBox="0 0 32 32">
<title>telegram</title>
<path class="path1" d="M16 2.667c-7.364 0-13.333 5.969-13.333 13.333s5.969 13.333 13.333 13.333 13.333-5.969 13.333-13.333-5.969-13.333-13.333-13.333zM20.107 22.343c0 0-0.333 0.833-1.248 0.433l-3.388-2.599-2.173 1.981c0 0-0.169 0.128-0.355 0.048 0 0-0.16-0.015-0.36-0.648s-1.215-3.963-1.215-3.963l-3.368-1.131c0 0-0.516-0.183-0.567-0.584-0.049-0.4 0.583-0.616 0.583-0.616l13.373-5.245c0 0 1.099-0.483 1.099 0.317l-2.381 12.005z"></path>
</symbol>
<symbol id="esocons-tumblr" viewBox="0 0 32 32">
<title>tumblr</title>
<path class="path1" d="M25.333 4h-18.667c-1.473 0-2.667 1.193-2.667 2.667v18.667c0 1.473 1.193 2.667 2.667 2.667h18.667c1.473 0 2.667-1.193 2.667-2.667v-18.667c0-1.473-1.193-2.667-2.667-2.667zM17.908 23.020c-3.261 0.056-4.496-2.323-4.496-3.997v-4.891h-1.515v-1.933c2.271-0.819 2.817-2.867 2.945-4.033 0.009-0.080 0.072-0.112 0.108-0.112s2.193 0 2.193 0v3.813h2.995v2.267h-3.005v4.66c0.011 0.635 0.243 1.508 1.441 1.476 0.397-0.011 0.929-0.125 1.208-0.259l0.72 2.135c-0.273 0.395-1.495 0.855-2.595 0.875z"></path>
</symbol>
<symbol id="esocons-tumblr-alt" viewBox="0 0 32 32">
<title>tumblr-alt</title>
<path class="path1" d="M22.332 23.195c-0.476 0.227-1.388 0.425-2.068 0.443-2.052 0.055-2.449-1.441-2.467-2.528v-7.98h5.148v-3.88h-5.129v-6.531c0 0-3.693 0-3.756 0-0.061 0-0.169 0.055-0.184 0.192-0.22 1.999-1.156 5.507-5.044 6.908v3.312h2.593v8.376c0 2.868 2.116 6.941 7.7 6.847 1.884-0.032 3.976-0.821 4.439-1.501l-1.232-3.657z"></path>
</symbol>
<symbol id="esocons-twitch" viewBox="0 0 32 32">
<title>twitch</title>
<path class="path1" d="M21.999 10.785h-2.181v6.547h2.181v-6.547zM16 10.785h-2.183v6.547h2.183v-6.547zM5.637 4.237l-1.637 4.364v17.456h5.999v3.276h3.275l3.272-3.275h4.908l6.547-6.544v-15.277h-22.363zM25.819 18.421l-3.819 3.82h-6l-3.271 3.271v-3.272h-4.912v-15.821h18.001v12.003z"></path>
</symbol>
<symbol id="esocons-twitter" viewBox="0 0 32 32">
<title>twitter</title>
<path class="path1" d="M25.333 4h-18.667c-1.473 0-2.667 1.193-2.667 2.667v18.667c0 1.473 1.193 2.667 2.667 2.667h18.667c1.473 0 2.667-1.193 2.667-2.667v-18.667c0-1.473-1.193-2.667-2.667-2.667zM21.955 12.947c0.005 0.132 0.009 0.264 0.009 0.397 0 4.060-3.091 8.741-8.741 8.741-1.735 0-3.349-0.508-4.709-1.38 0.24 0.028 0.485 0.043 0.733 0.043 1.439 0 2.764-0.491 3.816-1.315-1.344-0.025-2.479-0.913-2.869-2.133 0.188 0.036 0.38 0.055 0.577 0.055 0.28 0 0.552-0.037 0.809-0.108-1.405-0.283-2.464-1.524-2.464-3.012 0-0.013 0-0.025 0-0.039 0.415 0.231 0.888 0.368 1.392 0.384-0.824-0.551-1.367-1.491-1.367-2.557 0-0.563 0.152-1.091 0.416-1.544 1.515 1.859 3.779 3.081 6.332 3.209-0.052-0.225-0.080-0.459-0.080-0.7 0-1.696 1.376-3.072 3.072-3.072 0.884 0 1.681 0.373 2.243 0.971 0.7-0.137 1.357-0.393 1.951-0.745-0.229 0.717-0.716 1.32-1.351 1.7 0.621-0.075 1.213-0.24 1.764-0.484-0.413 0.615-0.933 1.156-1.533 1.589z"></path>
</symbol>
<symbol id="esocons-twitter-alt" viewBox="0 0 32 32">
<title>twitter-alt</title>
<path class="path1" d="M29.64 7.899c-0.981 0.435-2.036 0.729-3.143 0.861 1.129-0.677 1.997-1.749 2.405-3.027-1.057 0.627-2.228 1.083-3.475 1.328-0.996-1.064-2.419-1.728-3.992-1.728-3.021 0-5.471 2.449-5.471 5.471 0 0.429 0.048 0.847 0.141 1.247-4.547-0.228-8.577-2.405-11.276-5.716-0.471 0.808-0.741 1.748-0.741 2.751 0 1.899 0.965 3.572 2.433 4.553-0.897-0.028-1.74-0.275-2.479-0.684 0 0.023 0 0.045 0 0.069 0 2.651 1.885 4.863 4.389 5.364-0.459 0.125-0.943 0.192-1.441 0.192-0.352 0-0.695-0.035-1.029-0.099 0.696 2.173 2.717 3.755 5.111 3.8-1.872 1.467-4.232 2.341-6.795 2.341-0.441 0-0.877-0.025-1.305-0.076 2.421 1.552 5.297 2.457 8.387 2.457 10.063 0 15.567-8.336 15.567-15.567 0-0.237-0.005-0.473-0.016-0.708 1.069-0.769 1.996-1.733 2.729-2.831z"></path>
</symbol>
<symbol id="esocons-vimeo" viewBox="0 0 32 32">
<title>vimeo</title>
<path class="path1" d="M29.861 9.552c-0.124 2.701-2.009 6.399-5.66 11.093-3.772 4.903-6.964 7.355-9.575 7.355-1.619 0-2.987-1.492-4.105-4.479-0.747-2.737-1.492-5.475-2.24-8.212-0.831-2.985-1.72-4.48-2.673-4.48-0.208 0-0.935 0.437-2.179 1.307l-1.304-1.681c1.369-1.203 2.72-2.407 4.049-3.611 1.827-1.577 3.199-2.408 4.112-2.492 2.159-0.208 3.488 1.268 3.987 4.428 0.539 3.409 0.913 5.529 1.121 6.359 0.623 2.828 1.308 4.241 2.056 4.241 0.58 0 1.453-0.917 2.617-2.753 1.161-1.835 1.784-3.229 1.868-4.189 0.167-1.583-0.457-2.376-1.868-2.376-0.664 0-1.349 0.153-2.055 0.455 1.364-4.467 3.969-6.636 7.816-6.512 2.852 0.084 4.197 1.933 4.032 5.548z"></path>
</symbol>
<symbol id="esocons-whatsapp" viewBox="0 0 32 32">
<title>whatsapp</title>
<path class="path1" d="M2.731 29.333l1.875-6.848c-1.156-2.004-1.765-4.277-1.764-6.607 0.003-7.284 5.931-13.212 13.215-13.212 3.535 0.001 6.853 1.377 9.348 3.875s3.868 5.817 3.867 9.348c-0.003 7.285-5.931 13.213-13.213 13.213 0 0 0 0 0 0h-0.005c-2.212-0.001-4.384-0.556-6.315-1.608l-7.007 1.839zM10.060 25.104l0.401 0.239c1.687 1.001 3.619 1.531 5.591 1.531h0.004c6.053 0 10.98-4.927 10.983-10.983 0.001-2.935-1.14-5.695-3.213-7.771s-4.831-3.22-7.765-3.221c-6.059 0-10.985 4.927-10.988 10.983-0.001 2.075 0.58 4.096 1.679 5.845l0.261 0.416-1.109 4.053 4.157-1.092zM22.713 19.032c-0.083-0.137-0.303-0.22-0.633-0.385s-1.953-0.964-2.256-1.075c-0.303-0.111-0.523-0.165-0.743 0.165s-0.853 1.075-1.045 1.295c-0.192 0.22-0.385 0.248-0.715 0.083-0.331-0.165-1.395-0.513-2.655-1.639-0.981-0.876-1.644-1.957-1.837-2.287-0.192-0.331-0.020-0.509 0.145-0.673 0.148-0.148 0.331-0.385 0.495-0.579 0.165-0.193 0.22-0.331 0.331-0.551s0.055-0.413-0.028-0.579c-0.083-0.165-0.743-1.791-1.017-2.452-0.269-0.644-0.543-0.556-0.745-0.567-0.192-0.009-0.413-0.012-0.633-0.012s-0.577 0.083-0.88 0.413c-0.301 0.331-1.155 1.129-1.155 2.755s1.183 3.195 1.348 3.416c0.165 0.22 2.328 3.555 5.64 4.985 0.788 0.34 1.403 0.544 1.883 0.696 0.791 0.252 1.511 0.216 2.080 0.131 0.635-0.095 1.953-0.799 2.228-1.569 0.275-0.773 0.275-1.433 0.193-1.572z"></path>
</symbol>
<symbol id="esocons-wordpress" viewBox="0 0 32 32">
<title>wordpress</title>
<path class="path1" d="M16.211 17.048l-3.597 10.452c1.075 0.316 2.209 0.488 3.387 0.488 1.396 0 2.735-0.241 3.981-0.68-0.032-0.051-0.061-0.105-0.087-0.165l-3.684-10.095zM4.012 16c0 4.745 2.757 8.845 6.756 10.789l-5.717-15.668c-0.665 1.491-1.039 3.14-1.039 4.879zM24.092 15.395c0-1.483-0.532-2.508-0.988-3.307-0.608-0.988-1.177-1.824-1.177-2.812 0-1.101 0.836-2.128 2.013-2.128 0.053 0 0.104 0.007 0.155 0.009-2.132-1.952-4.975-3.145-8.095-3.145-4.188 0-7.872 2.149-10.016 5.403 0.281 0.009 0.547 0.015 0.772 0.015 1.253 0 3.195-0.152 3.195-0.152 0.645-0.037 0.721 0.912 0.076 0.988 0 0-0.649 0.076-1.372 0.113l4.365 12.985 2.624-7.868-1.868-5.117c-0.645-0.037-1.257-0.113-1.257-0.113-0.647-0.039-0.571-1.025 0.076-0.988 0 0 1.979 0.152 3.157 0.152 1.253 0 3.196-0.152 3.196-0.152 0.647-0.037 0.723 0.912 0.076 0.988 0 0-0.651 0.076-1.372 0.113l4.332 12.887 1.196-3.995c0.608-1.559 0.912-2.849 0.912-3.876zM26.519 10.248c0.052 0.381 0.080 0.791 0.080 1.232 0 1.216-0.228 2.584-0.912 4.293l-3.661 10.587c3.564-2.077 5.96-5.939 5.96-10.361 0.003-2.084-0.531-4.043-1.467-5.751zM16 29.333c-7.352 0-13.333-5.981-13.333-13.333s5.981-13.333 13.333-13.333c7.352 0 13.333 5.981 13.333 13.333s-5.981 13.333-13.333 13.333z"></path>
</symbol>
<symbol id="esocons-xanga" viewBox="0 0 32 32">
<title>xanga</title>
<path class="path1" d="M12 12h8v8h-8v-8zM4 12h8v-8h-8v8zM20 12h8v-8h-8v8zM20 28h8v-8h-8v8zM4 28h8v-8h-8v8z"></path>
</symbol>
<symbol id="esocons-youtube" viewBox="0 0 32 32">
<title>youtube</title>
<path class="path1" d="M29.067 10.668c0 0-0.26-1.837-1.060-2.647-1.013-1.063-2.151-1.068-2.672-1.129-3.732-0.269-9.329-0.269-9.329-0.269h-0.012c0 0-5.597 0-9.329 0.269-0.52 0.063-1.656 0.068-2.671 1.129-0.8 0.809-1.060 2.647-1.060 2.647s-0.267 2.159-0.267 4.316v2.023c0 2.157 0.267 4.316 0.267 4.316s0.26 1.837 1.060 2.647c1.015 1.063 2.347 1.028 2.94 1.14 2.133 0.204 9.067 0.268 9.067 0.268s5.604-0.008 9.335-0.279c0.521-0.063 1.657-0.068 2.672-1.129 0.8-0.809 1.060-2.647 1.060-2.647s0.267-2.157 0.267-4.316v-2.023c0-2.157-0.267-4.316-0.267-4.316zM13.247 19.459l-0.001-7.493 7.205 3.76-7.204 3.733z"></path>
</symbol>
<symbol id="esocons-amazon" viewBox="0 0 32 32">
<title>amazon</title>
<path class="path1" d="M18.109 10.909c-2.197 0.247-5.069 0.411-7.125 1.312-2.375 1.025-4.040 3.116-4.040 6.192 0 3.937 2.48 5.905 5.671 5.905 2.693 0 4.167-0.636 6.247-2.753 0.688 0.996 0.913 1.479 2.172 2.525 0.283 0.152 0.644 0.137 0.896-0.088l0.008 0.008c0.756-0.673 2.132-1.868 2.907-2.517 0.308-0.251 0.253-0.661 0.012-1.005-0.693-0.957-1.429-1.737-1.429-3.512v-5.903c0-2.501 0.177-4.799-1.665-6.521-1.455-1.393-3.865-1.885-5.708-1.885-3.605 0-7.629 1.347-8.472 5.801-0.091 0.473 0.255 0.723 0.564 0.792l3.672 0.397c0.344-0.017 0.593-0.355 0.659-0.697 0.315-1.535 1.6-2.275 3.045-2.275 0.779 0 1.665 0.287 2.127 0.984 0.531 0.779 0.461 1.845 0.461 2.748v0.492zM17.399 18.784c-0.601 1.067-1.559 1.721-2.623 1.721-1.453 0-2.304-1.107-2.304-2.748 0-3.227 2.895-3.813 5.636-3.813v0.82c0.001 1.477 0.036 2.708-0.709 4.020zM27.577 25.785c-3.139 2.316-7.688 3.548-11.605 3.548-5.491 0-10.435-2.029-14.176-5.409-0.293-0.265-0.032-0.628 0.321-0.423 4.036 2.349 9.028 3.764 14.185 3.764 3.477 0 7.301-0.721 10.82-2.213 0.529-0.225 0.973 0.349 0.455 0.733zM28.448 28.057c-0.259 0.217-0.505 0.101-0.391-0.185 0.379-0.947 1.227-3.064 0.825-3.579s-2.653-0.244-3.665-0.123c-0.307 0.036-0.355-0.231-0.079-0.425 1.797-1.261 4.74-0.897 5.081-0.475 0.347 0.427-0.088 3.377-1.772 4.787z"></path>
</symbol>
<symbol id="esocons-behance" viewBox="0 0 32 32">
<title>behance</title>
<path class="path1" d="M10.399 7.597c0.785 0 1.493 0.068 2.141 0.208 0.643 0.136 1.192 0.364 1.655 0.676 0.459 0.313 0.816 0.728 1.072 1.251 0.251 0.516 0.375 1.161 0.375 1.924 0 0.825-0.188 1.516-0.561 2.068-0.379 0.551-0.933 1.001-1.673 1.352 1.008 0.291 1.756 0.801 2.252 1.528 0.499 0.732 0.743 1.607 0.743 2.633 0 0.831-0.16 1.548-0.479 2.149-0.321 0.609-0.759 1.104-1.297 1.485-0.544 0.384-1.168 0.667-1.865 0.849-0.691 0.187-1.408 0.279-2.143 0.279h-7.951v-16.403h7.732zM9.932 14.224c0.641 0 1.171-0.152 1.589-0.46 0.415-0.304 0.617-0.804 0.617-1.492 0-0.381-0.068-0.697-0.203-0.943-0.139-0.243-0.321-0.435-0.555-0.569-0.232-0.139-0.493-0.235-0.795-0.288-0.299-0.059-0.609-0.080-0.929-0.080h-3.379v3.832h3.653zM10.133 21.207c0.356 0 0.695-0.032 1.012-0.103 0.324-0.071 0.609-0.183 0.849-0.348 0.243-0.16 0.443-0.377 0.588-0.655 0.147-0.275 0.217-0.632 0.217-1.064 0-0.844-0.24-1.445-0.711-1.809-0.475-0.36-1.107-0.539-1.884-0.539h-3.927v4.517h3.855zM21.549 21.152c0.489 0.477 1.196 0.717 2.111 0.717 0.657 0 1.227-0.167 1.703-0.499 0.472-0.331 0.761-0.685 0.872-1.053h2.873c-0.463 1.429-1.163 2.451-2.119 3.065-0.944 0.617-2.096 0.924-3.44 0.924-0.935 0-1.776-0.151-2.532-0.449-0.756-0.303-1.388-0.725-1.919-1.277-0.519-0.553-0.919-1.209-1.205-1.979-0.284-0.765-0.427-1.613-0.427-2.532 0-0.888 0.147-1.717 0.439-2.484 0.296-0.769 0.705-1.433 1.244-1.989 0.541-0.56 1.18-1.001 1.925-1.325 0.744-0.321 1.567-0.484 2.476-0.484 1.005 0 1.885 0.193 2.64 0.587 0.751 0.388 1.368 0.915 1.852 1.575 0.484 0.657 0.829 1.409 1.044 2.253 0.213 0.843 0.289 1.723 0.228 2.644h-8.571c-0.001 0.941 0.316 1.829 0.805 2.307zM25.297 14.912c-0.388-0.428-1.044-0.661-1.845-0.661-0.52 0-0.952 0.088-1.297 0.267-0.339 0.176-0.615 0.396-0.828 0.655-0.209 0.263-0.353 0.54-0.437 0.837-0.084 0.289-0.135 0.551-0.148 0.783h5.307c-0.077-0.833-0.361-1.447-0.751-1.88zM20.076 10.317h6.647v-1.619h-6.647v1.619z"></path>
</symbol>
<symbol id="esocons-blogger" viewBox="0 0 32 32">
<title>blogger</title>
<path class="path1" d="M19.629 18.692c0 0.481-0.391 0.872-0.872 0.872h-5.455c-0.481 0-0.872-0.391-0.872-0.872s0.391-0.872 0.872-0.872h5.455c0.481 0 0.872 0.391 0.872 0.872zM13.308 14.264h2.717c0.509 0 0.923-0.413 0.923-0.923s-0.413-0.923-0.923-0.923h-2.717c-0.509 0-0.923 0.413-0.923 0.923s0.413 0.923 0.923 0.923zM28 6.667v18.667c0 1.473-1.193 2.667-2.667 2.667h-18.667c-1.473 0-2.667-1.193-2.667-2.667v-18.667c0-1.473 1.193-2.667 2.667-2.667h18.667c1.473 0 2.667 1.193 2.667 2.667zM23.392 15.187c0-0.531-0.429-0.96-0.96-0.96h-0.809l-0.017 0.001c-0.507 0-0.923-0.393-0.957-0.891l-0.001-0.011c0-2.651-2.148-4.799-4.799-4.799h-2.421c-2.651 0-4.799 2.148-4.799 4.799v5.263c0 2.649 2.148 4.799 4.799 4.799h5.165c2.651 0 4.799-2.148 4.799-4.799l0.001-3.403z"></path>
</symbol>
<symbol id="esocons-blogger-alt" viewBox="0 0 32 32">
<title>blogger-alt</title>
<path class="path1" d="M26.372 13.205l-1.336 0.001c-0.819 0-1.489-0.635-1.547-1.439l-0.001-0.017c0-4.28-3.469-7.751-7.751-7.751h-3.909c-4.28 0-7.751 3.469-7.751 7.751v8.5c0 4.28 3.469 7.751 7.751 7.751h8.343c4.28 0 7.751-3.471 7.751-7.751l0.003-5.495c-0.001-0.857-0.696-1.551-1.552-1.551zM11.635 10.284h4.388c0.823 0 1.489 0.667 1.489 1.489s-0.667 1.489-1.489 1.489h-4.388c-0.823 0-1.489-0.667-1.489-1.489 0-0.821 0.667-1.489 1.489-1.489zM20.436 21.827h-8.809c-0.779 0-1.409-0.631-1.409-1.409s0.631-1.409 1.409-1.409h8.809c0.779 0 1.409 0.631 1.409 1.409s-0.631 1.409-1.409 1.409z"></path>
</symbol>
<symbol id="esocons-codepen" viewBox="0 0 32 32">
<title>codepen</title>
<path class="path1" d="M29.355 11.787c-0.003-0.017-0.007-0.033-0.009-0.049-0.007-0.033-0.011-0.064-0.020-0.096-0.004-0.020-0.013-0.037-0.017-0.056-0.011-0.027-0.020-0.053-0.031-0.083-0.009-0.020-0.017-0.037-0.027-0.056-0.011-0.027-0.024-0.049-0.040-0.076-0.009-0.017-0.023-0.036-0.033-0.051-0.016-0.024-0.031-0.047-0.047-0.069-0.013-0.017-0.027-0.033-0.040-0.049-0.020-0.023-0.037-0.043-0.057-0.060-0.013-0.016-0.029-0.031-0.047-0.047-0.020-0.020-0.043-0.037-0.064-0.053-0.016-0.013-0.033-0.027-0.049-0.040-0.007-0.004-0.013-0.011-0.020-0.016l-12.215-8.128c-0.385-0.256-0.888-0.256-1.273 0l-12.22 8.125c-0.007 0.004-0.013 0.011-0.020 0.016l-0.051 0.037c-0.023 0.017-0.044 0.036-0.064 0.053-0.016 0.019-0.032 0.033-0.048 0.047-0.020 0.020-0.037 0.040-0.056 0.063-0.016 0.017-0.029 0.031-0.040 0.049-0.015 0.023-0.033 0.047-0.047 0.069-0.011 0.017-0.021 0.035-0.033 0.051-0.015 0.029-0.028 0.052-0.040 0.079-0.008 0.020-0.017 0.037-0.027 0.055-0.011 0.029-0.020 0.059-0.028 0.085-0.007 0.017-0.013 0.036-0.017 0.056-0.009 0.031-0.015 0.061-0.021 0.095-0.001 0.019-0.007 0.033-0.008 0.049-0.008 0.052-0.012 0.1-0.012 0.152v8.124c0 0.049 0.004 0.1 0.011 0.149 0.003 0.016 0.007 0.033 0.009 0.051 0.007 0.031 0.011 0.063 0.020 0.096 0.004 0.020 0.011 0.037 0.017 0.053 0.009 0.029 0.017 0.056 0.029 0.084 0.009 0.020 0.017 0.037 0.027 0.053 0.011 0.027 0.024 0.051 0.040 0.077 0.009 0.017 0.020 0.036 0.033 0.051 0.016 0.024 0.031 0.047 0.047 0.069 0.013 0.017 0.027 0.033 0.040 0.049 0.017 0.020 0.037 0.043 0.056 0.060 0.016 0.016 0.031 0.031 0.047 0.047 0.020 0.017 0.043 0.037 0.064 0.053l0.051 0.040c0.007 0.004 0.013 0.009 0.017 0.013l12.217 8.127c0.199 0.135 0.419 0.197 0.641 0.197s0.443-0.063 0.637-0.192l12.237-8.14c0.017-0.013 0.036-0.027 0.049-0.040 0.024-0.017 0.047-0.037 0.064-0.053s0.033-0.031 0.047-0.047c0.023-0.020 0.040-0.043 0.057-0.060 0.013-0.017 0.027-0.033 0.040-0.049 0.017-0.024 0.033-0.047 0.047-0.069 0.011-0.017 0.024-0.036 0.033-0.051 0.016-0.027 0.029-0.051 0.040-0.077 0.009-0.017 0.017-0.036 0.027-0.053 0.011-0.029 0.020-0.056 0.031-0.084 0.004-0.017 0.013-0.036 0.017-0.053 0.009-0.033 0.013-0.064 0.020-0.096 0.003-0.017 0.007-0.036 0.009-0.049 0.004-0.056 0.009-0.105 0.009-0.156v-8.124c0.001-0.052-0.003-0.1-0.011-0.152zM17.149 5.952l9.001 5.987-4.021 2.684-4.98-3.323v-5.348zM14.851 5.952v5.345l-4.98 3.325-4.019-2.684 8.999-5.987zM4.932 14.083l2.872 1.917-2.873 1.917v-3.835zM14.851 26.048l-8.999-5.988 4.020-2.681 4.98 3.323v5.347zM16 18.713l-4.063-2.713 4.063-2.712 4.063 2.712-4.063 2.713zM17.149 26.048v-5.345l4.98-3.323 4.021 2.681-9.001 5.987zM27.071 17.917l-2.875-1.917 2.875-1.917v3.835z"></path>
</symbol>
<symbol id="esocons-dribbble" viewBox="0 0 32 32">
<title>dribbble</title>
<path class="path1" d="M16 29.333c-7.352 0-13.333-5.981-13.333-13.333s5.981-13.333 13.333-13.333c7.352 0 13.333 5.981 13.333 13.333s-5.981 13.333-13.333 13.333zM27.245 17.825c-0.389-0.123-3.525-1.059-7.093-0.487 1.489 4.093 2.096 7.427 2.212 8.12 2.555-1.728 4.373-4.465 4.881-7.633zM20.448 26.501c-0.169-0.999-0.831-4.481-2.429-8.636-0.025 0.008-0.051 0.017-0.075 0.025-6.424 2.239-8.729 6.693-8.935 7.112 1.931 1.505 4.357 2.404 6.991 2.404 1.577 0 3.081-0.323 4.448-0.905zM7.539 23.632c0.257-0.441 3.384-5.617 9.257-7.516 0.148-0.048 0.299-0.093 0.449-0.136-0.285-0.647-0.597-1.295-0.923-1.933-5.688 1.703-11.207 1.631-11.704 1.621-0.004 0.116-0.005 0.232-0.005 0.348-0.003 2.927 1.107 5.597 2.925 7.616zM4.852 13.685c0.509 0.007 5.201 0.027 10.529-1.388-1.887-3.355-3.923-6.175-4.223-6.587-3.187 1.503-5.568 4.44-6.307 7.975zM13.331 4.945c0.315 0.421 2.383 3.239 4.249 6.667 4.049-1.517 5.764-3.823 5.969-4.113-2.011-1.784-4.656-2.871-7.549-2.871-0.919 0-1.812 0.111-2.669 0.317zM24.816 8.816c-0.24 0.324-2.149 2.771-6.36 4.489 0.265 0.543 0.519 1.095 0.756 1.649 0.084 0.197 0.165 0.393 0.245 0.588 3.789-0.476 7.555 0.287 7.931 0.367-0.025-2.688-0.987-5.156-2.572-7.093z"></path>
</symbol>
<symbol id="esocons-dropbox" viewBox="0 0 32 32">
<title>dropbox</title>
<path class="path1" d="M16 8.179l-7.908 4.884-5.425-4.343 7.844-5.124 5.489 4.583zM2.667 17.405l7.844 5.124 5.489-4.584-7.908-4.883-5.425 4.343zM16 17.945l5.488 4.585 7.845-5.125-5.425-4.343-7.908 4.883zM29.333 8.72l-7.845-5.124-5.488 4.583 7.908 4.884 5.425-4.343zM16.015 18.933l-5.505 4.568-2.356-1.537v1.721l7.861 4.719 7.863-4.719v-1.721l-2.359 1.537-5.504-4.568z"></path>
</symbol>
<symbol id="esocons-eventbrite" viewBox="0 0 32 32">
<title>eventbrite</title>
<path class="path1" d="M24.055 5.241l-16.109-1.241c-2.179 0-3.945 1.767-3.945 3.945v16.111c0 2.177 1.767 3.944 3.945 3.944l16.111-1.241c2.209-0.115 3.944-1.767 3.944-3.945v-13.627c0-2.179-1.679-3.817-3.945-3.945zM22.577 10.893c-0.109 0.287-0.256 0.576-0.504 0.735-0.251 0.163-0.652 0.176-1.065 0.176-2.028 0-4.083-0.064-6.143-0.064-0.203 0.944-0.405 1.888-0.601 2.837 1.243-0.005 2.497 0.007 3.747 0.007 0.968 0 1.949-0.092 2.115 0.7 0.053 0.252-0.001 0.568-0.069 0.82-0.14 0.507-0.344 0.901-0.833 1.044-0.247 0.072-0.544 0.077-0.861 0.077-1.527 0-3.127 0.023-4.657 0.027-0.225 1.029-0.437 2.071-0.652 3.111 2.093-0.007 4.089-0.055 6.177-0.077 0.836-0.009 1.447 0.259 1.345 1.133-0.041 0.349-0.131 0.663-0.281 0.967-0.136 0.277-0.331 0.501-0.651 0.603-0.316 0.1-0.721 0.085-1.149 0.104-0.405 0.019-0.819 0.011-1.232 0.021-0.412 0.012-0.825 0.029-1.225 0.029-1.671 0-3.239 0.107-4.911 0.097-0.804-0.005-1.352-0.332-1.499-1.009-0.079-0.364-0.024-0.773 0.048-1.121 0.721-3.456 1.444-6.901 2.172-10.351 0.075-0.353 0.152-0.681 0.3-0.952 0.225-0.405 0.565-0.695 1.053-0.827 0.491-0.132 1.177-0.063 1.792-0.063 0.407 0 0.816 0.011 1.219 0.021 1.233 0.035 2.423 0.040 3.663 0.071 0.405 0.009 0.82 0.021 1.22 0.021 0.828 0 1.56 0.097 1.66 0.819 0.052 0.384-0.068 0.756-0.176 1.044z"></path>
</symbol>
</defs>
</svg>
